<svg xmlns="http://www.w3.org/2000/svg" xmlns:xlink="http://www.w3.org/1999/xlink" contentStyleType="text/css" data-diagram-type="CLASS" height="738px" preserveAspectRatio="none" style="width:2780px;height:738px;background:#FFFFFF;" version="1.1" viewBox="0 0 2780 738" width="2780px" zoomAndPan="magnify"><defs/><g><!--class Bot--><g id="elem_Bot"><rect codeLine="1" fill="#F1F1F1" height="118.4375" id="Bot" rx="2.5" ry="2.5" style="stroke:#181818;stroke-width:0.5;" width="226.0127" x="624.5" y="300"/><ellipse cx="722.7495" cy="316" fill="#ADD1B2" rx="11" ry="11" style="stroke:#181818;stroke-width:1;"/><path d="M725.5151,311.875 Q725.6714,311.6563 725.8589,311.5469 Q726.0464,311.4375 726.2651,311.4375 Q726.6401,311.4375 726.8745,311.7031 Q727.1089,311.9531 727.1089,312.5625 L727.1089,314.0156 Q727.1089,314.625 726.8745,314.8906 Q726.6401,315.1563 726.2651,315.1563 Q725.9214,315.1563 725.7183,314.9531 Q725.5151,314.7656 725.4058,314.25 Q725.3589,313.8906 725.1714,313.7031 Q724.8433,313.3281 724.2339,313.1094 Q723.6245,312.8906 722.9995,312.8906 Q722.2339,312.8906 721.5933,313.2188 Q720.9683,313.5469 720.4683,314.2969 Q719.9839,315.0469 719.9839,316.0781 L719.9839,317.1719 Q719.9839,318.4063 720.8745,319.2344 Q721.7651,320.0469 723.3589,320.0469 Q724.2964,320.0469 724.9526,319.7969 Q725.3433,319.6406 725.7651,319.2031 Q726.0308,318.9375 726.1714,318.8594 Q726.3276,318.7813 726.5308,318.7813 Q726.8589,318.7813 727.1089,319.0469 Q727.3745,319.2969 727.3745,319.6406 Q727.3745,319.9844 727.0308,320.3906 Q726.5308,320.9688 725.7339,321.2969 Q724.6558,321.75 723.3589,321.75 Q721.8433,321.75 720.6401,321.125 Q719.6558,320.625 718.9683,319.5625 Q718.2808,318.4844 718.2808,317.2031 L718.2808,316.0469 Q718.2808,314.7188 718.8901,313.5781 Q719.5151,312.4219 720.6089,311.8125 Q721.7026,311.1875 722.937,311.1875 Q723.6714,311.1875 724.312,311.3594 Q724.9683,311.5156 725.5151,311.875 Z " fill="#000000"/><text fill="#000000" font-family="sans-serif" font-size="14" lengthAdjust="spacing" textLength="21.0137" x="743.2495" y="321.7285">Bot</text><line style="stroke:#181818;stroke-width:0.5;" x1="625.5" x2="849.5127" y1="332" y2="332"/><text fill="#000000" font-family="sans-serif" font-size="14" lengthAdjust="spacing" textLength="94.1787" x="630.5" y="350.5332">logger : Logger</text><text fill="#000000" font-family="sans-serif" font-size="14" lengthAdjust="spacing" textLength="56.7998" x="630.5" y="368.1426">jda : JDA</text><text fill="#000000" font-family="sans-serif" font-size="14" lengthAdjust="spacing" textLength="214.0127" x="630.5" y="385.752">moduleManager : ModuleManager</text><line style="stroke:#181818;stroke-width:0.5;" x1="625.5" x2="849.5127" y1="392.8281" y2="392.8281"/><text fill="#000000" font-family="sans-serif" font-size="14" lengthAdjust="spacing" textLength="73.9033" x="630.5" y="411.3613">start() : void</text></g><!--class ICommand--><g id="elem_ICommand"><rect codeLine="7" fill="#F1F1F1" height="118.4375" id="ICommand" rx="2.5" ry="2.5" style="stroke:#181818;stroke-width:0.5;" width="216.6475" x="1516" y="42.5"/><ellipse cx="1585.8394" cy="58.5" fill="#B4A7E5" rx="11" ry="11" style="stroke:#181818;stroke-width:1;"/><path d="M1586.7925,55.1406 L1586.7925,61.7969 L1588.5112,61.7969 Q1589.1206,61.7969 1589.3862,62.0313 Q1589.6519,62.2656 1589.6519,62.6563 Q1589.6519,63.0313 1589.3862,63.2656 Q1589.1206,63.5 1588.5112,63.5 L1583.3706,63.5 Q1582.7612,63.5 1582.4956,63.2656 Q1582.23,63.0313 1582.23,62.6406 Q1582.23,62.2656 1582.4956,62.0313 Q1582.7612,61.7969 1583.3706,61.7969 L1585.0894,61.7969 L1585.0894,55.1406 L1583.3706,55.1406 Q1582.7612,55.1406 1582.4956,54.9063 Q1582.23,54.6719 1582.23,54.2813 Q1582.23,53.9063 1582.4956,53.6719 Q1582.7612,53.4375 1583.3706,53.4375 L1588.5112,53.4375 Q1589.1206,53.4375 1589.3862,53.6719 Q1589.6519,53.9063 1589.6519,54.2813 Q1589.6519,54.6719 1589.3862,54.9063 Q1589.1206,55.1406 1588.5112,55.1406 L1586.7925,55.1406 Z " fill="#000000"/><text fill="#000000" font-family="sans-serif" font-size="14" font-style="italic" lengthAdjust="spacing" textLength="68.4688" x="1606.3394" y="64.2285">ICommand</text><line style="stroke:#181818;stroke-width:0.5;" x1="1517" x2="1731.6475" y1="74.5" y2="74.5"/><text fill="#000000" font-family="sans-serif" font-size="14" lengthAdjust="spacing" textLength="83.2617" x="1522" y="93.0332">name : String</text><line style="stroke:#181818;stroke-width:0.5;" x1="1517" x2="1731.6475" y1="100.1094" y2="100.1094"/><text fill="#000000" font-family="sans-serif" font-size="14" lengthAdjust="spacing" textLength="95.71" x="1522" y="118.6426">execute() : void</text><text fill="#000000" font-family="sans-serif" font-size="14" lengthAdjust="spacing" textLength="204.6475" x="1522" y="136.252">getSlash() : SlashCommandData</text><text fill="#000000" font-family="sans-serif" font-size="14" lengthAdjust="spacing" textLength="114.3721" x="1522" y="153.8613">getName() : String</text></g><!--class ModuleManager--><g id="elem_ModuleManager"><rect codeLine="13" fill="#F1F1F1" height="153.6563" id="ModuleManager" rx="2.5" ry="2.5" style="stroke:#181818;stroke-width:0.5;" width="278.916" x="7" y="24.5"/><ellipse cx="91.6221" cy="40.5" fill="#ADD1B2" rx="11" ry="11" style="stroke:#181818;stroke-width:1;"/><path d="M94.3877,36.375 Q94.5439,36.1563 94.7314,36.0469 Q94.9189,35.9375 95.1377,35.9375 Q95.5127,35.9375 95.7471,36.2031 Q95.9814,36.4531 95.9814,37.0625 L95.9814,38.5156 Q95.9814,39.125 95.7471,39.3906 Q95.5127,39.6563 95.1377,39.6563 Q94.7939,39.6563 94.5908,39.4531 Q94.3877,39.2656 94.2783,38.75 Q94.2314,38.3906 94.0439,38.2031 Q93.7158,37.8281 93.1064,37.6094 Q92.4971,37.3906 91.8721,37.3906 Q91.1064,37.3906 90.4658,37.7188 Q89.8408,38.0469 89.3408,38.7969 Q88.8564,39.5469 88.8564,40.5781 L88.8564,41.6719 Q88.8564,42.9063 89.7471,43.7344 Q90.6377,44.5469 92.2314,44.5469 Q93.1689,44.5469 93.8252,44.2969 Q94.2158,44.1406 94.6377,43.7031 Q94.9033,43.4375 95.0439,43.3594 Q95.2002,43.2813 95.4033,43.2813 Q95.7314,43.2813 95.9814,43.5469 Q96.2471,43.7969 96.2471,44.1406 Q96.2471,44.4844 95.9033,44.8906 Q95.4033,45.4688 94.6064,45.7969 Q93.5283,46.25 92.2314,46.25 Q90.7158,46.25 89.5127,45.625 Q88.5283,45.125 87.8408,44.0625 Q87.1533,42.9844 87.1533,41.7031 L87.1533,40.5469 Q87.1533,39.2188 87.7627,38.0781 Q88.3877,36.9219 89.4814,36.3125 Q90.5752,35.6875 91.8096,35.6875 Q92.5439,35.6875 93.1846,35.8594 Q93.8408,36.0156 94.3877,36.375 Z " fill="#000000"/><text fill="#000000" font-family="sans-serif" font-size="14" lengthAdjust="spacing" textLength="101.1719" x="112.1221" y="46.2285">ModuleManager</text><line style="stroke:#181818;stroke-width:0.5;" x1="8" x2="284.916" y1="56.5" y2="56.5"/><text fill="#000000" font-family="sans-serif" font-size="14" lengthAdjust="spacing" textLength="234.2402" x="13" y="75.0332">modules : Map&lt;String,EventListener&gt;</text><line style="stroke:#181818;stroke-width:0.5;" x1="8" x2="284.916" y1="82.1094" y2="82.1094"/><text fill="#000000" font-family="sans-serif" font-size="14" lengthAdjust="spacing" textLength="139.2754" x="13" y="100.6426">registerModule() : void</text><text fill="#000000" font-family="sans-serif" font-size="14" lengthAdjust="spacing" textLength="134.6338" x="13" y="118.252">enableModule() : void</text><text fill="#000000" font-family="sans-serif" font-size="14" lengthAdjust="spacing" textLength="136.958" x="13" y="135.8613">disableModule() : void</text><text fill="#000000" font-family="sans-serif" font-size="14" lengthAdjust="spacing" textLength="178.2266" x="13" y="153.4707">isModuleEnabled() : boolean</text><text fill="#000000" font-family="sans-serif" font-size="14" lengthAdjust="spacing" textLength="266.916" x="13" y="171.0801">getModules() : Map&lt;String, EventListener&gt;</text></g><!--class CommandManager--><g id="elem_CommandManager"><rect codeLine="21" fill="#F1F1F1" height="100.8281" id="CommandManager" rx="2.5" ry="2.5" style="stroke:#181818;stroke-width:0.5;" width="254.7852" x="2412" y="522"/><ellipse cx="2475.2256" cy="538" fill="#ADD1B2" rx="11" ry="11" style="stroke:#181818;stroke-width:1;"/><path d="M2477.9912,533.875 Q2478.1475,533.6563 2478.335,533.5469 Q2478.5225,533.4375 2478.7412,533.4375 Q2479.1162,533.4375 2479.3506,533.7031 Q2479.585,533.9531 2479.585,534.5625 L2479.585,536.0156 Q2479.585,536.625 2479.3506,536.8906 Q2479.1162,537.1563 2478.7412,537.1563 Q2478.3975,537.1563 2478.1943,536.9531 Q2477.9912,536.7656 2477.8818,536.25 Q2477.835,535.8906 2477.6475,535.7031 Q2477.3193,535.3281 2476.71,535.1094 Q2476.1006,534.8906 2475.4756,534.8906 Q2474.71,534.8906 2474.0693,535.2188 Q2473.4443,535.5469 2472.9443,536.2969 Q2472.46,537.0469 2472.46,538.0781 L2472.46,539.1719 Q2472.46,540.4063 2473.3506,541.2344 Q2474.2412,542.0469 2475.835,542.0469 Q2476.7725,542.0469 2477.4287,541.7969 Q2477.8193,541.6406 2478.2412,541.2031 Q2478.5068,540.9375 2478.6475,540.8594 Q2478.8037,540.7813 2479.0068,540.7813 Q2479.335,540.7813 2479.585,541.0469 Q2479.8506,541.2969 2479.8506,541.6406 Q2479.8506,541.9844 2479.5068,542.3906 Q2479.0068,542.9688 2478.21,543.2969 Q2477.1318,543.75 2475.835,543.75 Q2474.3193,543.75 2473.1162,543.125 Q2472.1318,542.625 2471.4443,541.5625 Q2470.7568,540.4844 2470.7568,539.2031 L2470.7568,538.0469 Q2470.7568,536.7188 2471.3662,535.5781 Q2471.9912,534.4219 2473.085,533.8125 Q2474.1787,533.1875 2475.4131,533.1875 Q2476.1475,533.1875 2476.7881,533.3594 Q2477.4443,533.5156 2477.9912,533.875 Z " fill="#000000"/><text fill="#000000" font-family="sans-serif" font-size="14" lengthAdjust="spacing" textLength="119.834" x="2495.7256" y="543.7285">CommandManager</text><line style="stroke:#181818;stroke-width:0.5;" x1="2413" x2="2665.7852" y1="554" y2="554"/><text fill="#000000" font-family="sans-serif" font-size="14" lengthAdjust="spacing" textLength="186.7441" x="2418" y="572.5332">commands : List&lt;ICommand&gt;</text><line style="stroke:#181818;stroke-width:0.5;" x1="2413" x2="2665.7852" y1="579.6094" y2="579.6094"/><text fill="#000000" font-family="sans-serif" font-size="14" lengthAdjust="spacing" textLength="242.7852" x="2418" y="598.1426">getSlash() : List&lt;SlashCommandData&gt;</text><text fill="#000000" font-family="sans-serif" font-size="14" lengthAdjust="spacing" textLength="227.2197" x="2418" y="615.752">onSlashCommandInteraction() : void</text></g><!--class ManageCommands--><g id="elem_ManageCommands"><rect codeLine="26" fill="#F1F1F1" height="48" id="ManageCommands" rx="2.5" ry="2.5" style="stroke:#181818;stroke-width:0.5;" width="154.1719" x="2284.5" y="683"/><ellipse cx="2299.5" cy="699" fill="#ADD1B2" rx="11" ry="11" style="stroke:#181818;stroke-width:1;"/><path d="M2302.2656,694.875 Q2302.4219,694.6563 2302.6094,694.5469 Q2302.7969,694.4375 2303.0156,694.4375 Q2303.3906,694.4375 2303.625,694.7031 Q2303.8594,694.9531 2303.8594,695.5625 L2303.8594,697.0156 Q2303.8594,697.625 2303.625,697.8906 Q2303.3906,698.1563 2303.0156,698.1563 Q2302.6719,698.1563 2302.4688,697.9531 Q2302.2656,697.7656 2302.1563,697.25 Q2302.1094,696.8906 2301.9219,696.7031 Q2301.5938,696.3281 2300.9844,696.1094 Q2300.375,695.8906 2299.75,695.8906 Q2298.9844,695.8906 2298.3438,696.2188 Q2297.7188,696.5469 2297.2188,697.2969 Q2296.7344,698.0469 2296.7344,699.0781 L2296.7344,700.1719 Q2296.7344,701.4063 2297.625,702.2344 Q2298.5156,703.0469 2300.1094,703.0469 Q2301.0469,703.0469 2301.7031,702.7969 Q2302.0938,702.6406 2302.5156,702.2031 Q2302.7813,701.9375 2302.9219,701.8594 Q2303.0781,701.7813 2303.2813,701.7813 Q2303.6094,701.7813 2303.8594,702.0469 Q2304.125,702.2969 2304.125,702.6406 Q2304.125,702.9844 2303.7813,703.3906 Q2303.2813,703.9688 2302.4844,704.2969 Q2301.4063,704.75 2300.1094,704.75 Q2298.5938,704.75 2297.3906,704.125 Q2296.4063,703.625 2295.7188,702.5625 Q2295.0313,701.4844 2295.0313,700.2031 L2295.0313,699.0469 Q2295.0313,697.7188 2295.6406,696.5781 Q2296.2656,695.4219 2297.3594,694.8125 Q2298.4531,694.1875 2299.6875,694.1875 Q2300.4219,694.1875 2301.0625,694.3594 Q2301.7188,694.5156 2302.2656,694.875 Z " fill="#000000"/><text fill="#000000" font-family="sans-serif" font-size="14" lengthAdjust="spacing" textLength="122.1719" x="2313.5" y="704.7285">ManageCommands</text><line style="stroke:#181818;stroke-width:0.5;" x1="2285.5" x2="2437.6719" y1="715" y2="715"/><line style="stroke:#181818;stroke-width:0.5;" x1="2285.5" x2="2437.6719" y1="723" y2="723"/></g><!--class CreateRole--><g id="elem_CreateRole"><rect codeLine="28" fill="#F1F1F1" height="118.4375" id="CreateRole" rx="2.5" ry="2.5" style="stroke:#181818;stroke-width:0.5;" width="216.6475" x="886" y="300"/><ellipse cx="954.667" cy="316" fill="#ADD1B2" rx="11" ry="11" style="stroke:#181818;stroke-width:1;"/><path d="M957.4326,311.875 Q957.5889,311.6563 957.7764,311.5469 Q957.9639,311.4375 958.1826,311.4375 Q958.5576,311.4375 958.792,311.7031 Q959.0264,311.9531 959.0264,312.5625 L959.0264,314.0156 Q959.0264,314.625 958.792,314.8906 Q958.5576,315.1563 958.1826,315.1563 Q957.8389,315.1563 957.6357,314.9531 Q957.4326,314.7656 957.3232,314.25 Q957.2764,313.8906 957.0889,313.7031 Q956.7607,313.3281 956.1514,313.1094 Q955.542,312.8906 954.917,312.8906 Q954.1514,312.8906 953.5107,313.2188 Q952.8857,313.5469 952.3857,314.2969 Q951.9014,315.0469 951.9014,316.0781 L951.9014,317.1719 Q951.9014,318.4063 952.792,319.2344 Q953.6826,320.0469 955.2764,320.0469 Q956.2139,320.0469 956.8701,319.7969 Q957.2607,319.6406 957.6826,319.2031 Q957.9482,318.9375 958.0889,318.8594 Q958.2451,318.7813 958.4482,318.7813 Q958.7764,318.7813 959.0264,319.0469 Q959.292,319.2969 959.292,319.6406 Q959.292,319.9844 958.9482,320.3906 Q958.4482,320.9688 957.6514,321.2969 Q956.5732,321.75 955.2764,321.75 Q953.7607,321.75 952.5576,321.125 Q951.5732,320.625 950.8857,319.5625 Q950.1982,318.4844 950.1982,317.2031 L950.1982,316.0469 Q950.1982,314.7188 950.8076,313.5781 Q951.4326,312.4219 952.5264,311.8125 Q953.6201,311.1875 954.8545,311.1875 Q955.5889,311.1875 956.2295,311.3594 Q956.8857,311.5156 957.4326,311.875 Z " fill="#000000"/><text fill="#000000" font-family="sans-serif" font-size="14" lengthAdjust="spacing" textLength="70.8135" x="975.167" y="321.7285">CreateRole</text><line style="stroke:#181818;stroke-width:0.5;" x1="887" x2="1101.6475" y1="332" y2="332"/><text fill="#000000" font-family="sans-serif" font-size="14" lengthAdjust="spacing" textLength="83.2617" x="892" y="350.5332">name : String</text><line style="stroke:#181818;stroke-width:0.5;" x1="887" x2="1101.6475" y1="357.6094" y2="357.6094"/><text fill="#000000" font-family="sans-serif" font-size="14" lengthAdjust="spacing" textLength="95.71" x="892" y="376.1426">execute() : void</text><text fill="#000000" font-family="sans-serif" font-size="14" lengthAdjust="spacing" textLength="204.6475" x="892" y="393.752">getSlash() : SlashCommandData</text><text fill="#000000" font-family="sans-serif" font-size="14" lengthAdjust="spacing" textLength="114.3721" x="892" y="411.3613">getName() : String</text></g><!--class DeleteRole--><g id="elem_DeleteRole"><rect codeLine="34" fill="#F1F1F1" height="118.4375" id="DeleteRole" rx="2.5" ry="2.5" style="stroke:#181818;stroke-width:0.5;" width="216.6475" x="1138" y="300"/><ellipse cx="1207.4429" cy="316" fill="#ADD1B2" rx="11" ry="11" style="stroke:#181818;stroke-width:1;"/><path d="M1210.2085,311.875 Q1210.3647,311.6563 1210.5522,311.5469 Q1210.7397,311.4375 1210.9585,311.4375 Q1211.3335,311.4375 1211.5679,311.7031 Q1211.8022,311.9531 1211.8022,312.5625 L1211.8022,314.0156 Q1211.8022,314.625 1211.5679,314.8906 Q1211.3335,315.1563 1210.9585,315.1563 Q1210.6147,315.1563 1210.4116,314.9531 Q1210.2085,314.7656 1210.0991,314.25 Q1210.0522,313.8906 1209.8647,313.7031 Q1209.5366,313.3281 1208.9272,313.1094 Q1208.3179,312.8906 1207.6929,312.8906 Q1206.9272,312.8906 1206.2866,313.2188 Q1205.6616,313.5469 1205.1616,314.2969 Q1204.6772,315.0469 1204.6772,316.0781 L1204.6772,317.1719 Q1204.6772,318.4063 1205.5679,319.2344 Q1206.4585,320.0469 1208.0522,320.0469 Q1208.9897,320.0469 1209.646,319.7969 Q1210.0366,319.6406 1210.4585,319.2031 Q1210.7241,318.9375 1210.8647,318.8594 Q1211.021,318.7813 1211.2241,318.7813 Q1211.5522,318.7813 1211.8022,319.0469 Q1212.0679,319.2969 1212.0679,319.6406 Q1212.0679,319.9844 1211.7241,320.3906 Q1211.2241,320.9688 1210.4272,321.2969 Q1209.3491,321.75 1208.0522,321.75 Q1206.5366,321.75 1205.3335,321.125 Q1204.3491,320.625 1203.6616,319.5625 Q1202.9741,318.4844 1202.9741,317.2031 L1202.9741,316.0469 Q1202.9741,314.7188 1203.5835,313.5781 Q1204.2085,312.4219 1205.3022,311.8125 Q1206.396,311.1875 1207.6304,311.1875 Q1208.3647,311.1875 1209.0054,311.3594 Q1209.6616,311.5156 1210.2085,311.875 Z " fill="#000000"/><text fill="#000000" font-family="sans-serif" font-size="14" lengthAdjust="spacing" textLength="69.2617" x="1227.9429" y="321.7285">DeleteRole</text><line style="stroke:#181818;stroke-width:0.5;" x1="1139" x2="1353.6475" y1="332" y2="332"/><text fill="#000000" font-family="sans-serif" font-size="14" lengthAdjust="spacing" textLength="83.2617" x="1144" y="350.5332">name : String</text><line style="stroke:#181818;stroke-width:0.5;" x1="1139" x2="1353.6475" y1="357.6094" y2="357.6094"/><text fill="#000000" font-family="sans-serif" font-size="14" lengthAdjust="spacing" textLength="95.71" x="1144" y="376.1426">execute() : void</text><text fill="#000000" font-family="sans-serif" font-size="14" lengthAdjust="spacing" textLength="204.6475" x="1144" y="393.752">getSlash() : SlashCommandData</text><text fill="#000000" font-family="sans-serif" font-size="14" lengthAdjust="spacing" textLength="114.3721" x="1144" y="411.3613">getName() : String</text></g><!--class Ban--><g id="elem_Ban"><rect codeLine="40" fill="#F1F1F1" height="136.0469" id="Ban" rx="2.5" ry="2.5" style="stroke:#181818;stroke-width:0.5;" width="216.6475" x="1390" y="291"/><ellipse cx="1481.6187" cy="307" fill="#ADD1B2" rx="11" ry="11" style="stroke:#181818;stroke-width:1;"/><path d="M1484.3843,302.875 Q1484.5405,302.6563 1484.728,302.5469 Q1484.9155,302.4375 1485.1343,302.4375 Q1485.5093,302.4375 1485.7437,302.7031 Q1485.978,302.9531 1485.978,303.5625 L1485.978,305.0156 Q1485.978,305.625 1485.7437,305.8906 Q1485.5093,306.1563 1485.1343,306.1563 Q1484.7905,306.1563 1484.5874,305.9531 Q1484.3843,305.7656 1484.2749,305.25 Q1484.228,304.8906 1484.0405,304.7031 Q1483.7124,304.3281 1483.103,304.1094 Q1482.4937,303.8906 1481.8687,303.8906 Q1481.103,303.8906 1480.4624,304.2188 Q1479.8374,304.5469 1479.3374,305.2969 Q1478.853,306.0469 1478.853,307.0781 L1478.853,308.1719 Q1478.853,309.4063 1479.7437,310.2344 Q1480.6343,311.0469 1482.228,311.0469 Q1483.1655,311.0469 1483.8218,310.7969 Q1484.2124,310.6406 1484.6343,310.2031 Q1484.8999,309.9375 1485.0405,309.8594 Q1485.1968,309.7813 1485.3999,309.7813 Q1485.728,309.7813 1485.978,310.0469 Q1486.2437,310.2969 1486.2437,310.6406 Q1486.2437,310.9844 1485.8999,311.3906 Q1485.3999,311.9688 1484.603,312.2969 Q1483.5249,312.75 1482.228,312.75 Q1480.7124,312.75 1479.5093,312.125 Q1478.5249,311.625 1477.8374,310.5625 Q1477.1499,309.4844 1477.1499,308.2031 L1477.1499,307.0469 Q1477.1499,305.7188 1477.7593,304.5781 Q1478.3843,303.4219 1479.478,302.8125 Q1480.5718,302.1875 1481.8062,302.1875 Q1482.5405,302.1875 1483.1812,302.3594 Q1483.8374,302.5156 1484.3843,302.875 Z " fill="#000000"/><text fill="#000000" font-family="sans-serif" font-size="14" lengthAdjust="spacing" textLength="24.9102" x="1502.1187" y="312.7285">Ban</text><line style="stroke:#181818;stroke-width:0.5;" x1="1391" x2="1605.6475" y1="323" y2="323"/><text fill="#000000" font-family="sans-serif" font-size="14" lengthAdjust="spacing" textLength="83.2617" x="1396" y="341.5332">name : String</text><line style="stroke:#181818;stroke-width:0.5;" x1="1391" x2="1605.6475" y1="348.6094" y2="348.6094"/><text fill="#000000" font-family="sans-serif" font-size="14" lengthAdjust="spacing" textLength="95.71" x="1396" y="367.1426">execute() : void</text><text fill="#000000" font-family="sans-serif" font-size="14" lengthAdjust="spacing" textLength="204.6475" x="1396" y="384.752">getSlash() : SlashCommandData</text><text fill="#000000" font-family="sans-serif" font-size="14" lengthAdjust="spacing" textLength="101.9102" x="1396" y="402.3613">parseTime() : int</text><text fill="#000000" font-family="sans-serif" font-size="14" lengthAdjust="spacing" textLength="114.3721" x="1396" y="419.9707">getName() : String</text></g><!--class Kick--><g id="elem_Kick"><rect codeLine="47" fill="#F1F1F1" height="118.4375" id="Kick" rx="2.5" ry="2.5" style="stroke:#181818;stroke-width:0.5;" width="216.6475" x="1642" y="300"/><ellipse cx="1732.8496" cy="316" fill="#ADD1B2" rx="11" ry="11" style="stroke:#181818;stroke-width:1;"/><path d="M1735.6152,311.875 Q1735.7715,311.6563 1735.959,311.5469 Q1736.1465,311.4375 1736.3652,311.4375 Q1736.7402,311.4375 1736.9746,311.7031 Q1737.209,311.9531 1737.209,312.5625 L1737.209,314.0156 Q1737.209,314.625 1736.9746,314.8906 Q1736.7402,315.1563 1736.3652,315.1563 Q1736.0215,315.1563 1735.8184,314.9531 Q1735.6152,314.7656 1735.5059,314.25 Q1735.459,313.8906 1735.2715,313.7031 Q1734.9434,313.3281 1734.334,313.1094 Q1733.7246,312.8906 1733.0996,312.8906 Q1732.334,312.8906 1731.6934,313.2188 Q1731.0684,313.5469 1730.5684,314.2969 Q1730.084,315.0469 1730.084,316.0781 L1730.084,317.1719 Q1730.084,318.4063 1730.9746,319.2344 Q1731.8652,320.0469 1733.459,320.0469 Q1734.3965,320.0469 1735.0527,319.7969 Q1735.4434,319.6406 1735.8652,319.2031 Q1736.1309,318.9375 1736.2715,318.8594 Q1736.4277,318.7813 1736.6309,318.7813 Q1736.959,318.7813 1737.209,319.0469 Q1737.4746,319.2969 1737.4746,319.6406 Q1737.4746,319.9844 1737.1309,320.3906 Q1736.6309,320.9688 1735.834,321.2969 Q1734.7559,321.75 1733.459,321.75 Q1731.9434,321.75 1730.7402,321.125 Q1729.7559,320.625 1729.0684,319.5625 Q1728.3809,318.4844 1728.3809,317.2031 L1728.3809,316.0469 Q1728.3809,314.7188 1728.9902,313.5781 Q1729.6152,312.4219 1730.709,311.8125 Q1731.8027,311.1875 1733.0371,311.1875 Q1733.7715,311.1875 1734.4121,311.3594 Q1735.0684,311.5156 1735.6152,311.875 Z " fill="#000000"/><text fill="#000000" font-family="sans-serif" font-size="14" lengthAdjust="spacing" textLength="26.4482" x="1753.3496" y="321.7285">Kick</text><line style="stroke:#181818;stroke-width:0.5;" x1="1643" x2="1857.6475" y1="332" y2="332"/><text fill="#000000" font-family="sans-serif" font-size="14" lengthAdjust="spacing" textLength="83.2617" x="1648" y="350.5332">name : String</text><line style="stroke:#181818;stroke-width:0.5;" x1="1643" x2="1857.6475" y1="357.6094" y2="357.6094"/><text fill="#000000" font-family="sans-serif" font-size="14" lengthAdjust="spacing" textLength="95.71" x="1648" y="376.1426">execute() : void</text><text fill="#000000" font-family="sans-serif" font-size="14" lengthAdjust="spacing" textLength="204.6475" x="1648" y="393.752">getSlash() : SlashCommandData</text><text fill="#000000" font-family="sans-serif" font-size="14" lengthAdjust="spacing" textLength="114.3721" x="1648" y="411.3613">getName() : String</text></g><!--class Mute--><g id="elem_Mute"><rect codeLine="53" fill="#F1F1F1" height="136.0469" id="Mute" rx="2.5" ry="2.5" style="stroke:#181818;stroke-width:0.5;" width="216.6475" x="1894" y="291"/><ellipse cx="1982.5117" cy="307" fill="#ADD1B2" rx="11" ry="11" style="stroke:#181818;stroke-width:1;"/><path d="M1985.2773,302.875 Q1985.4336,302.6563 1985.6211,302.5469 Q1985.8086,302.4375 1986.0273,302.4375 Q1986.4023,302.4375 1986.6367,302.7031 Q1986.8711,302.9531 1986.8711,303.5625 L1986.8711,305.0156 Q1986.8711,305.625 1986.6367,305.8906 Q1986.4023,306.1563 1986.0273,306.1563 Q1985.6836,306.1563 1985.4805,305.9531 Q1985.2773,305.7656 1985.168,305.25 Q1985.1211,304.8906 1984.9336,304.7031 Q1984.6055,304.3281 1983.9961,304.1094 Q1983.3867,303.8906 1982.7617,303.8906 Q1981.9961,303.8906 1981.3555,304.2188 Q1980.7305,304.5469 1980.2305,305.2969 Q1979.7461,306.0469 1979.7461,307.0781 L1979.7461,308.1719 Q1979.7461,309.4063 1980.6367,310.2344 Q1981.5273,311.0469 1983.1211,311.0469 Q1984.0586,311.0469 1984.7148,310.7969 Q1985.1055,310.6406 1985.5273,310.2031 Q1985.793,309.9375 1985.9336,309.8594 Q1986.0898,309.7813 1986.293,309.7813 Q1986.6211,309.7813 1986.8711,310.0469 Q1987.1367,310.2969 1987.1367,310.6406 Q1987.1367,310.9844 1986.793,311.3906 Q1986.293,311.9688 1985.4961,312.2969 Q1984.418,312.75 1983.1211,312.75 Q1981.6055,312.75 1980.4023,312.125 Q1979.418,311.625 1978.7305,310.5625 Q1978.043,309.4844 1978.043,308.2031 L1978.043,307.0469 Q1978.043,305.7188 1978.6523,304.5781 Q1979.2773,303.4219 1980.3711,302.8125 Q1981.4648,302.1875 1982.6992,302.1875 Q1983.4336,302.1875 1984.0742,302.3594 Q1984.7305,302.5156 1985.2773,302.875 Z " fill="#000000"/><text fill="#000000" font-family="sans-serif" font-size="14" lengthAdjust="spacing" textLength="31.124" x="2003.0117" y="312.7285">Mute</text><line style="stroke:#181818;stroke-width:0.5;" x1="1895" x2="2109.6475" y1="323" y2="323"/><text fill="#000000" font-family="sans-serif" font-size="14" lengthAdjust="spacing" textLength="83.2617" x="1900" y="341.5332">name : String</text><line style="stroke:#181818;stroke-width:0.5;" x1="1895" x2="2109.6475" y1="348.6094" y2="348.6094"/><text fill="#000000" font-family="sans-serif" font-size="14" lengthAdjust="spacing" textLength="95.71" x="1900" y="367.1426">execute() : void</text><text fill="#000000" font-family="sans-serif" font-size="14" lengthAdjust="spacing" textLength="204.6475" x="1900" y="384.752">getSlash() : SlashCommandData</text><text fill="#000000" font-family="sans-serif" font-size="14" lengthAdjust="spacing" textLength="140.041" x="1900" y="402.3613">parseTime() : Duration</text><text fill="#000000" font-family="sans-serif" font-size="14" lengthAdjust="spacing" textLength="114.3721" x="1900" y="419.9707">getName() : String</text></g><!--class ModCommands--><g id="elem_ModCommands"><rect codeLine="60" fill="#F1F1F1" height="48" id="ModCommands" rx="2.5" ry="2.5" style="stroke:#181818;stroke-width:0.5;" width="130.8135" x="2474" y="683"/><ellipse cx="2489" cy="699" fill="#ADD1B2" rx="11" ry="11" style="stroke:#181818;stroke-width:1;"/><path d="M2491.7656,694.875 Q2491.9219,694.6563 2492.1094,694.5469 Q2492.2969,694.4375 2492.5156,694.4375 Q2492.8906,694.4375 2493.125,694.7031 Q2493.3594,694.9531 2493.3594,695.5625 L2493.3594,697.0156 Q2493.3594,697.625 2493.125,697.8906 Q2492.8906,698.1563 2492.5156,698.1563 Q2492.1719,698.1563 2491.9688,697.9531 Q2491.7656,697.7656 2491.6563,697.25 Q2491.6094,696.8906 2491.4219,696.7031 Q2491.0938,696.3281 2490.4844,696.1094 Q2489.875,695.8906 2489.25,695.8906 Q2488.4844,695.8906 2487.8438,696.2188 Q2487.2188,696.5469 2486.7188,697.2969 Q2486.2344,698.0469 2486.2344,699.0781 L2486.2344,700.1719 Q2486.2344,701.4063 2487.125,702.2344 Q2488.0156,703.0469 2489.6094,703.0469 Q2490.5469,703.0469 2491.2031,702.7969 Q2491.5938,702.6406 2492.0156,702.2031 Q2492.2813,701.9375 2492.4219,701.8594 Q2492.5781,701.7813 2492.7813,701.7813 Q2493.1094,701.7813 2493.3594,702.0469 Q2493.625,702.2969 2493.625,702.6406 Q2493.625,702.9844 2493.2813,703.3906 Q2492.7813,703.9688 2491.9844,704.2969 Q2490.9063,704.75 2489.6094,704.75 Q2488.0938,704.75 2486.8906,704.125 Q2485.9063,703.625 2485.2188,702.5625 Q2484.5313,701.4844 2484.5313,700.2031 L2484.5313,699.0469 Q2484.5313,697.7188 2485.1406,696.5781 Q2485.7656,695.4219 2486.8594,694.8125 Q2487.9531,694.1875 2489.1875,694.1875 Q2489.9219,694.1875 2490.5625,694.3594 Q2491.2188,694.5156 2491.7656,694.875 Z " fill="#000000"/><text fill="#000000" font-family="sans-serif" font-size="14" lengthAdjust="spacing" textLength="98.8135" x="2503" y="704.7285">ModCommands</text><line style="stroke:#181818;stroke-width:0.5;" x1="2475" x2="2603.8135" y1="715" y2="715"/><line style="stroke:#181818;stroke-width:0.5;" x1="2475" x2="2603.8135" y1="723" y2="723"/></g><!--class Avatar--><g id="elem_Avatar"><rect codeLine="62" fill="#F1F1F1" height="153.6563" id="Avatar" rx="2.5" ry="2.5" style="stroke:#181818;stroke-width:0.5;" width="253.2402" x="2146" y="282"/><ellipse cx="2248.1392" cy="298" fill="#ADD1B2" rx="11" ry="11" style="stroke:#181818;stroke-width:1;"/><path d="M2250.9048,293.875 Q2251.061,293.6563 2251.2485,293.5469 Q2251.436,293.4375 2251.6548,293.4375 Q2252.0298,293.4375 2252.2642,293.7031 Q2252.4985,293.9531 2252.4985,294.5625 L2252.4985,296.0156 Q2252.4985,296.625 2252.2642,296.8906 Q2252.0298,297.1563 2251.6548,297.1563 Q2251.311,297.1563 2251.1079,296.9531 Q2250.9048,296.7656 2250.7954,296.25 Q2250.7485,295.8906 2250.561,295.7031 Q2250.2329,295.3281 2249.6235,295.1094 Q2249.0142,294.8906 2248.3892,294.8906 Q2247.6235,294.8906 2246.9829,295.2188 Q2246.3579,295.5469 2245.8579,296.2969 Q2245.3735,297.0469 2245.3735,298.0781 L2245.3735,299.1719 Q2245.3735,300.4063 2246.2642,301.2344 Q2247.1548,302.0469 2248.7485,302.0469 Q2249.686,302.0469 2250.3423,301.7969 Q2250.7329,301.6406 2251.1548,301.2031 Q2251.4204,300.9375 2251.561,300.8594 Q2251.7173,300.7813 2251.9204,300.7813 Q2252.2485,300.7813 2252.4985,301.0469 Q2252.7642,301.2969 2252.7642,301.6406 Q2252.7642,301.9844 2252.4204,302.3906 Q2251.9204,302.9688 2251.1235,303.2969 Q2250.0454,303.75 2248.7485,303.75 Q2247.2329,303.75 2246.0298,303.125 Q2245.0454,302.625 2244.3579,301.5625 Q2243.6704,300.4844 2243.6704,299.2031 L2243.6704,298.0469 Q2243.6704,296.7188 2244.2798,295.5781 Q2244.9048,294.4219 2245.9985,293.8125 Q2247.0923,293.1875 2248.3267,293.1875 Q2249.061,293.1875 2249.7017,293.3594 Q2250.3579,293.5156 2250.9048,293.875 Z " fill="#000000"/><text fill="#000000" font-family="sans-serif" font-size="14" lengthAdjust="spacing" textLength="40.4619" x="2268.6392" y="303.7285">Avatar</text><line style="stroke:#181818;stroke-width:0.5;" x1="2147" x2="2398.2402" y1="314" y2="314"/><text fill="#000000" font-family="sans-serif" font-size="14" lengthAdjust="spacing" textLength="83.2617" x="2152" y="332.5332">name : String</text><line style="stroke:#181818;stroke-width:0.5;" x1="2147" x2="2398.2402" y1="339.6094" y2="339.6094"/><text fill="#000000" font-family="sans-serif" font-size="14" lengthAdjust="spacing" textLength="95.71" x="2152" y="358.1426">execute() : void</text><text fill="#000000" font-family="sans-serif" font-size="14" lengthAdjust="spacing" textLength="236.5576" x="2152" y="375.752">buildAvatarEmbed() : MessageEmbed</text><text fill="#000000" font-family="sans-serif" font-size="14" lengthAdjust="spacing" textLength="241.2402" x="2152" y="393.3613">buildBannerEmbed() : MessageEmbed</text><text fill="#000000" font-family="sans-serif" font-size="14" lengthAdjust="spacing" textLength="204.6475" x="2152" y="410.9707">getSlash() : SlashCommandData</text><text fill="#000000" font-family="sans-serif" font-size="14" lengthAdjust="spacing" textLength="114.3721" x="2152" y="428.5801">getName() : String</text></g><!--class UserCommands--><g id="elem_UserCommands"><rect codeLine="70" fill="#F1F1F1" height="48" id="UserCommands" rx="2.5" ry="2.5" style="stroke:#181818;stroke-width:0.5;" width="133.1377" x="2640" y="683"/><ellipse cx="2655" cy="699" fill="#ADD1B2" rx="11" ry="11" style="stroke:#181818;stroke-width:1;"/><path d="M2657.7656,694.875 Q2657.9219,694.6563 2658.1094,694.5469 Q2658.2969,694.4375 2658.5156,694.4375 Q2658.8906,694.4375 2659.125,694.7031 Q2659.3594,694.9531 2659.3594,695.5625 L2659.3594,697.0156 Q2659.3594,697.625 2659.125,697.8906 Q2658.8906,698.1563 2658.5156,698.1563 Q2658.1719,698.1563 2657.9688,697.9531 Q2657.7656,697.7656 2657.6563,697.25 Q2657.6094,696.8906 2657.4219,696.7031 Q2657.0938,696.3281 2656.4844,696.1094 Q2655.875,695.8906 2655.25,695.8906 Q2654.4844,695.8906 2653.8438,696.2188 Q2653.2188,696.5469 2652.7188,697.2969 Q2652.2344,698.0469 2652.2344,699.0781 L2652.2344,700.1719 Q2652.2344,701.4063 2653.125,702.2344 Q2654.0156,703.0469 2655.6094,703.0469 Q2656.5469,703.0469 2657.2031,702.7969 Q2657.5938,702.6406 2658.0156,702.2031 Q2658.2813,701.9375 2658.4219,701.8594 Q2658.5781,701.7813 2658.7813,701.7813 Q2659.1094,701.7813 2659.3594,702.0469 Q2659.625,702.2969 2659.625,702.6406 Q2659.625,702.9844 2659.2813,703.3906 Q2658.7813,703.9688 2657.9844,704.2969 Q2656.9063,704.75 2655.6094,704.75 Q2654.0938,704.75 2652.8906,704.125 Q2651.9063,703.625 2651.2188,702.5625 Q2650.5313,701.4844 2650.5313,700.2031 L2650.5313,699.0469 Q2650.5313,697.7188 2651.1406,696.5781 Q2651.7656,695.4219 2652.8594,694.8125 Q2653.9531,694.1875 2655.1875,694.1875 Q2655.9219,694.1875 2656.5625,694.3594 Q2657.2188,694.5156 2657.7656,694.875 Z " fill="#000000"/><text fill="#000000" font-family="sans-serif" font-size="14" lengthAdjust="spacing" textLength="101.1377" x="2669" y="704.7285">UserCommands</text><line style="stroke:#181818;stroke-width:0.5;" x1="2641" x2="2772.1377" y1="715" y2="715"/><line style="stroke:#181818;stroke-width:0.5;" x1="2641" x2="2772.1377" y1="723" y2="723"/></g><!--class DatabaseManager--><g id="elem_DatabaseManager"><rect codeLine="72" fill="#F1F1F1" height="188.875" id="DatabaseManager" rx="2.5" ry="2.5" style="stroke:#181818;stroke-width:0.5;" width="170.7441" x="321" y="7"/><ellipse cx="346.6014" cy="23" fill="#ADD1B2" rx="11" ry="11" style="stroke:#181818;stroke-width:1;"/><path d="M349.367,18.875 Q349.5232,18.6563 349.7107,18.5469 Q349.8982,18.4375 350.117,18.4375 Q350.492,18.4375 350.7264,18.7031 Q350.9607,18.9531 350.9607,19.5625 L350.9607,21.0156 Q350.9607,21.625 350.7264,21.8906 Q350.492,22.1563 350.117,22.1563 Q349.7732,22.1563 349.5701,21.9531 Q349.367,21.7656 349.2576,21.25 Q349.2107,20.8906 349.0232,20.7031 Q348.6951,20.3281 348.0857,20.1094 Q347.4764,19.8906 346.8514,19.8906 Q346.0857,19.8906 345.4451,20.2188 Q344.8201,20.5469 344.3201,21.2969 Q343.8357,22.0469 343.8357,23.0781 L343.8357,24.1719 Q343.8357,25.4063 344.7264,26.2344 Q345.617,27.0469 347.2107,27.0469 Q348.1482,27.0469 348.8045,26.7969 Q349.1951,26.6406 349.617,26.2031 Q349.8826,25.9375 350.0232,25.8594 Q350.1795,25.7813 350.3826,25.7813 Q350.7107,25.7813 350.9607,26.0469 Q351.2264,26.2969 351.2264,26.6406 Q351.2264,26.9844 350.8826,27.3906 Q350.3826,27.9688 349.5857,28.2969 Q348.5076,28.75 347.2107,28.75 Q345.6951,28.75 344.492,28.125 Q343.5076,27.625 342.8201,26.5625 Q342.1326,25.4844 342.1326,24.2031 L342.1326,23.0469 Q342.1326,21.7188 342.742,20.5781 Q343.367,19.4219 344.4607,18.8125 Q345.5545,18.1875 346.7889,18.1875 Q347.5232,18.1875 348.1639,18.3594 Q348.8201,18.5156 349.367,18.875 Z " fill="#000000"/><text fill="#000000" font-family="sans-serif" font-size="14" lengthAdjust="spacing" textLength="115.1855" x="362.9572" y="28.7285">DatabaseManager</text><line style="stroke:#181818;stroke-width:0.5;" x1="322" x2="490.7441" y1="39" y2="39"/><text fill="#000000" font-family="sans-serif" font-size="14" lengthAdjust="spacing" textLength="63.7998" x="327" y="57.5332">url : String</text><text fill="#000000" font-family="sans-serif" font-size="14" lengthAdjust="spacing" textLength="75.4756" x="327" y="75.1426">user : String</text><text fill="#000000" font-family="sans-serif" font-size="14" lengthAdjust="spacing" textLength="108.1582" x="327" y="92.752">password : String</text><text fill="#000000" font-family="sans-serif" font-size="14" lengthAdjust="spacing" textLength="150.2129" x="327" y="110.3613">connection : Connection</text><line style="stroke:#181818;stroke-width:0.5;" x1="322" x2="490.7441" y1="117.4375" y2="117.4375"/><text fill="#000000" font-family="sans-serif" font-size="14" lengthAdjust="spacing" textLength="95.71" x="327" y="135.9707">connect() : void</text><text fill="#000000" font-family="sans-serif" font-size="14" lengthAdjust="spacing" textLength="116.7305" x="327" y="153.5801">addPenalty() : void</text><text fill="#000000" font-family="sans-serif" font-size="14" lengthAdjust="spacing" textLength="158.7441" x="327" y="171.1895">getPenalties() : ResultSet</text><text fill="#000000" font-family="sans-serif" font-size="14" lengthAdjust="spacing" textLength="79.3584" x="327" y="188.7988">close() : void</text></g><!--class EventListener--><g id="elem_EventListener"><rect codeLine="82" fill="#F1F1F1" height="136.0469" id="EventListener" rx="2.5" ry="2.5" style="stroke:#181818;stroke-width:0.5;" width="211.2197" x="2434" y="291"/><ellipse cx="2492.5566" cy="307" fill="#ADD1B2" rx="11" ry="11" style="stroke:#181818;stroke-width:1;"/><path d="M2495.3223,302.875 Q2495.4785,302.6563 2495.666,302.5469 Q2495.8535,302.4375 2496.0723,302.4375 Q2496.4473,302.4375 2496.6816,302.7031 Q2496.916,302.9531 2496.916,303.5625 L2496.916,305.0156 Q2496.916,305.625 2496.6816,305.8906 Q2496.4473,306.1563 2496.0723,306.1563 Q2495.7285,306.1563 2495.5254,305.9531 Q2495.3223,305.7656 2495.2129,305.25 Q2495.166,304.8906 2494.9785,304.7031 Q2494.6504,304.3281 2494.041,304.1094 Q2493.4316,303.8906 2492.8066,303.8906 Q2492.041,303.8906 2491.4004,304.2188 Q2490.7754,304.5469 2490.2754,305.2969 Q2489.791,306.0469 2489.791,307.0781 L2489.791,308.1719 Q2489.791,309.4063 2490.6816,310.2344 Q2491.5723,311.0469 2493.166,311.0469 Q2494.1035,311.0469 2494.7598,310.7969 Q2495.1504,310.6406 2495.5723,310.2031 Q2495.8379,309.9375 2495.9785,309.8594 Q2496.1348,309.7813 2496.3379,309.7813 Q2496.666,309.7813 2496.916,310.0469 Q2497.1816,310.2969 2497.1816,310.6406 Q2497.1816,310.9844 2496.8379,311.3906 Q2496.3379,311.9688 2495.541,312.2969 Q2494.4629,312.75 2493.166,312.75 Q2491.6504,312.75 2490.4473,312.125 Q2489.4629,311.625 2488.7754,310.5625 Q2488.0879,309.4844 2488.0879,308.2031 L2488.0879,307.0469 Q2488.0879,305.7188 2488.6973,304.5781 Q2489.3223,303.4219 2490.416,302.8125 Q2491.5098,302.1875 2492.7441,302.1875 Q2493.4785,302.1875 2494.1191,302.3594 Q2494.7754,302.5156 2495.3223,302.875 Z " fill="#000000"/><text fill="#000000" font-family="sans-serif" font-size="14" lengthAdjust="spacing" textLength="85.6064" x="2513.0566" y="312.7285">EventListener</text><line style="stroke:#181818;stroke-width:0.5;" x1="2435" x2="2644.2197" y1="323" y2="323"/><text fill="#000000" font-family="sans-serif" font-size="14" lengthAdjust="spacing" textLength="187.5645" x="2440" y="341.5332">isCommandEnabled : boolean</text><line style="stroke:#181818;stroke-width:0.5;" x1="2435" x2="2644.2197" y1="348.6094" y2="348.6094"/><text fill="#000000" font-family="sans-serif" font-size="14" lengthAdjust="spacing" textLength="177.4199" x="2440" y="367.1426">onMessageReceived() : void</text><text fill="#000000" font-family="sans-serif" font-size="14" lengthAdjust="spacing" textLength="199.2197" x="2440" y="384.752">onMessageReactionAdd() : void</text><text fill="#000000" font-family="sans-serif" font-size="14" lengthAdjust="spacing" textLength="181.3096" x="2440" y="402.3613">setCommandEnabled() : void</text><text fill="#000000" font-family="sans-serif" font-size="14" lengthAdjust="spacing" textLength="196.8887" x="2440" y="419.9707">isCommandEnabled() : boolean</text></g><!--class GuiManager--><g id="elem_GuiManager"><rect codeLine="89" fill="#F1F1F1" height="83.2188" id="GuiManager" rx="2.5" ry="2.5" style="stroke:#181818;stroke-width:0.5;" width="130.2617" x="527.5" y="60"/><ellipse cx="552.0493" cy="76" fill="#ADD1B2" rx="11" ry="11" style="stroke:#181818;stroke-width:1;"/><path d="M554.8149,71.875 Q554.9712,71.6563 555.1587,71.5469 Q555.3462,71.4375 555.5649,71.4375 Q555.9399,71.4375 556.1743,71.7031 Q556.4087,71.9531 556.4087,72.5625 L556.4087,74.0156 Q556.4087,74.625 556.1743,74.8906 Q555.9399,75.1563 555.5649,75.1563 Q555.2212,75.1563 555.0181,74.9531 Q554.8149,74.7656 554.7056,74.25 Q554.6587,73.8906 554.4712,73.7031 Q554.1431,73.3281 553.5337,73.1094 Q552.9243,72.8906 552.2993,72.8906 Q551.5337,72.8906 550.8931,73.2188 Q550.2681,73.5469 549.7681,74.2969 Q549.2837,75.0469 549.2837,76.0781 L549.2837,77.1719 Q549.2837,78.4063 550.1743,79.2344 Q551.0649,80.0469 552.6587,80.0469 Q553.5962,80.0469 554.2524,79.7969 Q554.6431,79.6406 555.0649,79.2031 Q555.3306,78.9375 555.4712,78.8594 Q555.6274,78.7813 555.8306,78.7813 Q556.1587,78.7813 556.4087,79.0469 Q556.6743,79.2969 556.6743,79.6406 Q556.6743,79.9844 556.3306,80.3906 Q555.8306,80.9688 555.0337,81.2969 Q553.9556,81.75 552.6587,81.75 Q551.1431,81.75 549.9399,81.125 Q548.9556,80.625 548.2681,79.5625 Q547.5806,78.4844 547.5806,77.2031 L547.5806,76.0469 Q547.5806,74.7188 548.1899,73.5781 Q548.8149,72.4219 549.9087,71.8125 Q551.0024,71.1875 552.2368,71.1875 Q552.9712,71.1875 553.6118,71.3594 Q554.2681,71.5156 554.8149,71.875 Z " fill="#000000"/><text fill="#000000" font-family="sans-serif" font-size="14" lengthAdjust="spacing" textLength="77.041" x="568.1714" y="81.7285">GuiManager</text><line style="stroke:#181818;stroke-width:0.5;" x1="528.5" x2="656.7617" y1="92" y2="92"/><line style="stroke:#181818;stroke-width:0.5;" x1="528.5" x2="656.7617" y1="100" y2="100"/><text fill="#000000" font-family="sans-serif" font-size="14" lengthAdjust="spacing" textLength="118.2617" x="533.5" y="118.5332">initializeGui() : void</text><text fill="#000000" font-family="sans-serif" font-size="14" lengthAdjust="spacing" textLength="111.2822" x="533.5" y="136.1426">updateGui() : void</text></g><!--class Main--><g id="elem_Main"><rect codeLine="93" fill="#F1F1F1" height="65.6094" id="Main" rx="2.5" ry="2.5" style="stroke:#181818;stroke-width:0.5;" width="89.0205" x="693" y="68.5"/><ellipse cx="720.0041" cy="84.5" fill="#ADD1B2" rx="11" ry="11" style="stroke:#181818;stroke-width:1;"/><path d="M722.7697,80.375 Q722.926,80.1563 723.1135,80.0469 Q723.301,79.9375 723.5197,79.9375 Q723.8947,79.9375 724.1291,80.2031 Q724.3635,80.4531 724.3635,81.0625 L724.3635,82.5156 Q724.3635,83.125 724.1291,83.3906 Q723.8947,83.6563 723.5197,83.6563 Q723.176,83.6563 722.9729,83.4531 Q722.7697,83.2656 722.6604,82.75 Q722.6135,82.3906 722.426,82.2031 Q722.0979,81.8281 721.4885,81.6094 Q720.8791,81.3906 720.2541,81.3906 Q719.4885,81.3906 718.8479,81.7188 Q718.2229,82.0469 717.7229,82.7969 Q717.2385,83.5469 717.2385,84.5781 L717.2385,85.6719 Q717.2385,86.9063 718.1291,87.7344 Q719.0197,88.5469 720.6135,88.5469 Q721.551,88.5469 722.2072,88.2969 Q722.5979,88.1406 723.0197,87.7031 Q723.2854,87.4375 723.426,87.3594 Q723.5822,87.2813 723.7854,87.2813 Q724.1135,87.2813 724.3635,87.5469 Q724.6291,87.7969 724.6291,88.1406 Q724.6291,88.4844 724.2854,88.8906 Q723.7854,89.4688 722.9885,89.7969 Q721.9104,90.25 720.6135,90.25 Q719.0979,90.25 717.8947,89.625 Q716.9104,89.125 716.2229,88.0625 Q715.5354,86.9844 715.5354,85.7031 L715.5354,84.5469 Q715.5354,83.2188 716.1447,82.0781 Q716.7697,80.9219 717.8635,80.3125 Q718.9572,79.6875 720.1916,79.6875 Q720.926,79.6875 721.5666,79.8594 Q722.2229,80.0156 722.7697,80.375 Z " fill="#000000"/><text fill="#000000" font-family="sans-serif" font-size="14" lengthAdjust="spacing" textLength="30.3447" x="736.6717" y="90.2285">Main</text><line style="stroke:#181818;stroke-width:0.5;" x1="694" x2="781.0205" y1="100.5" y2="100.5"/><line style="stroke:#181818;stroke-width:0.5;" x1="694" x2="781.0205" y1="108.5" y2="108.5"/><text fill="#000000" font-family="sans-serif" font-size="14" lengthAdjust="spacing" textLength="77.0205" x="699" y="127.0332">main() : void</text></g><!--class UMLGenerator--><g id="elem_UMLGenerator"><rect codeLine="96" fill="#F1F1F1" height="206.4844" id="UMLGenerator" rx="2.5" ry="2.5" style="stroke:#181818;stroke-width:0.5;" width="246.9854" x="23" y="256"/><ellipse cx="95.9463" cy="272" fill="#ADD1B2" rx="11" ry="11" style="stroke:#181818;stroke-width:1;"/><path d="M98.7119,267.875 Q98.8682,267.6563 99.0557,267.5469 Q99.2432,267.4375 99.4619,267.4375 Q99.8369,267.4375 100.0713,267.7031 Q100.3057,267.9531 100.3057,268.5625 L100.3057,270.0156 Q100.3057,270.625 100.0713,270.8906 Q99.8369,271.1563 99.4619,271.1563 Q99.1182,271.1563 98.915,270.9531 Q98.7119,270.7656 98.6025,270.25 Q98.5557,269.8906 98.3682,269.7031 Q98.04,269.3281 97.4307,269.1094 Q96.8213,268.8906 96.1963,268.8906 Q95.4307,268.8906 94.79,269.2188 Q94.165,269.5469 93.665,270.2969 Q93.1807,271.0469 93.1807,272.0781 L93.1807,273.1719 Q93.1807,274.4063 94.0713,275.2344 Q94.9619,276.0469 96.5557,276.0469 Q97.4932,276.0469 98.1494,275.7969 Q98.54,275.6406 98.9619,275.2031 Q99.2275,274.9375 99.3682,274.8594 Q99.5244,274.7813 99.7275,274.7813 Q100.0557,274.7813 100.3057,275.0469 Q100.5713,275.2969 100.5713,275.6406 Q100.5713,275.9844 100.2275,276.3906 Q99.7275,276.9688 98.9307,277.2969 Q97.8525,277.75 96.5557,277.75 Q95.04,277.75 93.8369,277.125 Q92.8525,276.625 92.165,275.5625 Q91.4775,274.4844 91.4775,273.2031 L91.4775,272.0469 Q91.4775,270.7188 92.0869,269.5781 Q92.7119,268.4219 93.8057,267.8125 Q94.8994,267.1875 96.1338,267.1875 Q96.8682,267.1875 97.5088,267.3594 Q98.165,267.5156 98.7119,267.875 Z " fill="#000000"/><text fill="#000000" font-family="sans-serif" font-size="14" lengthAdjust="spacing" textLength="92.5928" x="116.4463" y="277.7285">UMLGenerator</text><line style="stroke:#181818;stroke-width:0.5;" x1="24" x2="268.9854" y1="288" y2="288"/><text fill="#000000" font-family="sans-serif" font-size="14" lengthAdjust="spacing" textLength="133.0615" x="29" y="306.5332">classes : List&lt;String&gt;</text><text fill="#000000" font-family="sans-serif" font-size="14" lengthAdjust="spacing" textLength="164.9785" x="29" y="324.1426">relationships : List&lt;String&gt;</text><text fill="#000000" font-family="sans-serif" font-size="14" lengthAdjust="spacing" textLength="200.7646" x="29" y="341.752">javaNativeClasses : Set&lt;String&gt;</text><line style="stroke:#181818;stroke-width:0.5;" x1="24" x2="268.9854" y1="348.8281" y2="348.8281"/><text fill="#000000" font-family="sans-serif" font-size="14" lengthAdjust="spacing" textLength="77.0205" x="29" y="367.3613">main() : void</text><text fill="#000000" font-family="sans-serif" font-size="14" lengthAdjust="spacing" textLength="151.7031" x="29" y="384.9707">processDirectory() : void</text><text fill="#000000" font-family="sans-serif" font-size="14" lengthAdjust="spacing" textLength="118.2549" x="29" y="402.5801">processFile() : void</text><text fill="#000000" font-family="sans-serif" font-size="14" lengthAdjust="spacing" textLength="183.6201" x="29" y="420.1895">isClassInDirectory() : boolean</text><text fill="#000000" font-family="sans-serif" font-size="14" lengthAdjust="spacing" textLength="163.4131" x="29" y="437.7988">generatePlantUML() : void</text><text fill="#000000" font-family="sans-serif" font-size="14" lengthAdjust="spacing" textLength="234.9854" x="29" y="455.4082">generateImageFromPlantUML() : void</text></g><!--class Utils--><g id="elem_Utils"><rect codeLine="107" fill="#F1F1F1" height="100.8281" id="Utils" rx="2.5" ry="2.5" style="stroke:#181818;stroke-width:0.5;" width="212.7441" x="305" y="308.5"/><ellipse cx="393.5117" cy="324.5" fill="#ADD1B2" rx="11" ry="11" style="stroke:#181818;stroke-width:1;"/><path d="M396.2773,320.375 Q396.4336,320.1563 396.6211,320.0469 Q396.8086,319.9375 397.0273,319.9375 Q397.4023,319.9375 397.6367,320.2031 Q397.8711,320.4531 397.8711,321.0625 L397.8711,322.5156 Q397.8711,323.125 397.6367,323.3906 Q397.4023,323.6563 397.0273,323.6563 Q396.6836,323.6563 396.4805,323.4531 Q396.2773,323.2656 396.168,322.75 Q396.1211,322.3906 395.9336,322.2031 Q395.6055,321.8281 394.9961,321.6094 Q394.3867,321.3906 393.7617,321.3906 Q392.9961,321.3906 392.3555,321.7188 Q391.7305,322.0469 391.2305,322.7969 Q390.7461,323.5469 390.7461,324.5781 L390.7461,325.6719 Q390.7461,326.9063 391.6367,327.7344 Q392.5273,328.5469 394.1211,328.5469 Q395.0586,328.5469 395.7148,328.2969 Q396.1055,328.1406 396.5273,327.7031 Q396.793,327.4375 396.9336,327.3594 Q397.0898,327.2813 397.293,327.2813 Q397.6211,327.2813 397.8711,327.5469 Q398.1367,327.7969 398.1367,328.1406 Q398.1367,328.4844 397.793,328.8906 Q397.293,329.4688 396.4961,329.7969 Q395.418,330.25 394.1211,330.25 Q392.6055,330.25 391.4023,329.625 Q390.418,329.125 389.7305,328.0625 Q389.043,326.9844 389.043,325.7031 L389.043,324.5469 Q389.043,323.2188 389.6523,322.0781 Q390.2773,320.9219 391.3711,320.3125 Q392.4648,319.6875 393.6992,319.6875 Q394.4336,319.6875 395.0742,319.8594 Q395.7305,320.0156 396.2773,320.375 Z " fill="#000000"/><text fill="#000000" font-family="sans-serif" font-size="14" lengthAdjust="spacing" textLength="27.2207" x="414.0117" y="330.2285">Utils</text><line style="stroke:#181818;stroke-width:0.5;" x1="306" x2="516.7441" y1="340.5" y2="340.5"/><line style="stroke:#181818;stroke-width:0.5;" x1="306" x2="516.7441" y1="348.5" y2="348.5"/><text fill="#000000" font-family="sans-serif" font-size="14" lengthAdjust="spacing" textLength="153.2959" x="311" y="367.0332">isValidUserId() : boolean</text><text fill="#000000" font-family="sans-serif" font-size="14" lengthAdjust="spacing" textLength="200.7441" x="311" y="384.6426">formatPenaltyMessage() : String</text><text fill="#000000" font-family="sans-serif" font-size="14" lengthAdjust="spacing" textLength="150.1582" x="311" y="402.252">formatDuration() : String</text></g><!--class ListenerAdapter--><g id="elem_ListenerAdapter"><rect fill="#F1F1F1" height="48" id="ListenerAdapter" rx="2.5" ry="2.5" style="stroke:#181818;stroke-width:0.5;" width="130.8408" x="2474" y="77.5"/><ellipse cx="2489" cy="93.5" fill="#ADD1B2" rx="11" ry="11" style="stroke:#181818;stroke-width:1;"/><path d="M2491.7656,89.375 Q2491.9219,89.1563 2492.1094,89.0469 Q2492.2969,88.9375 2492.5156,88.9375 Q2492.8906,88.9375 2493.125,89.2031 Q2493.3594,89.4531 2493.3594,90.0625 L2493.3594,91.5156 Q2493.3594,92.125 2493.125,92.3906 Q2492.8906,92.6563 2492.5156,92.6563 Q2492.1719,92.6563 2491.9688,92.4531 Q2491.7656,92.2656 2491.6563,91.75 Q2491.6094,91.3906 2491.4219,91.2031 Q2491.0938,90.8281 2490.4844,90.6094 Q2489.875,90.3906 2489.25,90.3906 Q2488.4844,90.3906 2487.8438,90.7188 Q2487.2188,91.0469 2486.7188,91.7969 Q2486.2344,92.5469 2486.2344,93.5781 L2486.2344,94.6719 Q2486.2344,95.9063 2487.125,96.7344 Q2488.0156,97.5469 2489.6094,97.5469 Q2490.5469,97.5469 2491.2031,97.2969 Q2491.5938,97.1406 2492.0156,96.7031 Q2492.2813,96.4375 2492.4219,96.3594 Q2492.5781,96.2813 2492.7813,96.2813 Q2493.1094,96.2813 2493.3594,96.5469 Q2493.625,96.7969 2493.625,97.1406 Q2493.625,97.4844 2493.2813,97.8906 Q2492.7813,98.4688 2491.9844,98.7969 Q2490.9063,99.25 2489.6094,99.25 Q2488.0938,99.25 2486.8906,98.625 Q2485.9063,98.125 2485.2188,97.0625 Q2484.5313,95.9844 2484.5313,94.7031 L2484.5313,93.5469 Q2484.5313,92.2188 2485.1406,91.0781 Q2485.7656,89.9219 2486.8594,89.3125 Q2487.9531,88.6875 2489.1875,88.6875 Q2489.9219,88.6875 2490.5625,88.8594 Q2491.2188,89.0156 2491.7656,89.375 Z " fill="#000000"/><text fill="#000000" font-family="sans-serif" font-size="14" lengthAdjust="spacing" textLength="98.8408" x="2503" y="99.2285">ListenerAdapter</text><line style="stroke:#181818;stroke-width:0.5;" x1="2475" x2="2603.8408" y1="109.5" y2="109.5"/><line style="stroke:#181818;stroke-width:0.5;" x1="2475" x2="2603.8408" y1="117.5" y2="117.5"/></g><!--reverse link EventListener to CommandManager--><g id="link_EventListener_CommandManager"><path codeLine="112" d="M2539.5,445.21 C2539.5,475.93 2539.5,493.68 2539.5,521.91 " fill="transparent" id="EventListener-backto-CommandManager" style="stroke:#181818;stroke-width:1;"/><polygon fill="transparent" points="2539.5,427.21,2533.5,445.21,2545.5,445.21,2539.5,427.21" style="stroke:#181818;stroke-width:1;"/></g><!--reverse link CommandManager to ManageCommands--><g id="link_CommandManager_ManageCommands"><path codeLine="113" d="M2458.5285,633.7744 C2431.0685,654.2044 2415.01,666.17 2392.86,682.65 " fill="transparent" id="CommandManager-backto-ManageCommands" style="stroke:#181818;stroke-width:1;"/><polygon fill="transparent" points="2472.97,623.03,2454.947,628.9605,2462.1099,638.5882,2472.97,623.03" style="stroke:#181818;stroke-width:1;"/></g><!--reverse link ICommand to CreateRole--><g id="link_ICommand_CreateRole"><path codeLine="114" d="M1497.9926,126.7557 C1392.6126,149.4257 1248.14,188.23 1120.5,256 C1098.13,267.88 1075.91,284.01 1056.51,299.94 " fill="transparent" id="ICommand-backto-CreateRole" style="stroke:#181818;stroke-width:1;stroke-dasharray:7.0,7.0;"/><polygon fill="transparent" points="1515.59,122.97,1496.7307,120.8899,1499.2545,132.6215,1515.59,122.97" style="stroke:#181818;stroke-width:1;"/></g><!--reverse link ICommand to DeleteRole--><g id="link_ICommand_DeleteRole"><path codeLine="115" d="M1506.7815,169.7141 C1460.1715,197.2441 1420.34,222.29 1372.5,256 C1353.29,269.54 1333.21,285.09 1314.86,299.91 " fill="transparent" id="ICommand-backto-DeleteRole" style="stroke:#181818;stroke-width:1;stroke-dasharray:7.0,7.0;"/><polygon fill="transparent" points="1522.28,160.56,1503.7302,164.5479,1509.8329,174.8803,1522.28,160.56" style="stroke:#181818;stroke-width:1;"/></g><!--reverse link ICommand to Ban--><g id="link_ICommand_Ban"><path codeLine="116" d="M1587.7886,176.9436 C1568.6886,215.6736 1551.51,250.51 1531.58,290.93 " fill="transparent" id="ICommand-backto-Ban" style="stroke:#181818;stroke-width:1;stroke-dasharray:7.0,7.0;"/><polygon fill="transparent" points="1595.75,160.8,1582.4074,174.2898,1593.1699,179.5974,1595.75,160.8" style="stroke:#181818;stroke-width:1;"/></g><!--reverse link ICommand to Kick--><g id="link_ICommand_Kick"><path codeLine="117" d="M1661.2099,176.9444 C1681.7599,218.6244 1701.35,258.33 1721.87,299.95 " fill="transparent" id="ICommand-backto-Kick" style="stroke:#181818;stroke-width:1;stroke-dasharray:7.0,7.0;"/><polygon fill="transparent" points="1653.25,160.8,1655.8284,179.5977,1666.5913,174.2911,1653.25,160.8" style="stroke:#181818;stroke-width:1;"/></g><!--reverse link ICommand to Mute--><g id="link_ICommand_Mute"><path codeLine="118" d="M1742.2185,169.7141 C1788.8285,197.2441 1828.66,222.29 1876.5,256 C1891.8,266.78 1907.65,278.84 1922.74,290.79 " fill="transparent" id="ICommand-backto-Mute" style="stroke:#181818;stroke-width:1;stroke-dasharray:7.0,7.0;"/><polygon fill="transparent" points="1726.72,160.56,1739.1671,174.8803,1745.2698,164.5479,1726.72,160.56" style="stroke:#181818;stroke-width:1;"/></g><!--reverse link CommandManager to ModCommands--><g id="link_CommandManager_ModCommands"><path codeLine="119" d="M2539.5,641.22 C2539.5,661.63 2539.5,666.28 2539.5,682.72 " fill="transparent" id="CommandManager-backto-ModCommands" style="stroke:#181818;stroke-width:1;"/><polygon fill="transparent" points="2539.5,623.22,2533.5,641.22,2545.5,641.22,2539.5,623.22" style="stroke:#181818;stroke-width:1;"/></g><!--reverse link ICommand to Avatar--><g id="link_ICommand_Avatar"><path codeLine="120" d="M1751.0225,129.0425 C1855.7325,153.1125 1999.16,192.56 2128.5,256 C2143.63,263.42 2158.9,272.36 2173.56,281.82 " fill="transparent" id="ICommand-backto-Avatar" style="stroke:#181818;stroke-width:1;stroke-dasharray:7.0,7.0;"/><polygon fill="transparent" points="1733.48,125.01,1749.6783,134.89,1752.3667,123.195,1733.48,125.01" style="stroke:#181818;stroke-width:1;"/></g><!--reverse link CommandManager to UserCommands--><g id="link_CommandManager_UserCommands"><path codeLine="121" d="M2616.262,634.4063 C2641.992,654.8163 2656.44,666.28 2677.16,682.72 " fill="transparent" id="CommandManager-backto-UserCommands" style="stroke:#181818;stroke-width:1;"/><polygon fill="transparent" points="2602.16,623.22,2612.5333,639.1069,2619.9908,629.7056,2602.16,623.22" style="stroke:#181818;stroke-width:1;"/></g><!--reverse link ListenerAdapter to EventListener--><g id="link_ListenerAdapter_EventListener"><path codeLine="122" d="M2539.5,143.62 C2539.5,180.6 2539.5,236.41 2539.5,290.97 " fill="transparent" id="ListenerAdapter-backto-EventListener" style="stroke:#181818;stroke-width:1;"/><polygon fill="transparent" points="2539.5,125.62,2533.5,143.62,2545.5,143.62,2539.5,125.62" style="stroke:#181818;stroke-width:1;"/></g><!--link Main to Bot--><g id="link_Main_Bot"><path codeLine="123" d="M737.5,134.6 C737.5,175.88 737.5,242.34 737.5,293.53 " fill="transparent" id="Main-to-Bot" style="stroke:#181818;stroke-width:1;"/><polygon fill="#181818" points="737.5,299.53,741.5,290.53,737.5,294.53,733.5,290.53,737.5,299.53" style="stroke:#181818;stroke-width:1;"/></g><!--SRC=[lLRRJXin47tVhzZ7Lchw0LM45190QGb2KFe-MG_1r6j7jZSj1VwzuyjUxDtUr9OyhMVEs7Czaqg0CUMnikLZKT9FgDqETVckFFSVNdRFW0JlLmj_gXLh16v0GW1kXcUFC1QqVVMQT0V5MV5SS6bHtqA5vNgfwXeaYwz9g95WrrPpkVCI_8fLOx6tTi8TscloyyvB_LUyPWKMMiG5tHK0uRRdelAn9Vx5TqCCndaF-tamU7DoG6dFkR4eKHzvdCQTE-jmH-eKIjZIlHCQnisFLDm4wOatPbwvLKeWo3QE031UDV2kpDnhmukPIEEhWj05w2pcRTgFnkdq-Zod0QVaKBvsHOJASYM7jOr9ziylssSVU_SqWiKhYl05Ixv2WI_-w378V_tQ7hJ1Zpo-HrFqAny-yEhpIuuMNVT_Orur6bp7_SQGJpJVua2twZ_pSDjmmOBXIRsD8xf1OwY_lQ17KSLf57-2-glatXZK4p4vqosOZD0QBTBO6kF9UI3Pa_KNfLaghHJ5u8UQvClkCDIb-G76BedwX7qOLJR8UUIkApIDiDSOchOIok2ODn9IYx5m4yEE99bHf98nprTO8J_4t7T-3DI1h1OiGnYqwGCvHKzeMmTQlyyQdXQ0Isuv2FuDIPLUsEmPKM0YxccJjwHHq-SOSBCvFtEf0QiwRdSAxAWzrB9TLy9FYxdZ-qd0FHpWWY07N7QtK8KIJEg8xnojAihfYclg1gKV9hMdVBph_2DhcHgcwyx7XfS2fALOyvOAsdLDYJxLgXx3kZnPBapNFv-e4CpDptgyOM-LhY6swaDibU7uzPYMUzBXJ3js_ZIRPIkuo3QoXwJxiUZ-1isVthuTxCXCqU-nJ47CaqaSysSYnyxJplHacPa4tfiq6j9HqSQ_OB2tBIB9JE5RUpOxSlyjlmC0]--></g></svg>