<svg xmlns="http://www.w3.org/2000/svg" xmlns:xlink="http://www.w3.org/1999/xlink" contentStyleType="text/css" data-diagram-type="CLASS" height="832px" preserveAspectRatio="none" style="width:4218px;height:832px;background:#FFFFFF;" version="1.1" viewBox="0 0 4218 832" width="4218px" zoomAndPan="magnify"><defs/><g><!--class Bot--><g id="elem_Bot"><rect codeLine="4" fill="#FFFFFF" height="114.0469" id="Bot" rx="2.5" ry="2.5" style="stroke:#000000;stroke-width:1;" width="237.0127" x="954.5" y="47"/><ellipse cx="1058.9995" cy="60.8047" fill="#FFFFFF" rx="8" ry="8" style="stroke:#000000;stroke-width:1;"/><path d="M1060.0776,58.1328 Q1060.1558,58.0078 1060.2651,57.9453 Q1060.3901,57.8828 1060.5151,57.8828 Q1060.7339,57.8828 1060.8745,58.0391 Q1061.0151,58.1953 1061.0151,58.5547 L1061.0151,59.3984 Q1061.0151,59.7578 1060.8745,59.9141 Q1060.7339,60.0703 1060.5151,60.0703 Q1060.312,60.0703 1060.187,59.9609 Q1060.062,59.8516 1059.9995,59.5391 Q1059.9683,59.3359 1059.8745,59.2266 Q1059.6714,58.9922 1059.312,58.8672 Q1058.9526,58.7422 1058.5933,58.7422 Q1058.1401,58.7422 1057.7651,58.9453 Q1057.3901,59.1328 1057.0933,59.5703 Q1056.812,60.0078 1056.812,60.6172 L1056.812,61.2578 Q1056.812,61.9766 1057.3276,62.4609 Q1057.8589,62.9453 1058.7964,62.9453 Q1059.3589,62.9453 1059.7339,62.8047 Q1059.9683,62.7109 1060.2183,62.4453 Q1060.3745,62.2891 1060.4526,62.2422 Q1060.5464,62.1953 1060.6558,62.1953 Q1060.8589,62.1953 1061.0151,62.3516 Q1061.1714,62.5078 1061.1714,62.7109 Q1061.1714,62.9141 1060.9526,63.1484 Q1060.6558,63.4922 1060.187,63.6797 Q1059.562,63.9453 1058.7964,63.9453 Q1057.9058,63.9453 1057.2026,63.5859 Q1056.6245,63.2891 1056.2183,62.6641 Q1055.812,62.0234 1055.812,61.2734 L1055.812,60.6016 Q1055.812,59.8203 1056.1714,59.1484 Q1056.5464,58.4609 1057.187,58.1016 Q1057.8276,57.7422 1058.5464,57.7422 Q1058.9839,57.7422 1059.3589,57.8359 Q1059.7495,57.9297 1060.0776,58.1328 Z " fill="#000000"/><text fill="#000000" font-family="Hack" font-size="14" lengthAdjust="spacing" textLength="21.0137" x="1074.9995" y="66.5332">Bot</text><line style="stroke:#000000;stroke-width:1;" x1="955.5" x2="1190.5127" y1="74.6094" y2="74.6094"/><rect fill="transparent" height="6" style="stroke:#000000;stroke-width:1;" width="6" x="962.5" y="85.9141"/><text fill="#000000" font-family="Hack" font-size="14" lengthAdjust="spacing" textLength="94.1787" x="971.5" y="93.1426">logger : Logger</text><ellipse cx="965.5" cy="106.5234" fill="transparent" rx="3" ry="3" style="stroke:#000000;stroke-width:1;"/><text fill="#000000" font-family="Hack" font-size="14" lengthAdjust="spacing" textLength="56.7998" x="971.5" y="110.752">jda : JDA</text><ellipse cx="965.5" cy="124.1328" fill="transparent" rx="3" ry="3" style="stroke:#000000;stroke-width:1;"/><text fill="#000000" font-family="Hack" font-size="14" lengthAdjust="spacing" textLength="214.0127" x="971.5" y="128.3613">moduleManager : ModuleManager</text><line style="stroke:#000000;stroke-width:1;" x1="955.5" x2="1190.5127" y1="135.4375" y2="135.4375"/><ellipse cx="965.5" cy="149.7422" fill="#FFFFFF" rx="3" ry="3" style="stroke:#000000;stroke-width:1;"/><text fill="#000000" font-family="Hack" font-size="14" lengthAdjust="spacing" textLength="148.6133" x="971.5" y="153.9707">start(String token) : void</text></g><!--class ICommand--><g id="elem_ICommand"><rect codeLine="10" fill="#FFFFFF" height="114.0469" id="ICommand" rx="2.5" ry="2.5" style="stroke:#000000;stroke-width:1;" width="357.6191" x="2412" y="703"/><ellipse cx="2553.0752" cy="716.8047" fill="#FFFFFF" rx="8" ry="8" style="stroke:#000000;stroke-width:1;"/><path d="M2554.0752,714.8828 L2554.0752,718.8047 L2555.0908,718.8047 Q2555.4502,718.8047 2555.6064,718.9453 Q2555.7627,719.0859 2555.7627,719.3047 Q2555.7627,719.5234 2555.6064,719.6641 Q2555.4502,719.8047 2555.0908,719.8047 L2552.0596,719.8047 Q2551.7002,719.8047 2551.5439,719.6641 Q2551.4033,719.5234 2551.4033,719.3047 Q2551.4033,719.0859 2551.5439,718.9453 Q2551.7002,718.8047 2552.0596,718.8047 L2553.0752,718.8047 L2553.0752,714.8828 L2552.0596,714.8828 Q2551.7002,714.8828 2551.5439,714.7422 Q2551.4033,714.6016 2551.4033,714.3828 Q2551.4033,714.1641 2551.5439,714.0234 Q2551.7002,713.8828 2552.0596,713.8828 L2555.0908,713.8828 Q2555.4502,713.8828 2555.6064,714.0234 Q2555.7627,714.1641 2555.7627,714.3828 Q2555.7627,714.6016 2555.6064,714.7422 Q2555.4502,714.8828 2555.0908,714.8828 L2554.0752,714.8828 Z " fill="#000000"/><text fill="#000000" font-family="Hack" font-size="14" font-style="italic" lengthAdjust="spacing" textLength="68.4688" x="2569.0752" y="722.5332">ICommand</text><line style="stroke:#000000;stroke-width:1;" x1="2413" x2="2768.6191" y1="730.6094" y2="730.6094"/><ellipse cx="2423" cy="744.9141" fill="transparent" rx="3" ry="3" style="stroke:#000000;stroke-width:1;"/><text fill="#000000" font-family="Hack" font-size="14" lengthAdjust="spacing" textLength="83.2617" x="2429" y="749.1426">name : String</text><line style="stroke:#000000;stroke-width:1;" x1="2413" x2="2768.6191" y1="756.2188" y2="756.2188"/><ellipse cx="2423" cy="770.5234" fill="#FFFFFF" rx="3" ry="3" style="stroke:#000000;stroke-width:1;"/><text fill="#000000" font-family="Hack" font-size="14" lengthAdjust="spacing" textLength="334.6191" x="2429" y="774.752">execute(SlashCommandInteractionEvent event) : void</text><ellipse cx="2423" cy="788.1328" fill="#FFFFFF" rx="3" ry="3" style="stroke:#000000;stroke-width:1;"/><text fill="#000000" font-family="Hack" font-size="14" lengthAdjust="spacing" textLength="204.6475" x="2429" y="792.3613">getSlash() : SlashCommandData</text><ellipse cx="2423" cy="805.7422" fill="#FFFFFF" rx="3" ry="3" style="stroke:#000000;stroke-width:1;"/><text fill="#000000" font-family="Hack" font-size="14" lengthAdjust="spacing" textLength="114.3721" x="2429" y="809.9707">getName() : String</text></g><!--class ModuleManager--><g id="elem_ModuleManager"><rect codeLine="16" fill="#FFFFFF" height="149.2656" id="ModuleManager" rx="2.5" ry="2.5" style="stroke:#000000;stroke-width:1;" width="380.9502" x="882.5" y="370.5"/><ellipse cx="1018.8892" cy="384.3047" fill="#FFFFFF" rx="8" ry="8" style="stroke:#000000;stroke-width:1;"/><path d="M1019.9673,381.6328 Q1020.0454,381.5078 1020.1548,381.4453 Q1020.2798,381.3828 1020.4048,381.3828 Q1020.6235,381.3828 1020.7642,381.5391 Q1020.9048,381.6953 1020.9048,382.0547 L1020.9048,382.8984 Q1020.9048,383.2578 1020.7642,383.4141 Q1020.6235,383.5703 1020.4048,383.5703 Q1020.2017,383.5703 1020.0767,383.4609 Q1019.9517,383.3516 1019.8892,383.0391 Q1019.8579,382.8359 1019.7642,382.7266 Q1019.561,382.4922 1019.2017,382.3672 Q1018.8423,382.2422 1018.4829,382.2422 Q1018.0298,382.2422 1017.6548,382.4453 Q1017.2798,382.6328 1016.9829,383.0703 Q1016.7017,383.5078 1016.7017,384.1172 L1016.7017,384.7578 Q1016.7017,385.4766 1017.2173,385.9609 Q1017.7485,386.4453 1018.686,386.4453 Q1019.2485,386.4453 1019.6235,386.3047 Q1019.8579,386.2109 1020.1079,385.9453 Q1020.2642,385.7891 1020.3423,385.7422 Q1020.436,385.6953 1020.5454,385.6953 Q1020.7485,385.6953 1020.9048,385.8516 Q1021.061,386.0078 1021.061,386.2109 Q1021.061,386.4141 1020.8423,386.6484 Q1020.5454,386.9922 1020.0767,387.1797 Q1019.4517,387.4453 1018.686,387.4453 Q1017.7954,387.4453 1017.0923,387.0859 Q1016.5142,386.7891 1016.1079,386.1641 Q1015.7017,385.5234 1015.7017,384.7734 L1015.7017,384.1016 Q1015.7017,383.3203 1016.061,382.6484 Q1016.436,381.9609 1017.0767,381.6016 Q1017.7173,381.2422 1018.436,381.2422 Q1018.8735,381.2422 1019.2485,381.3359 Q1019.6392,381.4297 1019.9673,381.6328 Z " fill="#000000"/><text fill="#000000" font-family="Hack" font-size="14" lengthAdjust="spacing" textLength="101.1719" x="1034.8892" y="390.0332">ModuleManager</text><line style="stroke:#000000;stroke-width:1;" x1="883.5" x2="1262.4502" y1="398.1094" y2="398.1094"/><rect fill="transparent" height="6" style="stroke:#000000;stroke-width:1;" width="6" x="890.5" y="409.4141"/><text fill="#000000" font-family="Hack" font-size="14" lengthAdjust="spacing" textLength="234.2402" x="899.5" y="416.6426">modules : Map&lt;String,EventListener&gt;</text><line style="stroke:#000000;stroke-width:1;" x1="883.5" x2="1262.4502" y1="423.7188" y2="423.7188"/><ellipse cx="893.5" cy="438.0234" fill="#FFFFFF" rx="3" ry="3" style="stroke:#000000;stroke-width:1;"/><text fill="#000000" font-family="Hack" font-size="14" lengthAdjust="spacing" textLength="357.9502" x="899.5" y="442.252">registerModule(String name, EventListener module) : void</text><ellipse cx="893.5" cy="455.6328" fill="#FFFFFF" rx="3" ry="3" style="stroke:#000000;stroke-width:1;"/><text fill="#000000" font-family="Hack" font-size="14" lengthAdjust="spacing" textLength="210.1162" x="899.5" y="459.8613">enableModule(String name) : void</text><ellipse cx="893.5" cy="473.2422" fill="#FFFFFF" rx="3" ry="3" style="stroke:#000000;stroke-width:1;"/><text fill="#000000" font-family="Hack" font-size="14" lengthAdjust="spacing" textLength="212.4404" x="899.5" y="477.4707">disableModule(String name) : void</text><ellipse cx="893.5" cy="490.8516" fill="#FFFFFF" rx="3" ry="3" style="stroke:#000000;stroke-width:1;"/><text fill="#000000" font-family="Hack" font-size="14" lengthAdjust="spacing" textLength="253.709" x="899.5" y="495.0801">isModuleEnabled(String name) : boolean</text><ellipse cx="893.5" cy="508.4609" fill="#FFFFFF" rx="3" ry="3" style="stroke:#000000;stroke-width:1;"/><text fill="#000000" font-family="Hack" font-size="14" lengthAdjust="spacing" textLength="263.0264" x="899.5" y="512.6895">getModules() : Map&lt;String,EventListener&gt;</text></g><!--class CommandManager--><g id="elem_CommandManager"><rect codeLine="24" fill="#FFFFFF" height="96.4375" id="CommandManager" rx="2.5" ry="2.5" style="stroke:#000000;stroke-width:1;" width="489.1289" x="1298.5" y="397"/><ellipse cx="1479.6475" cy="410.8047" fill="#FFFFFF" rx="8" ry="8" style="stroke:#000000;stroke-width:1;"/><path d="M1480.7256,408.1328 Q1480.8037,408.0078 1480.9131,407.9453 Q1481.0381,407.8828 1481.1631,407.8828 Q1481.3818,407.8828 1481.5225,408.0391 Q1481.6631,408.1953 1481.6631,408.5547 L1481.6631,409.3984 Q1481.6631,409.7578 1481.5225,409.9141 Q1481.3818,410.0703 1481.1631,410.0703 Q1480.96,410.0703 1480.835,409.9609 Q1480.71,409.8516 1480.6475,409.5391 Q1480.6162,409.3359 1480.5225,409.2266 Q1480.3193,408.9922 1479.96,408.8672 Q1479.6006,408.7422 1479.2412,408.7422 Q1478.7881,408.7422 1478.4131,408.9453 Q1478.0381,409.1328 1477.7412,409.5703 Q1477.46,410.0078 1477.46,410.6172 L1477.46,411.2578 Q1477.46,411.9766 1477.9756,412.4609 Q1478.5068,412.9453 1479.4443,412.9453 Q1480.0068,412.9453 1480.3818,412.8047 Q1480.6162,412.7109 1480.8662,412.4453 Q1481.0225,412.2891 1481.1006,412.2422 Q1481.1943,412.1953 1481.3037,412.1953 Q1481.5068,412.1953 1481.6631,412.3516 Q1481.8193,412.5078 1481.8193,412.7109 Q1481.8193,412.9141 1481.6006,413.1484 Q1481.3037,413.4922 1480.835,413.6797 Q1480.21,413.9453 1479.4443,413.9453 Q1478.5537,413.9453 1477.8506,413.5859 Q1477.2725,413.2891 1476.8662,412.6641 Q1476.46,412.0234 1476.46,411.2734 L1476.46,410.6016 Q1476.46,409.8203 1476.8193,409.1484 Q1477.1943,408.4609 1477.835,408.1016 Q1478.4756,407.7422 1479.1943,407.7422 Q1479.6318,407.7422 1480.0068,407.8359 Q1480.3975,407.9297 1480.7256,408.1328 Z " fill="#000000"/><text fill="#000000" font-family="Hack" font-size="14" lengthAdjust="spacing" textLength="119.834" x="1495.6475" y="416.5332">CommandManager</text><line style="stroke:#000000;stroke-width:1;" x1="1299.5" x2="1786.6289" y1="424.6094" y2="424.6094"/><ellipse cx="1309.5" cy="438.9141" fill="transparent" rx="3" ry="3" style="stroke:#000000;stroke-width:1;"/><text fill="#000000" font-family="Hack" font-size="14" lengthAdjust="spacing" textLength="186.7441" x="1315.5" y="443.1426">commands : List&lt;ICommand&gt;</text><line style="stroke:#000000;stroke-width:1;" x1="1299.5" x2="1786.6289" y1="450.2188" y2="450.2188"/><ellipse cx="1309.5" cy="464.5234" fill="#FFFFFF" rx="3" ry="3" style="stroke:#000000;stroke-width:1;"/><text fill="#000000" font-family="Hack" font-size="14" lengthAdjust="spacing" textLength="242.7852" x="1315.5" y="468.752">getSlash() : List&lt;SlashCommandData&gt;</text><ellipse cx="1309.5" cy="482.1328" fill="#FFFFFF" rx="3" ry="3" style="stroke:#000000;stroke-width:1;"/><text fill="#000000" font-family="Hack" font-size="14" lengthAdjust="spacing" textLength="466.1289" x="1315.5" y="486.3613">onSlashCommandInteraction(SlashCommandInteractionEvent event) : void</text></g><!--class ManageCommands--><g id="elem_ManageCommands"><rect codeLine="29" fill="#FFFFFF" height="43.6094" id="ManageCommands" rx="2.5" ry="2.5" style="stroke:#000000;stroke-width:1;" width="148.1719" x="1297" y="82"/><ellipse cx="1309" cy="95.8047" fill="#FFFFFF" rx="8" ry="8" style="stroke:#000000;stroke-width:1;"/><path d="M1310.0781,93.1328 Q1310.1563,93.0078 1310.2656,92.9453 Q1310.3906,92.8828 1310.5156,92.8828 Q1310.7344,92.8828 1310.875,93.0391 Q1311.0156,93.1953 1311.0156,93.5547 L1311.0156,94.3984 Q1311.0156,94.7578 1310.875,94.9141 Q1310.7344,95.0703 1310.5156,95.0703 Q1310.3125,95.0703 1310.1875,94.9609 Q1310.0625,94.8516 1310,94.5391 Q1309.9688,94.3359 1309.875,94.2266 Q1309.6719,93.9922 1309.3125,93.8672 Q1308.9531,93.7422 1308.5938,93.7422 Q1308.1406,93.7422 1307.7656,93.9453 Q1307.3906,94.1328 1307.0938,94.5703 Q1306.8125,95.0078 1306.8125,95.6172 L1306.8125,96.2578 Q1306.8125,96.9766 1307.3281,97.4609 Q1307.8594,97.9453 1308.7969,97.9453 Q1309.3594,97.9453 1309.7344,97.8047 Q1309.9688,97.7109 1310.2188,97.4453 Q1310.375,97.2891 1310.4531,97.2422 Q1310.5469,97.1953 1310.6563,97.1953 Q1310.8594,97.1953 1311.0156,97.3516 Q1311.1719,97.5078 1311.1719,97.7109 Q1311.1719,97.9141 1310.9531,98.1484 Q1310.6563,98.4922 1310.1875,98.6797 Q1309.5625,98.9453 1308.7969,98.9453 Q1307.9063,98.9453 1307.2031,98.5859 Q1306.625,98.2891 1306.2188,97.6641 Q1305.8125,97.0234 1305.8125,96.2734 L1305.8125,95.6016 Q1305.8125,94.8203 1306.1719,94.1484 Q1306.5469,93.4609 1307.1875,93.1016 Q1307.8281,92.7422 1308.5469,92.7422 Q1308.9844,92.7422 1309.3594,92.8359 Q1309.75,92.9297 1310.0781,93.1328 Z " fill="#000000"/><text fill="#000000" font-family="Hack" font-size="14" lengthAdjust="spacing" textLength="122.1719" x="1320" y="101.5332">ManageCommands</text><line style="stroke:#000000;stroke-width:1;" x1="1298" x2="1444.1719" y1="109.6094" y2="109.6094"/><line style="stroke:#000000;stroke-width:1;" x1="1298" x2="1444.1719" y1="117.6094" y2="117.6094"/></g><!--class CreateRole--><g id="elem_CreateRole"><rect codeLine="31" fill="#FFFFFF" height="114.0469" id="CreateRole" rx="2.5" ry="2.5" style="stroke:#000000;stroke-width:1;" width="357.6191" x="1823" y="388"/><ellipse cx="1962.9028" cy="401.8047" fill="#FFFFFF" rx="8" ry="8" style="stroke:#000000;stroke-width:1;"/><path d="M1963.981,399.1328 Q1964.0591,399.0078 1964.1685,398.9453 Q1964.2935,398.8828 1964.4185,398.8828 Q1964.6372,398.8828 1964.7778,399.0391 Q1964.9185,399.1953 1964.9185,399.5547 L1964.9185,400.3984 Q1964.9185,400.7578 1964.7778,400.9141 Q1964.6372,401.0703 1964.4185,401.0703 Q1964.2153,401.0703 1964.0903,400.9609 Q1963.9653,400.8516 1963.9028,400.5391 Q1963.8716,400.3359 1963.7778,400.2266 Q1963.5747,399.9922 1963.2153,399.8672 Q1962.856,399.7422 1962.4966,399.7422 Q1962.0435,399.7422 1961.6685,399.9453 Q1961.2935,400.1328 1960.9966,400.5703 Q1960.7153,401.0078 1960.7153,401.6172 L1960.7153,402.2578 Q1960.7153,402.9766 1961.231,403.4609 Q1961.7622,403.9453 1962.6997,403.9453 Q1963.2622,403.9453 1963.6372,403.8047 Q1963.8716,403.7109 1964.1216,403.4453 Q1964.2778,403.2891 1964.356,403.2422 Q1964.4497,403.1953 1964.5591,403.1953 Q1964.7622,403.1953 1964.9185,403.3516 Q1965.0747,403.5078 1965.0747,403.7109 Q1965.0747,403.9141 1964.856,404.1484 Q1964.5591,404.4922 1964.0903,404.6797 Q1963.4653,404.9453 1962.6997,404.9453 Q1961.8091,404.9453 1961.106,404.5859 Q1960.5278,404.2891 1960.1216,403.6641 Q1959.7153,403.0234 1959.7153,402.2734 L1959.7153,401.6016 Q1959.7153,400.8203 1960.0747,400.1484 Q1960.4497,399.4609 1961.0903,399.1016 Q1961.731,398.7422 1962.4497,398.7422 Q1962.8872,398.7422 1963.2622,398.8359 Q1963.6528,398.9297 1963.981,399.1328 Z " fill="#000000"/><text fill="#000000" font-family="Hack" font-size="14" lengthAdjust="spacing" textLength="70.8135" x="1978.9028" y="407.5332">CreateRole</text><line style="stroke:#000000;stroke-width:1;" x1="1824" x2="2179.6191" y1="415.6094" y2="415.6094"/><rect fill="transparent" height="6" style="stroke:#000000;stroke-width:1;" width="6" x="1831" y="426.9141"/><text fill="#000000" font-family="Hack" font-size="14" lengthAdjust="spacing" textLength="83.2617" x="1840" y="434.1426">name : String</text><line style="stroke:#000000;stroke-width:1;" x1="1824" x2="2179.6191" y1="441.2188" y2="441.2188"/><ellipse cx="1834" cy="455.5234" fill="#FFFFFF" rx="3" ry="3" style="stroke:#000000;stroke-width:1;"/><text fill="#000000" font-family="Hack" font-size="14" lengthAdjust="spacing" textLength="334.6191" x="1840" y="459.752">execute(SlashCommandInteractionEvent event) : void</text><ellipse cx="1834" cy="473.1328" fill="#FFFFFF" rx="3" ry="3" style="stroke:#000000;stroke-width:1;"/><text fill="#000000" font-family="Hack" font-size="14" lengthAdjust="spacing" textLength="204.6475" x="1840" y="477.3613">getSlash() : SlashCommandData</text><ellipse cx="1834" cy="490.7422" fill="#FFFFFF" rx="3" ry="3" style="stroke:#000000;stroke-width:1;"/><text fill="#000000" font-family="Hack" font-size="14" lengthAdjust="spacing" textLength="114.3721" x="1840" y="494.9707">getName() : String</text></g><!--class DeleteRole--><g id="elem_DeleteRole"><rect codeLine="37" fill="#FFFFFF" height="114.0469" id="DeleteRole" rx="2.5" ry="2.5" style="stroke:#000000;stroke-width:1;" width="357.6191" x="2216" y="388"/><ellipse cx="2356.6787" cy="401.8047" fill="#FFFFFF" rx="8" ry="8" style="stroke:#000000;stroke-width:1;"/><path d="M2357.7568,399.1328 Q2357.835,399.0078 2357.9443,398.9453 Q2358.0693,398.8828 2358.1943,398.8828 Q2358.4131,398.8828 2358.5537,399.0391 Q2358.6943,399.1953 2358.6943,399.5547 L2358.6943,400.3984 Q2358.6943,400.7578 2358.5537,400.9141 Q2358.4131,401.0703 2358.1943,401.0703 Q2357.9912,401.0703 2357.8662,400.9609 Q2357.7412,400.8516 2357.6787,400.5391 Q2357.6475,400.3359 2357.5537,400.2266 Q2357.3506,399.9922 2356.9912,399.8672 Q2356.6318,399.7422 2356.2725,399.7422 Q2355.8193,399.7422 2355.4443,399.9453 Q2355.0693,400.1328 2354.7725,400.5703 Q2354.4912,401.0078 2354.4912,401.6172 L2354.4912,402.2578 Q2354.4912,402.9766 2355.0068,403.4609 Q2355.5381,403.9453 2356.4756,403.9453 Q2357.0381,403.9453 2357.4131,403.8047 Q2357.6475,403.7109 2357.8975,403.4453 Q2358.0537,403.2891 2358.1318,403.2422 Q2358.2256,403.1953 2358.335,403.1953 Q2358.5381,403.1953 2358.6943,403.3516 Q2358.8506,403.5078 2358.8506,403.7109 Q2358.8506,403.9141 2358.6318,404.1484 Q2358.335,404.4922 2357.8662,404.6797 Q2357.2412,404.9453 2356.4756,404.9453 Q2355.585,404.9453 2354.8818,404.5859 Q2354.3037,404.2891 2353.8975,403.6641 Q2353.4912,403.0234 2353.4912,402.2734 L2353.4912,401.6016 Q2353.4912,400.8203 2353.8506,400.1484 Q2354.2256,399.4609 2354.8662,399.1016 Q2355.5068,398.7422 2356.2256,398.7422 Q2356.6631,398.7422 2357.0381,398.8359 Q2357.4287,398.9297 2357.7568,399.1328 Z " fill="#000000"/><text fill="#000000" font-family="Hack" font-size="14" lengthAdjust="spacing" textLength="69.2617" x="2372.6787" y="407.5332">DeleteRole</text><line style="stroke:#000000;stroke-width:1;" x1="2217" x2="2572.6191" y1="415.6094" y2="415.6094"/><rect fill="transparent" height="6" style="stroke:#000000;stroke-width:1;" width="6" x="2224" y="426.9141"/><text fill="#000000" font-family="Hack" font-size="14" lengthAdjust="spacing" textLength="83.2617" x="2233" y="434.1426">name : String</text><line style="stroke:#000000;stroke-width:1;" x1="2217" x2="2572.6191" y1="441.2188" y2="441.2188"/><ellipse cx="2227" cy="455.5234" fill="#FFFFFF" rx="3" ry="3" style="stroke:#000000;stroke-width:1;"/><text fill="#000000" font-family="Hack" font-size="14" lengthAdjust="spacing" textLength="334.6191" x="2233" y="459.752">execute(SlashCommandInteractionEvent event) : void</text><ellipse cx="2227" cy="473.1328" fill="#FFFFFF" rx="3" ry="3" style="stroke:#000000;stroke-width:1;"/><text fill="#000000" font-family="Hack" font-size="14" lengthAdjust="spacing" textLength="204.6475" x="2233" y="477.3613">getSlash() : SlashCommandData</text><ellipse cx="2227" cy="490.7422" fill="#FFFFFF" rx="3" ry="3" style="stroke:#000000;stroke-width:1;"/><text fill="#000000" font-family="Hack" font-size="14" lengthAdjust="spacing" textLength="114.3721" x="2233" y="494.9707">getName() : String</text></g><!--class Ban--><g id="elem_Ban"><rect codeLine="43" fill="#FFFFFF" height="131.6563" id="Ban" rx="2.5" ry="2.5" style="stroke:#000000;stroke-width:1;" width="357.6191" x="2609" y="379"/><ellipse cx="2771.8545" cy="392.8047" fill="#FFFFFF" rx="8" ry="8" style="stroke:#000000;stroke-width:1;"/><path d="M2772.9326,390.1328 Q2773.0107,390.0078 2773.1201,389.9453 Q2773.2451,389.8828 2773.3701,389.8828 Q2773.5889,389.8828 2773.7295,390.0391 Q2773.8701,390.1953 2773.8701,390.5547 L2773.8701,391.3984 Q2773.8701,391.7578 2773.7295,391.9141 Q2773.5889,392.0703 2773.3701,392.0703 Q2773.167,392.0703 2773.042,391.9609 Q2772.917,391.8516 2772.8545,391.5391 Q2772.8232,391.3359 2772.7295,391.2266 Q2772.5264,390.9922 2772.167,390.8672 Q2771.8076,390.7422 2771.4482,390.7422 Q2770.9951,390.7422 2770.6201,390.9453 Q2770.2451,391.1328 2769.9482,391.5703 Q2769.667,392.0078 2769.667,392.6172 L2769.667,393.2578 Q2769.667,393.9766 2770.1826,394.4609 Q2770.7139,394.9453 2771.6514,394.9453 Q2772.2139,394.9453 2772.5889,394.8047 Q2772.8232,394.7109 2773.0732,394.4453 Q2773.2295,394.2891 2773.3076,394.2422 Q2773.4014,394.1953 2773.5107,394.1953 Q2773.7139,394.1953 2773.8701,394.3516 Q2774.0264,394.5078 2774.0264,394.7109 Q2774.0264,394.9141 2773.8076,395.1484 Q2773.5107,395.4922 2773.042,395.6797 Q2772.417,395.9453 2771.6514,395.9453 Q2770.7607,395.9453 2770.0576,395.5859 Q2769.4795,395.2891 2769.0732,394.6641 Q2768.667,394.0234 2768.667,393.2734 L2768.667,392.6016 Q2768.667,391.8203 2769.0264,391.1484 Q2769.4014,390.4609 2770.042,390.1016 Q2770.6826,389.7422 2771.4014,389.7422 Q2771.8389,389.7422 2772.2139,389.8359 Q2772.6045,389.9297 2772.9326,390.1328 Z " fill="#000000"/><text fill="#000000" font-family="Hack" font-size="14" lengthAdjust="spacing" textLength="24.9102" x="2787.8545" y="398.5332">Ban</text><line style="stroke:#000000;stroke-width:1;" x1="2610" x2="2965.6191" y1="406.6094" y2="406.6094"/><rect fill="transparent" height="6" style="stroke:#000000;stroke-width:1;" width="6" x="2617" y="417.9141"/><text fill="#000000" font-family="Hack" font-size="14" lengthAdjust="spacing" textLength="83.2617" x="2626" y="425.1426">name : String</text><line style="stroke:#000000;stroke-width:1;" x1="2610" x2="2965.6191" y1="432.2188" y2="432.2188"/><ellipse cx="2620" cy="446.5234" fill="#FFFFFF" rx="3" ry="3" style="stroke:#000000;stroke-width:1;"/><text fill="#000000" font-family="Hack" font-size="14" lengthAdjust="spacing" textLength="334.6191" x="2626" y="450.752">execute(SlashCommandInteractionEvent event) : void</text><ellipse cx="2620" cy="464.1328" fill="#FFFFFF" rx="3" ry="3" style="stroke:#000000;stroke-width:1;"/><text fill="#000000" font-family="Hack" font-size="14" lengthAdjust="spacing" textLength="204.6475" x="2626" y="468.3613">getSlash() : SlashCommandData</text><rect fill="#FFFFFF" height="6" style="stroke:#000000;stroke-width:1;" width="6" x="2617" y="478.7422"/><text fill="#000000" font-family="Hack" font-size="14" lengthAdjust="spacing" textLength="168.8203" x="2626" y="485.9707">parseTime(String time) : int</text><ellipse cx="2620" cy="499.3516" fill="#FFFFFF" rx="3" ry="3" style="stroke:#000000;stroke-width:1;"/><text fill="#000000" font-family="Hack" font-size="14" lengthAdjust="spacing" textLength="114.3721" x="2626" y="503.5801">getName() : String</text></g><!--class Kick--><g id="elem_Kick"><rect codeLine="50" fill="#FFFFFF" height="114.0469" id="Kick" rx="2.5" ry="2.5" style="stroke:#000000;stroke-width:1;" width="357.6191" x="3002" y="388"/><ellipse cx="3164.0854" cy="401.8047" fill="#FFFFFF" rx="8" ry="8" style="stroke:#000000;stroke-width:1;"/><path d="M3165.1636,399.1328 Q3165.2417,399.0078 3165.3511,398.9453 Q3165.4761,398.8828 3165.6011,398.8828 Q3165.8198,398.8828 3165.9604,399.0391 Q3166.1011,399.1953 3166.1011,399.5547 L3166.1011,400.3984 Q3166.1011,400.7578 3165.9604,400.9141 Q3165.8198,401.0703 3165.6011,401.0703 Q3165.3979,401.0703 3165.2729,400.9609 Q3165.1479,400.8516 3165.0854,400.5391 Q3165.0542,400.3359 3164.9604,400.2266 Q3164.7573,399.9922 3164.3979,399.8672 Q3164.0386,399.7422 3163.6792,399.7422 Q3163.2261,399.7422 3162.8511,399.9453 Q3162.4761,400.1328 3162.1792,400.5703 Q3161.8979,401.0078 3161.8979,401.6172 L3161.8979,402.2578 Q3161.8979,402.9766 3162.4136,403.4609 Q3162.9448,403.9453 3163.8823,403.9453 Q3164.4448,403.9453 3164.8198,403.8047 Q3165.0542,403.7109 3165.3042,403.4453 Q3165.4604,403.2891 3165.5386,403.2422 Q3165.6323,403.1953 3165.7417,403.1953 Q3165.9448,403.1953 3166.1011,403.3516 Q3166.2573,403.5078 3166.2573,403.7109 Q3166.2573,403.9141 3166.0386,404.1484 Q3165.7417,404.4922 3165.2729,404.6797 Q3164.6479,404.9453 3163.8823,404.9453 Q3162.9917,404.9453 3162.2886,404.5859 Q3161.7104,404.2891 3161.3042,403.6641 Q3160.8979,403.0234 3160.8979,402.2734 L3160.8979,401.6016 Q3160.8979,400.8203 3161.2573,400.1484 Q3161.6323,399.4609 3162.2729,399.1016 Q3162.9136,398.7422 3163.6323,398.7422 Q3164.0698,398.7422 3164.4448,398.8359 Q3164.8354,398.9297 3165.1636,399.1328 Z " fill="#000000"/><text fill="#000000" font-family="Hack" font-size="14" lengthAdjust="spacing" textLength="26.4482" x="3180.0854" y="407.5332">Kick</text><line style="stroke:#000000;stroke-width:1;" x1="3003" x2="3358.6191" y1="415.6094" y2="415.6094"/><rect fill="transparent" height="6" style="stroke:#000000;stroke-width:1;" width="6" x="3010" y="426.9141"/><text fill="#000000" font-family="Hack" font-size="14" lengthAdjust="spacing" textLength="83.2617" x="3019" y="434.1426">name : String</text><line style="stroke:#000000;stroke-width:1;" x1="3003" x2="3358.6191" y1="441.2188" y2="441.2188"/><ellipse cx="3013" cy="455.5234" fill="#FFFFFF" rx="3" ry="3" style="stroke:#000000;stroke-width:1;"/><text fill="#000000" font-family="Hack" font-size="14" lengthAdjust="spacing" textLength="334.6191" x="3019" y="459.752">execute(SlashCommandInteractionEvent event) : void</text><ellipse cx="3013" cy="473.1328" fill="#FFFFFF" rx="3" ry="3" style="stroke:#000000;stroke-width:1;"/><text fill="#000000" font-family="Hack" font-size="14" lengthAdjust="spacing" textLength="204.6475" x="3019" y="477.3613">getSlash() : SlashCommandData</text><ellipse cx="3013" cy="490.7422" fill="#FFFFFF" rx="3" ry="3" style="stroke:#000000;stroke-width:1;"/><text fill="#000000" font-family="Hack" font-size="14" lengthAdjust="spacing" textLength="114.3721" x="3019" y="494.9707">getName() : String</text></g><!--class Mute--><g id="elem_Mute"><rect codeLine="56" fill="#FFFFFF" height="131.6563" id="Mute" rx="2.5" ry="2.5" style="stroke:#000000;stroke-width:1;" width="357.6191" x="3395" y="379"/><ellipse cx="3554.7476" cy="392.8047" fill="#FFFFFF" rx="8" ry="8" style="stroke:#000000;stroke-width:1;"/><path d="M3555.8257,390.1328 Q3555.9038,390.0078 3556.0132,389.9453 Q3556.1382,389.8828 3556.2632,389.8828 Q3556.4819,389.8828 3556.6226,390.0391 Q3556.7632,390.1953 3556.7632,390.5547 L3556.7632,391.3984 Q3556.7632,391.7578 3556.6226,391.9141 Q3556.4819,392.0703 3556.2632,392.0703 Q3556.0601,392.0703 3555.9351,391.9609 Q3555.8101,391.8516 3555.7476,391.5391 Q3555.7163,391.3359 3555.6226,391.2266 Q3555.4194,390.9922 3555.0601,390.8672 Q3554.7007,390.7422 3554.3413,390.7422 Q3553.8882,390.7422 3553.5132,390.9453 Q3553.1382,391.1328 3552.8413,391.5703 Q3552.5601,392.0078 3552.5601,392.6172 L3552.5601,393.2578 Q3552.5601,393.9766 3553.0757,394.4609 Q3553.6069,394.9453 3554.5444,394.9453 Q3555.1069,394.9453 3555.4819,394.8047 Q3555.7163,394.7109 3555.9663,394.4453 Q3556.1226,394.2891 3556.2007,394.2422 Q3556.2944,394.1953 3556.4038,394.1953 Q3556.6069,394.1953 3556.7632,394.3516 Q3556.9194,394.5078 3556.9194,394.7109 Q3556.9194,394.9141 3556.7007,395.1484 Q3556.4038,395.4922 3555.9351,395.6797 Q3555.3101,395.9453 3554.5444,395.9453 Q3553.6538,395.9453 3552.9507,395.5859 Q3552.3726,395.2891 3551.9663,394.6641 Q3551.5601,394.0234 3551.5601,393.2734 L3551.5601,392.6016 Q3551.5601,391.8203 3551.9194,391.1484 Q3552.2944,390.4609 3552.9351,390.1016 Q3553.5757,389.7422 3554.2944,389.7422 Q3554.7319,389.7422 3555.1069,389.8359 Q3555.4976,389.9297 3555.8257,390.1328 Z " fill="#000000"/><text fill="#000000" font-family="Hack" font-size="14" lengthAdjust="spacing" textLength="31.124" x="3570.7476" y="398.5332">Mute</text><line style="stroke:#000000;stroke-width:1;" x1="3396" x2="3751.6191" y1="406.6094" y2="406.6094"/><rect fill="transparent" height="6" style="stroke:#000000;stroke-width:1;" width="6" x="3403" y="417.9141"/><text fill="#000000" font-family="Hack" font-size="14" lengthAdjust="spacing" textLength="83.2617" x="3412" y="425.1426">name : String</text><line style="stroke:#000000;stroke-width:1;" x1="3396" x2="3751.6191" y1="432.2188" y2="432.2188"/><ellipse cx="3406" cy="446.5234" fill="#FFFFFF" rx="3" ry="3" style="stroke:#000000;stroke-width:1;"/><text fill="#000000" font-family="Hack" font-size="14" lengthAdjust="spacing" textLength="334.6191" x="3412" y="450.752">execute(SlashCommandInteractionEvent event) : void</text><ellipse cx="3406" cy="464.1328" fill="#FFFFFF" rx="3" ry="3" style="stroke:#000000;stroke-width:1;"/><text fill="#000000" font-family="Hack" font-size="14" lengthAdjust="spacing" textLength="204.6475" x="3412" y="468.3613">getSlash() : SlashCommandData</text><rect fill="#FFFFFF" height="6" style="stroke:#000000;stroke-width:1;" width="6" x="3403" y="478.7422"/><text fill="#000000" font-family="Hack" font-size="14" lengthAdjust="spacing" textLength="206.9512" x="3412" y="485.9707">parseTime(String time) : Duration</text><ellipse cx="3406" cy="499.3516" fill="#FFFFFF" rx="3" ry="3" style="stroke:#000000;stroke-width:1;"/><text fill="#000000" font-family="Hack" font-size="14" lengthAdjust="spacing" textLength="114.3721" x="3412" y="503.5801">getName() : String</text></g><!--class ModCommands--><g id="elem_ModCommands"><rect codeLine="63" fill="#FFFFFF" height="43.6094" id="ModCommands" rx="2.5" ry="2.5" style="stroke:#000000;stroke-width:1;" width="124.8135" x="1480.5" y="82"/><ellipse cx="1492.5" cy="95.8047" fill="#FFFFFF" rx="8" ry="8" style="stroke:#000000;stroke-width:1;"/><path d="M1493.5781,93.1328 Q1493.6563,93.0078 1493.7656,92.9453 Q1493.8906,92.8828 1494.0156,92.8828 Q1494.2344,92.8828 1494.375,93.0391 Q1494.5156,93.1953 1494.5156,93.5547 L1494.5156,94.3984 Q1494.5156,94.7578 1494.375,94.9141 Q1494.2344,95.0703 1494.0156,95.0703 Q1493.8125,95.0703 1493.6875,94.9609 Q1493.5625,94.8516 1493.5,94.5391 Q1493.4688,94.3359 1493.375,94.2266 Q1493.1719,93.9922 1492.8125,93.8672 Q1492.4531,93.7422 1492.0938,93.7422 Q1491.6406,93.7422 1491.2656,93.9453 Q1490.8906,94.1328 1490.5938,94.5703 Q1490.3125,95.0078 1490.3125,95.6172 L1490.3125,96.2578 Q1490.3125,96.9766 1490.8281,97.4609 Q1491.3594,97.9453 1492.2969,97.9453 Q1492.8594,97.9453 1493.2344,97.8047 Q1493.4688,97.7109 1493.7188,97.4453 Q1493.875,97.2891 1493.9531,97.2422 Q1494.0469,97.1953 1494.1563,97.1953 Q1494.3594,97.1953 1494.5156,97.3516 Q1494.6719,97.5078 1494.6719,97.7109 Q1494.6719,97.9141 1494.4531,98.1484 Q1494.1563,98.4922 1493.6875,98.6797 Q1493.0625,98.9453 1492.2969,98.9453 Q1491.4063,98.9453 1490.7031,98.5859 Q1490.125,98.2891 1489.7188,97.6641 Q1489.3125,97.0234 1489.3125,96.2734 L1489.3125,95.6016 Q1489.3125,94.8203 1489.6719,94.1484 Q1490.0469,93.4609 1490.6875,93.1016 Q1491.3281,92.7422 1492.0469,92.7422 Q1492.4844,92.7422 1492.8594,92.8359 Q1493.25,92.9297 1493.5781,93.1328 Z " fill="#000000"/><text fill="#000000" font-family="Hack" font-size="14" lengthAdjust="spacing" textLength="98.8135" x="1503.5" y="101.5332">ModCommands</text><line style="stroke:#000000;stroke-width:1;" x1="1481.5" x2="1604.3135" y1="109.6094" y2="109.6094"/><line style="stroke:#000000;stroke-width:1;" x1="1481.5" x2="1604.3135" y1="117.6094" y2="117.6094"/></g><!--class Avatar--><g id="elem_Avatar"><rect codeLine="65" fill="#FFFFFF" height="149.2656" id="Avatar" rx="2.5" ry="2.5" style="stroke:#000000;stroke-width:1;" width="423.7705" x="3788" y="370.5"/><ellipse cx="3976.1543" cy="384.3047" fill="#FFFFFF" rx="8" ry="8" style="stroke:#000000;stroke-width:1;"/><path d="M3977.2324,381.6328 Q3977.3105,381.5078 3977.4199,381.4453 Q3977.5449,381.3828 3977.6699,381.3828 Q3977.8887,381.3828 3978.0293,381.5391 Q3978.1699,381.6953 3978.1699,382.0547 L3978.1699,382.8984 Q3978.1699,383.2578 3978.0293,383.4141 Q3977.8887,383.5703 3977.6699,383.5703 Q3977.4668,383.5703 3977.3418,383.4609 Q3977.2168,383.3516 3977.1543,383.0391 Q3977.123,382.8359 3977.0293,382.7266 Q3976.8262,382.4922 3976.4668,382.3672 Q3976.1074,382.2422 3975.748,382.2422 Q3975.2949,382.2422 3974.9199,382.4453 Q3974.5449,382.6328 3974.248,383.0703 Q3973.9668,383.5078 3973.9668,384.1172 L3973.9668,384.7578 Q3973.9668,385.4766 3974.4824,385.9609 Q3975.0137,386.4453 3975.9512,386.4453 Q3976.5137,386.4453 3976.8887,386.3047 Q3977.123,386.2109 3977.373,385.9453 Q3977.5293,385.7891 3977.6074,385.7422 Q3977.7012,385.6953 3977.8105,385.6953 Q3978.0137,385.6953 3978.1699,385.8516 Q3978.3262,386.0078 3978.3262,386.2109 Q3978.3262,386.4141 3978.1074,386.6484 Q3977.8105,386.9922 3977.3418,387.1797 Q3976.7168,387.4453 3975.9512,387.4453 Q3975.0605,387.4453 3974.3574,387.0859 Q3973.7793,386.7891 3973.373,386.1641 Q3972.9668,385.5234 3972.9668,384.7734 L3972.9668,384.1016 Q3972.9668,383.3203 3973.3262,382.6484 Q3973.7012,381.9609 3974.3418,381.6016 Q3974.9824,381.2422 3975.7012,381.2422 Q3976.1387,381.2422 3976.5137,381.3359 Q3976.9043,381.4297 3977.2324,381.6328 Z " fill="#000000"/><text fill="#000000" font-family="Hack" font-size="14" lengthAdjust="spacing" textLength="40.4619" x="3992.1543" y="390.0332">Avatar</text><line style="stroke:#000000;stroke-width:1;" x1="3789" x2="4210.7705" y1="398.1094" y2="398.1094"/><rect fill="transparent" height="6" style="stroke:#000000;stroke-width:1;" width="6" x="3796" y="409.4141"/><text fill="#000000" font-family="Hack" font-size="14" lengthAdjust="spacing" textLength="83.2617" x="3805" y="416.6426">name : String</text><line style="stroke:#000000;stroke-width:1;" x1="3789" x2="4210.7705" y1="423.7188" y2="423.7188"/><ellipse cx="3799" cy="438.0234" fill="#FFFFFF" rx="3" ry="3" style="stroke:#000000;stroke-width:1;"/><text fill="#000000" font-family="Hack" font-size="14" lengthAdjust="spacing" textLength="334.6191" x="3805" y="442.252">execute(SlashCommandInteractionEvent event) : void</text><rect fill="#FFFFFF" height="6" style="stroke:#000000;stroke-width:1;" width="6" x="3796" y="452.6328"/><text fill="#000000" font-family="Hack" font-size="14" lengthAdjust="spacing" textLength="391.4053" x="3805" y="459.8613">buildAvatarEmbed(String avatar, String user) : MessageEmbed</text><rect fill="#FFFFFF" height="6" style="stroke:#000000;stroke-width:1;" width="6" x="3796" y="470.2422"/><text fill="#000000" font-family="Hack" font-size="14" lengthAdjust="spacing" textLength="400.7705" x="3805" y="477.4707">buildBannerEmbed(String banner, String user) : MessageEmbed</text><ellipse cx="3799" cy="490.8516" fill="#FFFFFF" rx="3" ry="3" style="stroke:#000000;stroke-width:1;"/><text fill="#000000" font-family="Hack" font-size="14" lengthAdjust="spacing" textLength="204.6475" x="3805" y="495.0801">getSlash() : SlashCommandData</text><ellipse cx="3799" cy="508.4609" fill="#FFFFFF" rx="3" ry="3" style="stroke:#000000;stroke-width:1;"/><text fill="#000000" font-family="Hack" font-size="14" lengthAdjust="spacing" textLength="114.3721" x="3805" y="512.6895">getName() : String</text></g><!--class UserCommands--><g id="elem_UserCommands"><rect codeLine="73" fill="#FFFFFF" height="43.6094" id="UserCommands" rx="2.5" ry="2.5" style="stroke:#000000;stroke-width:1;" width="127.1377" x="1640.5" y="82"/><ellipse cx="1652.5" cy="95.8047" fill="#FFFFFF" rx="8" ry="8" style="stroke:#000000;stroke-width:1;"/><path d="M1653.5781,93.1328 Q1653.6563,93.0078 1653.7656,92.9453 Q1653.8906,92.8828 1654.0156,92.8828 Q1654.2344,92.8828 1654.375,93.0391 Q1654.5156,93.1953 1654.5156,93.5547 L1654.5156,94.3984 Q1654.5156,94.7578 1654.375,94.9141 Q1654.2344,95.0703 1654.0156,95.0703 Q1653.8125,95.0703 1653.6875,94.9609 Q1653.5625,94.8516 1653.5,94.5391 Q1653.4688,94.3359 1653.375,94.2266 Q1653.1719,93.9922 1652.8125,93.8672 Q1652.4531,93.7422 1652.0938,93.7422 Q1651.6406,93.7422 1651.2656,93.9453 Q1650.8906,94.1328 1650.5938,94.5703 Q1650.3125,95.0078 1650.3125,95.6172 L1650.3125,96.2578 Q1650.3125,96.9766 1650.8281,97.4609 Q1651.3594,97.9453 1652.2969,97.9453 Q1652.8594,97.9453 1653.2344,97.8047 Q1653.4688,97.7109 1653.7188,97.4453 Q1653.875,97.2891 1653.9531,97.2422 Q1654.0469,97.1953 1654.1563,97.1953 Q1654.3594,97.1953 1654.5156,97.3516 Q1654.6719,97.5078 1654.6719,97.7109 Q1654.6719,97.9141 1654.4531,98.1484 Q1654.1563,98.4922 1653.6875,98.6797 Q1653.0625,98.9453 1652.2969,98.9453 Q1651.4063,98.9453 1650.7031,98.5859 Q1650.125,98.2891 1649.7188,97.6641 Q1649.3125,97.0234 1649.3125,96.2734 L1649.3125,95.6016 Q1649.3125,94.8203 1649.6719,94.1484 Q1650.0469,93.4609 1650.6875,93.1016 Q1651.3281,92.7422 1652.0469,92.7422 Q1652.4844,92.7422 1652.8594,92.8359 Q1653.25,92.9297 1653.5781,93.1328 Z " fill="#000000"/><text fill="#000000" font-family="Hack" font-size="14" lengthAdjust="spacing" textLength="101.1377" x="1663.5" y="101.5332">UserCommands</text><line style="stroke:#000000;stroke-width:1;" x1="1641.5" x2="1766.6377" y1="109.6094" y2="109.6094"/><line style="stroke:#000000;stroke-width:1;" x1="1641.5" x2="1766.6377" y1="117.6094" y2="117.6094"/></g><!--class DatabaseManager--><g id="elem_DatabaseManager"><rect codeLine="75" fill="#FFFFFF" height="184.4844" id="DatabaseManager" rx="2.5" ry="2.5" style="stroke:#000000;stroke-width:1;" width="343.6123" x="33" y="12"/><ellipse cx="143.7134" cy="25.8047" fill="#FFFFFF" rx="8" ry="8" style="stroke:#000000;stroke-width:1;"/><path d="M144.7915,23.1328 Q144.8696,23.0078 144.979,22.9453 Q145.104,22.8828 145.229,22.8828 Q145.4478,22.8828 145.5884,23.0391 Q145.729,23.1953 145.729,23.5547 L145.729,24.3984 Q145.729,24.7578 145.5884,24.9141 Q145.4478,25.0703 145.229,25.0703 Q145.0259,25.0703 144.9009,24.9609 Q144.7759,24.8516 144.7134,24.5391 Q144.6821,24.3359 144.5884,24.2266 Q144.3853,23.9922 144.0259,23.8672 Q143.6665,23.7422 143.3071,23.7422 Q142.854,23.7422 142.479,23.9453 Q142.104,24.1328 141.8071,24.5703 Q141.5259,25.0078 141.5259,25.6172 L141.5259,26.2578 Q141.5259,26.9766 142.0415,27.4609 Q142.5728,27.9453 143.5103,27.9453 Q144.0728,27.9453 144.4478,27.8047 Q144.6821,27.7109 144.9321,27.4453 Q145.0884,27.2891 145.1665,27.2422 Q145.2603,27.1953 145.3696,27.1953 Q145.5728,27.1953 145.729,27.3516 Q145.8853,27.5078 145.8853,27.7109 Q145.8853,27.9141 145.6665,28.1484 Q145.3696,28.4922 144.9009,28.6797 Q144.2759,28.9453 143.5103,28.9453 Q142.6196,28.9453 141.9165,28.5859 Q141.3384,28.2891 140.9321,27.6641 Q140.5259,27.0234 140.5259,26.2734 L140.5259,25.6016 Q140.5259,24.8203 140.8853,24.1484 Q141.2603,23.4609 141.9009,23.1016 Q142.5415,22.7422 143.2603,22.7422 Q143.6978,22.7422 144.0728,22.8359 Q144.4634,22.9297 144.7915,23.1328 Z " fill="#000000"/><text fill="#000000" font-family="Hack" font-size="14" lengthAdjust="spacing" textLength="115.1855" x="159.7134" y="31.5332">DatabaseManager</text><line style="stroke:#000000;stroke-width:1;" x1="34" x2="375.6123" y1="39.6094" y2="39.6094"/><rect fill="transparent" height="6" style="stroke:#000000;stroke-width:1;" width="6" x="41" y="50.9141"/><text fill="#000000" font-family="Hack" font-size="14" lengthAdjust="spacing" textLength="63.7998" x="50" y="58.1426">url : String</text><rect fill="transparent" height="6" style="stroke:#000000;stroke-width:1;" width="6" x="41" y="68.5234"/><text fill="#000000" font-family="Hack" font-size="14" lengthAdjust="spacing" textLength="75.4756" x="50" y="75.752">user : String</text><rect fill="transparent" height="6" style="stroke:#000000;stroke-width:1;" width="6" x="41" y="86.1328"/><text fill="#000000" font-family="Hack" font-size="14" lengthAdjust="spacing" textLength="108.1582" x="50" y="93.3613">password : String</text><rect fill="transparent" height="6" style="stroke:#000000;stroke-width:1;" width="6" x="41" y="103.7422"/><text fill="#000000" font-family="Hack" font-size="14" lengthAdjust="spacing" textLength="150.2129" x="50" y="110.9707">connection : Connection</text><line style="stroke:#000000;stroke-width:1;" x1="34" x2="375.6123" y1="118.0469" y2="118.0469"/><rect fill="#FFFFFF" height="6" style="stroke:#000000;stroke-width:1;" width="6" x="41" y="129.3516"/><text fill="#000000" font-family="Hack" font-size="14" lengthAdjust="spacing" textLength="95.71" x="50" y="136.5801">connect() : void</text><ellipse cx="44" cy="149.9609" fill="#FFFFFF" rx="3" ry="3" style="stroke:#000000;stroke-width:1;"/><text fill="#000000" font-family="Hack" font-size="14" lengthAdjust="spacing" textLength="320.6123" x="50" y="154.1895">addPenalty(String userId, String penaltyType) : void</text><ellipse cx="44" cy="167.5703" fill="#FFFFFF" rx="3" ry="3" style="stroke:#000000;stroke-width:1;"/><text fill="#000000" font-family="Hack" font-size="14" lengthAdjust="spacing" textLength="238.1162" x="50" y="171.7988">getPenalties(String userId) : ResultSet</text><ellipse cx="44" cy="185.1797" fill="#FFFFFF" rx="3" ry="3" style="stroke:#000000;stroke-width:1;"/><text fill="#000000" font-family="Hack" font-size="14" lengthAdjust="spacing" textLength="79.3584" x="50" y="189.4082">close() : void</text></g><!--class EventListener--><g id="elem_EventListener"><rect codeLine="85" fill="#FFFFFF" height="131.6563" id="EventListener" rx="2.5" ry="2.5" style="stroke:#000000;stroke-width:1;" width="433.1289" x="1091.5" y="694"/><ellipse cx="1261.7612" cy="707.8047" fill="#FFFFFF" rx="8" ry="8" style="stroke:#000000;stroke-width:1;"/><path d="M1262.8394,705.1328 Q1262.9175,705.0078 1263.0269,704.9453 Q1263.1519,704.8828 1263.2769,704.8828 Q1263.4956,704.8828 1263.6362,705.0391 Q1263.7769,705.1953 1263.7769,705.5547 L1263.7769,706.3984 Q1263.7769,706.7578 1263.6362,706.9141 Q1263.4956,707.0703 1263.2769,707.0703 Q1263.0737,707.0703 1262.9487,706.9609 Q1262.8237,706.8516 1262.7612,706.5391 Q1262.73,706.3359 1262.6362,706.2266 Q1262.4331,705.9922 1262.0737,705.8672 Q1261.7144,705.7422 1261.355,705.7422 Q1260.9019,705.7422 1260.5269,705.9453 Q1260.1519,706.1328 1259.855,706.5703 Q1259.5737,707.0078 1259.5737,707.6172 L1259.5737,708.2578 Q1259.5737,708.9766 1260.0894,709.4609 Q1260.6206,709.9453 1261.5581,709.9453 Q1262.1206,709.9453 1262.4956,709.8047 Q1262.73,709.7109 1262.98,709.4453 Q1263.1362,709.2891 1263.2144,709.2422 Q1263.3081,709.1953 1263.4175,709.1953 Q1263.6206,709.1953 1263.7769,709.3516 Q1263.9331,709.5078 1263.9331,709.7109 Q1263.9331,709.9141 1263.7144,710.1484 Q1263.4175,710.4922 1262.9487,710.6797 Q1262.3237,710.9453 1261.5581,710.9453 Q1260.6675,710.9453 1259.9644,710.5859 Q1259.3862,710.2891 1258.98,709.6641 Q1258.5737,709.0234 1258.5737,708.2734 L1258.5737,707.6016 Q1258.5737,706.8203 1258.9331,706.1484 Q1259.3081,705.4609 1259.9487,705.1016 Q1260.5894,704.7422 1261.3081,704.7422 Q1261.7456,704.7422 1262.1206,704.8359 Q1262.5112,704.9297 1262.8394,705.1328 Z " fill="#000000"/><text fill="#000000" font-family="Hack" font-size="14" lengthAdjust="spacing" textLength="85.6064" x="1277.7612" y="713.5332">EventListener</text><line style="stroke:#000000;stroke-width:1;" x1="1092.5" x2="1523.6289" y1="721.6094" y2="721.6094"/><ellipse cx="1102.5" cy="735.9141" fill="transparent" rx="3" ry="3" style="stroke:#000000;stroke-width:1;"/><text fill="#000000" font-family="Hack" font-size="14" lengthAdjust="spacing" textLength="187.5645" x="1108.5" y="740.1426">isCommandEnabled : boolean</text><line style="stroke:#000000;stroke-width:1;" x1="1092.5" x2="1523.6289" y1="747.2188" y2="747.2188"/><ellipse cx="1102.5" cy="761.5234" fill="#FFFFFF" rx="3" ry="3" style="stroke:#000000;stroke-width:1;"/><text fill="#000000" font-family="Hack" font-size="14" lengthAdjust="spacing" textLength="366.5293" x="1108.5" y="765.752">onMessageReceived(MessageReceivedEvent event) : void</text><ellipse cx="1102.5" cy="779.1328" fill="#FFFFFF" rx="3" ry="3" style="stroke:#000000;stroke-width:1;"/><text fill="#000000" font-family="Hack" font-size="14" lengthAdjust="spacing" textLength="410.1289" x="1108.5" y="783.3613">onMessageReactionAdd(MessageReactionAddEvent event) : void</text><ellipse cx="1102.5" cy="796.7422" fill="#FFFFFF" rx="3" ry="3" style="stroke:#000000;stroke-width:1;"/><text fill="#000000" font-family="Hack" font-size="14" lengthAdjust="spacing" textLength="284.8535" x="1108.5" y="800.9707">setCommandEnabled(boolean enabled) : void</text><ellipse cx="1102.5" cy="814.3516" fill="#FFFFFF" rx="3" ry="3" style="stroke:#000000;stroke-width:1;"/><text fill="#000000" font-family="Hack" font-size="14" lengthAdjust="spacing" textLength="196.8887" x="1108.5" y="818.5801">isCommandEnabled() : boolean</text></g><!--class GuiManager--><g id="elem_GuiManager"><rect codeLine="92" fill="#FFFFFF" height="78.8281" id="GuiManager" rx="2.5" ry="2.5" style="stroke:#000000;stroke-width:1;" width="141.2617" x="412.5" y="64.5"/><ellipse cx="441.6993" cy="78.3047" fill="#FFFFFF" rx="8" ry="8" style="stroke:#000000;stroke-width:1;"/><path d="M442.7774,75.6328 Q442.8556,75.5078 442.9649,75.4453 Q443.0899,75.3828 443.2149,75.3828 Q443.4337,75.3828 443.5743,75.5391 Q443.7149,75.6953 443.7149,76.0547 L443.7149,76.8984 Q443.7149,77.2578 443.5743,77.4141 Q443.4337,77.5703 443.2149,77.5703 Q443.0118,77.5703 442.8868,77.4609 Q442.7618,77.3516 442.6993,77.0391 Q442.6681,76.8359 442.5743,76.7266 Q442.3712,76.4922 442.0118,76.3672 Q441.6524,76.2422 441.2931,76.2422 Q440.8399,76.2422 440.4649,76.4453 Q440.0899,76.6328 439.7931,77.0703 Q439.5118,77.5078 439.5118,78.1172 L439.5118,78.7578 Q439.5118,79.4766 440.0274,79.9609 Q440.5587,80.4453 441.4962,80.4453 Q442.0587,80.4453 442.4337,80.3047 Q442.6681,80.2109 442.9181,79.9453 Q443.0743,79.7891 443.1524,79.7422 Q443.2462,79.6953 443.3556,79.6953 Q443.5587,79.6953 443.7149,79.8516 Q443.8712,80.0078 443.8712,80.2109 Q443.8712,80.4141 443.6524,80.6484 Q443.3556,80.9922 442.8868,81.1797 Q442.2618,81.4453 441.4962,81.4453 Q440.6056,81.4453 439.9024,81.0859 Q439.3243,80.7891 438.9181,80.1641 Q438.5118,79.5234 438.5118,78.7734 L438.5118,78.1016 Q438.5118,77.3203 438.8712,76.6484 Q439.2462,75.9609 439.8868,75.6016 Q440.5274,75.2422 441.2462,75.2422 Q441.6837,75.2422 442.0587,75.3359 Q442.4493,75.4297 442.7774,75.6328 Z " fill="#000000"/><text fill="#000000" font-family="Hack" font-size="14" lengthAdjust="spacing" textLength="77.041" x="456.5214" y="84.0332">GuiManager</text><line style="stroke:#000000;stroke-width:1;" x1="413.5" x2="552.7617" y1="92.1094" y2="92.1094"/><line style="stroke:#000000;stroke-width:1;" x1="413.5" x2="552.7617" y1="100.1094" y2="100.1094"/><ellipse cx="423.5" cy="114.4141" fill="#FFFFFF" rx="3" ry="3" style="stroke:#000000;stroke-width:1;"/><text fill="#000000" font-family="Hack" font-size="14" lengthAdjust="spacing" textLength="118.2617" x="429.5" y="118.6426">initializeGui() : void</text><ellipse cx="423.5" cy="132.0234" fill="#FFFFFF" rx="3" ry="3" style="stroke:#000000;stroke-width:1;"/><text fill="#000000" font-family="Hack" font-size="14" lengthAdjust="spacing" textLength="111.2822" x="429.5" y="136.252">updateGui() : void</text></g><!--class Main--><g id="elem_Main"><rect codeLine="96" fill="#FFFFFF" height="61.2188" id="Main" rx="2.5" ry="2.5" style="stroke:#000000;stroke-width:1;" width="175.4961" x="588.5" y="73.5"/><ellipse cx="657.5757" cy="87.3047" fill="#FFFFFF" rx="8" ry="8" style="stroke:#000000;stroke-width:1;"/><path d="M658.6538,84.6328 Q658.7319,84.5078 658.8413,84.4453 Q658.9663,84.3828 659.0913,84.3828 Q659.3101,84.3828 659.4507,84.5391 Q659.5913,84.6953 659.5913,85.0547 L659.5913,85.8984 Q659.5913,86.2578 659.4507,86.4141 Q659.3101,86.5703 659.0913,86.5703 Q658.8882,86.5703 658.7632,86.4609 Q658.6382,86.3516 658.5757,86.0391 Q658.5444,85.8359 658.4507,85.7266 Q658.2476,85.4922 657.8882,85.3672 Q657.5288,85.2422 657.1694,85.2422 Q656.7163,85.2422 656.3413,85.4453 Q655.9663,85.6328 655.6694,86.0703 Q655.3882,86.5078 655.3882,87.1172 L655.3882,87.7578 Q655.3882,88.4766 655.9038,88.9609 Q656.4351,89.4453 657.3726,89.4453 Q657.9351,89.4453 658.3101,89.3047 Q658.5444,89.2109 658.7944,88.9453 Q658.9507,88.7891 659.0288,88.7422 Q659.1226,88.6953 659.2319,88.6953 Q659.4351,88.6953 659.5913,88.8516 Q659.7476,89.0078 659.7476,89.2109 Q659.7476,89.4141 659.5288,89.6484 Q659.2319,89.9922 658.7632,90.1797 Q658.1382,90.4453 657.3726,90.4453 Q656.4819,90.4453 655.7788,90.0859 Q655.2007,89.7891 654.7944,89.1641 Q654.3882,88.5234 654.3882,87.7734 L654.3882,87.1016 Q654.3882,86.3203 654.7476,85.6484 Q655.1226,84.9609 655.7632,84.6016 Q656.4038,84.2422 657.1226,84.2422 Q657.5601,84.2422 657.9351,84.3359 Q658.3257,84.4297 658.6538,84.6328 Z " fill="#000000"/><text fill="#000000" font-family="Hack" font-size="14" lengthAdjust="spacing" textLength="30.3447" x="673.5757" y="93.0332">Main</text><line style="stroke:#000000;stroke-width:1;" x1="589.5" x2="762.9961" y1="101.1094" y2="101.1094"/><line style="stroke:#000000;stroke-width:1;" x1="589.5" x2="762.9961" y1="109.1094" y2="109.1094"/><ellipse cx="599.5" cy="123.4141" fill="#FFFFFF" rx="3" ry="3" style="stroke:#000000;stroke-width:1;"/><text fill="#000000" font-family="Hack" font-size="14" lengthAdjust="spacing" textLength="152.4961" x="605.5" y="127.6426">main(String[] args) : void</text></g><!--class UMLGenerator--><g id="elem_UMLGenerator"><rect codeLine="99" fill="#FFFFFF" height="378.1875" id="UMLGenerator" rx="2.5" ry="2.5" style="stroke:#000000;stroke-width:1;" width="385.5713" x="12" y="256"/><ellipse cx="154.9893" cy="269.8047" fill="#FFFFFF" rx="8" ry="8" style="stroke:#000000;stroke-width:1;"/><path d="M156.0674,267.1328 Q156.1455,267.0078 156.2549,266.9453 Q156.3799,266.8828 156.5049,266.8828 Q156.7236,266.8828 156.8643,267.0391 Q157.0049,267.1953 157.0049,267.5547 L157.0049,268.3984 Q157.0049,268.7578 156.8643,268.9141 Q156.7236,269.0703 156.5049,269.0703 Q156.3018,269.0703 156.1768,268.9609 Q156.0518,268.8516 155.9893,268.5391 Q155.958,268.3359 155.8643,268.2266 Q155.6611,267.9922 155.3018,267.8672 Q154.9424,267.7422 154.583,267.7422 Q154.1299,267.7422 153.7549,267.9453 Q153.3799,268.1328 153.083,268.5703 Q152.8018,269.0078 152.8018,269.6172 L152.8018,270.2578 Q152.8018,270.9766 153.3174,271.4609 Q153.8486,271.9453 154.7861,271.9453 Q155.3486,271.9453 155.7236,271.8047 Q155.958,271.7109 156.208,271.4453 Q156.3643,271.2891 156.4424,271.2422 Q156.5361,271.1953 156.6455,271.1953 Q156.8486,271.1953 157.0049,271.3516 Q157.1611,271.5078 157.1611,271.7109 Q157.1611,271.9141 156.9424,272.1484 Q156.6455,272.4922 156.1768,272.6797 Q155.5518,272.9453 154.7861,272.9453 Q153.8955,272.9453 153.1924,272.5859 Q152.6143,272.2891 152.208,271.6641 Q151.8018,271.0234 151.8018,270.2734 L151.8018,269.6016 Q151.8018,268.8203 152.1611,268.1484 Q152.5361,267.4609 153.1768,267.1016 Q153.8174,266.7422 154.5361,266.7422 Q154.9736,266.7422 155.3486,266.8359 Q155.7393,266.9297 156.0674,267.1328 Z " fill="#000000"/><text fill="#000000" font-family="Hack" font-size="14" lengthAdjust="spacing" textLength="92.5928" x="170.9893" y="275.5332">UMLGenerator</text><line style="stroke:#000000;stroke-width:1;" x1="13" x2="396.5713" y1="283.6094" y2="283.6094"/><rect fill="transparent" height="6" style="stroke:#000000;stroke-width:1;" width="6" x="20" y="294.9141"/><text fill="#000000" font-family="Hack" font-size="14" lengthAdjust="spacing" textLength="133.0615" x="29" y="302.1426">classes : List&lt;String&gt;</text><rect fill="transparent" height="6" style="stroke:#000000;stroke-width:1;" width="6" x="20" y="312.5234"/><text fill="#000000" font-family="Hack" font-size="14" lengthAdjust="spacing" textLength="164.9785" x="29" y="319.752">relationships : List&lt;String&gt;</text><rect fill="transparent" height="6" style="stroke:#000000;stroke-width:1;" width="6" x="20" y="330.1328"/><text fill="#000000" font-family="Hack" font-size="14" lengthAdjust="spacing" textLength="200.7646" x="29" y="337.3613">javaNativeClasses : Set&lt;String&gt;</text><rect fill="transparent" height="6" style="stroke:#000000;stroke-width:1;" width="6" x="20" y="347.7422"/><text fill="#000000" font-family="Hack" font-size="14" lengthAdjust="spacing" textLength="75.4893" x="29" y="354.9707">path : String</text><line style="stroke:#000000;stroke-width:1;" x1="13" x2="396.5713" y1="362.0469" y2="362.0469"/><ellipse cx="23" cy="376.3516" fill="#FFFFFF" rx="3" ry="3" style="stroke:#000000;stroke-width:1;"/><text fill="#000000" font-family="Hack" font-size="14" lengthAdjust="spacing" textLength="152.4961" x="29" y="380.5801">main(String[] args) : void</text><ellipse cx="23" cy="393.9609" fill="#FFFFFF" rx="3" ry="3" style="stroke:#000000;stroke-width:1;"/><text fill="#000000" font-family="Hack" font-size="14" lengthAdjust="spacing" textLength="134.6201" x="29" y="398.1895">run(String path) : void</text><rect fill="#FFFFFF" height="6" style="stroke:#000000;stroke-width:1;" width="6" x="20" y="408.5703"/><text fill="#000000" font-family="Hack" font-size="14" lengthAdjust="spacing" textLength="213.1719" x="29" y="415.7988">processDirectory(File folder) : void</text><rect fill="#FFFFFF" height="6" style="stroke:#000000;stroke-width:1;" width="6" x="20" y="426.1797"/><text fill="#000000" font-family="Hack" font-size="14" lengthAdjust="spacing" textLength="162.5996" x="29" y="433.4082">processFile(File file) : void</text><rect fill="#FFFFFF" height="6" style="stroke:#000000;stroke-width:1;" width="6" x="20" y="443.7891"/><text fill="#000000" font-family="Hack" font-size="14" lengthAdjust="spacing" textLength="262.9854" x="29" y="451.0176">processClasses(CompilationUnit cu) : void</text><rect fill="#FFFFFF" height="6" style="stroke:#000000;stroke-width:1;" width="6" x="20" y="461.3984"/><text fill="#000000" font-family="Hack" font-size="14" lengthAdjust="spacing" textLength="326.8125" x="29" y="468.627">processAtributes(List&lt;FieldDeclaration&gt; fields) : void</text><rect fill="#FFFFFF" height="6" style="stroke:#000000;stroke-width:1;" width="6" x="20" y="479.0078"/><text fill="#000000" font-family="Hack" font-size="14" lengthAdjust="spacing" textLength="361.0264" x="29" y="486.2363">processMethods(ClassOrInterfaceDeclaration clazz) : void</text><rect fill="#FFFFFF" height="6" style="stroke:#000000;stroke-width:1;" width="6" x="20" y="496.6172"/><text fill="#000000" font-family="Hack" font-size="14" lengthAdjust="spacing" textLength="297.2402" x="29" y="503.8457">processRelationships(CompilationUnit cu) : void</text><rect fill="#FFFFFF" height="6" style="stroke:#000000;stroke-width:1;" width="6" x="20" y="514.2266"/><text fill="#000000" font-family="Hack" font-size="14" lengthAdjust="spacing" textLength="246.6475" x="29" y="521.4551">extractGenericType(String type) : String</text><rect fill="#FFFFFF" height="6" style="stroke:#000000;stroke-width:1;" width="6" x="20" y="531.8359"/><text fill="#000000" font-family="Hack" font-size="14" lengthAdjust="spacing" textLength="294.8955" x="29" y="539.0645">isJavaNativeClass(String className) : boolean</text><rect fill="#FFFFFF" height="6" style="stroke:#000000;stroke-width:1;" width="6" x="20" y="549.4453"/><text fill="#000000" font-family="Hack" font-size="14" lengthAdjust="spacing" textLength="293.3232" x="29" y="556.6738">isClassInDirectory(String className) : boolean</text><rect fill="#FFFFFF" height="6" style="stroke:#000000;stroke-width:1;" width="6" x="20" y="567.0547"/><text fill="#000000" font-family="Hack" font-size="14" lengthAdjust="spacing" textLength="362.5713" x="29" y="574.2832">isClassInDirectory(File folder, String className) : boolean</text><rect fill="#FFFFFF" height="6" style="stroke:#000000;stroke-width:1;" width="6" x="20" y="584.6641"/><text fill="#000000" font-family="Hack" font-size="14" lengthAdjust="spacing" textLength="163.4131" x="29" y="591.8926">generatePlantUML() : void</text><rect fill="#FFFFFF" height="6" style="stroke:#000000;stroke-width:1;" width="6" x="20" y="602.2734"/><text fill="#000000" font-family="Hack" font-size="14" lengthAdjust="spacing" textLength="234.9854" x="29" y="609.502">generateImageFromPlantUML() : void</text><rect fill="#FFFFFF" height="6" style="stroke:#000000;stroke-width:1;" width="6" x="20" y="619.8828"/><text fill="#000000" font-family="Hack" font-size="14" lengthAdjust="spacing" textLength="210.8135" x="29" y="627.1113">createSkin(FileWriter writer) : void</text></g><!--class Utils--><g id="elem_Utils"><rect codeLine="120" fill="#FFFFFF" height="96.4375" id="Utils" rx="2.5" ry="2.5" style="stroke:#000000;stroke-width:1;" width="414.3848" x="433" y="397"/><ellipse cx="623.082" cy="410.8047" fill="#FFFFFF" rx="8" ry="8" style="stroke:#000000;stroke-width:1;"/><path d="M624.1602,408.1328 Q624.2383,408.0078 624.3477,407.9453 Q624.4727,407.8828 624.5977,407.8828 Q624.8164,407.8828 624.957,408.0391 Q625.0977,408.1953 625.0977,408.5547 L625.0977,409.3984 Q625.0977,409.7578 624.957,409.9141 Q624.8164,410.0703 624.5977,410.0703 Q624.3945,410.0703 624.2695,409.9609 Q624.1445,409.8516 624.082,409.5391 Q624.0508,409.3359 623.957,409.2266 Q623.7539,408.9922 623.3945,408.8672 Q623.0352,408.7422 622.6758,408.7422 Q622.2227,408.7422 621.8477,408.9453 Q621.4727,409.1328 621.1758,409.5703 Q620.8945,410.0078 620.8945,410.6172 L620.8945,411.2578 Q620.8945,411.9766 621.4102,412.4609 Q621.9414,412.9453 622.8789,412.9453 Q623.4414,412.9453 623.8164,412.8047 Q624.0508,412.7109 624.3008,412.4453 Q624.457,412.2891 624.5352,412.2422 Q624.6289,412.1953 624.7383,412.1953 Q624.9414,412.1953 625.0977,412.3516 Q625.2539,412.5078 625.2539,412.7109 Q625.2539,412.9141 625.0352,413.1484 Q624.7383,413.4922 624.2695,413.6797 Q623.6445,413.9453 622.8789,413.9453 Q621.9883,413.9453 621.2852,413.5859 Q620.707,413.2891 620.3008,412.6641 Q619.8945,412.0234 619.8945,411.2734 L619.8945,410.6016 Q619.8945,409.8203 620.2539,409.1484 Q620.6289,408.4609 621.2695,408.1016 Q621.9102,407.7422 622.6289,407.7422 Q623.0664,407.7422 623.4414,407.8359 Q623.832,407.9297 624.1602,408.1328 Z " fill="#000000"/><text fill="#000000" font-family="Hack" font-size="14" lengthAdjust="spacing" textLength="27.2207" x="639.082" y="416.5332">Utils</text><line style="stroke:#000000;stroke-width:1;" x1="434" x2="846.3848" y1="424.6094" y2="424.6094"/><line style="stroke:#000000;stroke-width:1;" x1="434" x2="846.3848" y1="432.6094" y2="432.6094"/><ellipse cx="444" cy="446.9141" fill="#FFFFFF" rx="3" ry="3" style="stroke:#000000;stroke-width:1;"/><text fill="#000000" font-family="Hack" font-size="14" lengthAdjust="spacing" textLength="232.668" x="450" y="451.1426">isValidUserId(String userId) : boolean</text><ellipse cx="444" cy="464.5234" fill="#FFFFFF" rx="3" ry="3" style="stroke:#000000;stroke-width:1;"/><text fill="#000000" font-family="Hack" font-size="14" lengthAdjust="spacing" textLength="391.3848" x="450" y="468.752">formatPenaltyMessage(String userName, String action) : String</text><ellipse cx="444" cy="482.1328" fill="#FFFFFF" rx="3" ry="3" style="stroke:#000000;stroke-width:1;"/><text fill="#000000" font-family="Hack" font-size="14" lengthAdjust="spacing" textLength="231.1094" x="450" y="486.3613">formatDuration(long duration) : String</text></g><!--link Bot to ModuleManager--><g id="link_Bot_ModuleManager"><path codeLine="125" d="M1033.5,161.08 C1033.5,218.52 1033.5,301.41 1033.5,364.41 " fill="transparent" id="Bot-to-ModuleManager" style="stroke:#000000;stroke-width:1;"/><polygon fill="#000000" points="1033.5,370.41,1037.5,361.41,1033.5,365.41,1029.5,361.41,1033.5,370.41" style="stroke:#000000;stroke-width:1;"/></g><!--reverse link Bot to ModuleManager--><g id="link_Bot_ModuleManager"><path codeLine="126" d="M1112.5,173.08 C1112.5,230.52 1112.5,307.41 1112.5,370.41 " fill="transparent" id="Bot-backto-ModuleManager" style="stroke:#000000;stroke-width:1;"/><polygon fill="transparent" points="1112.5,161.08,1108.5,167.08,1112.5,173.08,1116.5,167.08,1112.5,161.08" style="stroke:#000000;stroke-width:1;"/></g><!--link ModuleManager to EventListener--><g id="link_ModuleManager_EventListener"><path codeLine="127" d="M1177.5,519.65 C1177.5,572.59 1177.5,637 1177.5,687.91 " fill="transparent" id="ModuleManager-to-EventListener" style="stroke:#000000;stroke-width:1;stroke-dasharray:7.0,7.0;"/><polygon fill="#000000" points="1177.5,693.91,1181.5,684.91,1177.5,688.91,1173.5,684.91,1177.5,693.91" style="stroke:#000000;stroke-width:1;"/></g><!--link CommandManager to EventListener--><g id="link_CommandManager_EventListener"><path codeLine="128" d="M1411.5,493.18 C1411.5,546.87 1411.5,615.99 1411.5,675.99 " fill="transparent" id="CommandManager-to-EventListener" style="stroke:#000000;stroke-width:1;"/><polygon fill="transparent" points="1411.5,693.99,1417.5,675.99,1405.5,675.99,1411.5,693.99" style="stroke:#000000;stroke-width:1;"/></g><!--link CommandManager to ICommand--><g id="link_CommandManager_ICommand"><path codeLine="129" d="M1612.17,493.19 C1612.17,587.87 1612.17,789 1612.17,789 C1612.17,789 2123.23,789 2405.75,789 " fill="transparent" id="CommandManager-to-ICommand" style="stroke:#000000;stroke-width:1;"/><polygon fill="#000000" points="2411.75,789,2402.75,785,2406.75,789,2402.75,793,2411.75,789" style="stroke:#000000;stroke-width:1;"/></g><!--reverse link CommandManager to ICommand--><g id="link_CommandManager_ICommand"><path codeLine="130" d="M1699.83,505.18 C1699.83,593.43 1699.83,760 1699.83,760 C1699.83,760 2151.81,760 2412,760 " fill="transparent" id="CommandManager-backto-ICommand" style="stroke:#000000;stroke-width:1;"/><polygon fill="transparent" points="1699.83,493.18,1695.83,499.18,1699.83,505.18,1703.83,499.18,1699.83,493.18" style="stroke:#000000;stroke-width:1;"/></g><!--link ManageCommands to CommandManager--><g id="link_ManageCommands_CommandManager"><path codeLine="131" d="M1371.75,126.11 C1371.75,180.5 1371.75,303.78 1371.75,378.71 " fill="transparent" id="ManageCommands-to-CommandManager" style="stroke:#000000;stroke-width:1;"/><polygon fill="transparent" points="1371.75,396.71,1377.75,378.71,1365.75,378.71,1371.75,396.71" style="stroke:#000000;stroke-width:1;"/></g><!--link CreateRole to ICommand--><g id="link_CreateRole_ICommand"><path codeLine="132" d="M2002,502.05 C2002,585.74 2002,732 2002,732 C2002,732 2220.59,732 2393.88,732 " fill="transparent" id="CreateRole-to-ICommand" style="stroke:#000000;stroke-width:1;stroke-dasharray:7.0,7.0;"/><polygon fill="transparent" points="2411.88,732,2393.88,726,2393.88,738,2411.88,732" style="stroke:#000000;stroke-width:1;"/></g><!--link DeleteRole to ICommand--><g id="link_DeleteRole_ICommand"><path codeLine="133" d="M2493,502.04 C2493,558.96 2493,627.9 2493,684.85 " fill="transparent" id="DeleteRole-to-ICommand" style="stroke:#000000;stroke-width:1;stroke-dasharray:7.0,7.0;"/><polygon fill="transparent" points="2493,702.85,2499,684.85,2487,684.85,2493,702.85" style="stroke:#000000;stroke-width:1;"/></g><!--link Ban to ICommand--><g id="link_Ban_ICommand"><path codeLine="134" d="M2662.67,511.03 C2662.67,567.77 2662.67,630.74 2662.67,684.77 " fill="transparent" id="Ban-to-ICommand" style="stroke:#000000;stroke-width:1;stroke-dasharray:7.0,7.0;"/><polygon fill="transparent" points="2662.67,702.77,2668.67,684.77,2656.67,684.77,2662.67,702.77" style="stroke:#000000;stroke-width:1;"/></g><!--link Kick to ICommand--><g id="link_Kick_ICommand"><path codeLine="135" d="M3181,502.07 C3181,588.09 3181,741 3181,741 C3181,741 2961.64,741 2788.02,741 " fill="transparent" id="Kick-to-ICommand" style="stroke:#000000;stroke-width:1;stroke-dasharray:7.0,7.0;"/><polygon fill="transparent" points="2770.02,741,2788.02,747,2788.02,735,2770.02,741" style="stroke:#000000;stroke-width:1;"/></g><!--link Mute to ICommand--><g id="link_Mute_ICommand"><path codeLine="136" d="M3574,511.39 C3574,608.79 3574,779 3574,779 C3574,779 3071.69,779 2788.15,779 " fill="transparent" id="Mute-to-ICommand" style="stroke:#000000;stroke-width:1;stroke-dasharray:7.0,7.0;"/><polygon fill="transparent" points="2770.15,779,2788.15,785,2788.15,773,2770.15,779" style="stroke:#000000;stroke-width:1;"/></g><!--link ModCommands to CommandManager--><g id="link_ModCommands_CommandManager"><path codeLine="137" d="M1543,126.11 C1543,180.5 1543,303.78 1543,378.71 " fill="transparent" id="ModCommands-to-CommandManager" style="stroke:#000000;stroke-width:1;"/><polygon fill="transparent" points="1543,396.71,1549,378.71,1537,378.71,1543,396.71" style="stroke:#000000;stroke-width:1;"/></g><!--link Avatar to ICommand--><g id="link_Avatar_ICommand"><path codeLine="138" d="M3787.67,516 C3422.97,516 2716.33,516 2716.33,516 C2716.33,516 2716.33,612.67 2716.33,684.79 " fill="transparent" id="Avatar-to-ICommand" style="stroke:#000000;stroke-width:1;stroke-dasharray:7.0,7.0;"/><polygon fill="transparent" points="2716.33,702.79,2722.33,684.79,2710.33,684.79,2716.33,702.79" style="stroke:#000000;stroke-width:1;"/></g><!--link UserCommands to CommandManager--><g id="link_UserCommands_CommandManager"><path codeLine="139" d="M1704,126.11 C1704,180.5 1704,303.78 1704,378.71 " fill="transparent" id="UserCommands-to-CommandManager" style="stroke:#000000;stroke-width:1;"/><polygon fill="transparent" points="1704,396.71,1710,378.71,1698,378.71,1704,396.71" style="stroke:#000000;stroke-width:1;"/></g><!--SRC=[pLVRRXCn47tFLvYtHUtc0n2Ar3Oj2ZG5zG8FY0TdFKrClVRAzWRQmhyplkp6tgIj40ZwqiOpvzXpiMTcNzWLr41g9TN8t73PK4rh8hW4Uzi0KTgkKeN3LIkja69r2wDAK6F8eRBaVbGIePPBqEGLEVK_HdlaAwEuV3izmD-rOgs0EPKqWERf6lN6KcsB2wkvN1AhRa2-HDHQSJRwEUBIWhwc5P3PaQfhAXcUk4SaHKjUaK32DNo7ghLGNA1TgmYSEIgjB5VoU0tI4d1_-xtto1AinnTEbZAdrDAWFyDpWZgSz3DwdldWOn2yDCu_shmEy7r_xYat5YJe2MwfOUbMEl0xfvqt-oG3n_qIQq7I1HwvHKmWZ9idCTm4zR7VZWrH2wK4K1cy3qZZ0_2mLrrCOl0sGTaZLH2vg3Zywow7as7qlNQO0eTIye6K_awg-wnvquuwe-utfckW5ixHTP_B_tsxfY3W6PbpIEM_igCaM6yCNFAwlx-MXvk9bU1nCz_nwkPPn6kEXps3W4rRJTssJrQo7G_YO8sRwx_bH4aMBHSiR7fSBpPbXthHVjoTj0QqBpPW3BvK3-tOU0knt6JiXHSzplwZJ5xXZZkYuuWBQhBwtsgnuPVUbdJT8E-RqYoLLGhDzq53wL6_s6YAv1fGnZvW2n3sjaZSdR7U-oPeBx5zvxSdq3ZMyOpeGETWMc4lmBsiIYW3nLRDpBlIlUyWCIInXMHTGyaO_NEeWAynLuFrxakUqC8rEc09inVj9XkmkKL5j2VsJ9Qrlm4qRNgTpszQddOnBhdbLF0xG4MQaxPXs3OouQRLSEd9DVw8WV_yXL2zD5lOg_df6nTTQbMuIruCVTSCx0agD0Z_fCsADplKN_4vdI5W3KVz3fZS1D5GkqeVyoFMuR3ITZhFIvvperM5oPboZRTKwTlYX6ElkbQ2XHUOmvmo8dWoqlJwQ6o1cMbuSF0AGqwgTXjxWFOiiFoOmlj-ma6mAM30GgsRu14eCTl4EU14o_0GTzXxFUlcoeJiudvtjqqzJwF-k9NmtRewwDF9A_SM-weStsN_-hbvcwUhG_hidmtcCOVtg9dSHFst2KcQ-hhn07iPRYHy45HQlA55ucMdczNuHaxmgs0NgF8prGL-GlXZFscE4IVV_B_j9s2vCB6wVCIdngvyZTgkM9jASwrqJMDnkusb8iMV-Q6wwpE-WhnChtxWTqso40fXBAwoLk2-SifoClXkSL9LbWDf_bqm7a_o-ZaQpCXb-UD9nAJ_yXdgtF6zRZ3R-frp_2YPSiVZ7yc-oRoPAzpabqlya9MB_BWp42L3nIvBudYHax9ckuFr2m00]--></g></svg>