<svg xmlns="http://www.w3.org/2000/svg" xmlns:xlink="http://www.w3.org/1999/xlink" contentStyleType="text/css" data-diagram-type="CLASS" height="779px" preserveAspectRatio="none" style="width:4218px;height:779px;background:#FFFFFF;" version="1.1" viewBox="0 0 4218 779" width="4218px" zoomAndPan="magnify"><defs/><g><!--class Bot--><g id="elem_Bot"><rect codeLine="4" fill="#FFFFFF" height="114.0469" id="Bot" rx="2.5" ry="2.5" style="stroke:#000000;stroke-width:1;" width="237.0127" x="954.5" y="47"/><ellipse cx="1058.9995" cy="60.8047" fill="#FFFFFF" rx="8" ry="8" style="stroke:#000000;stroke-width:1;"/><path d="M1060.0776,58.1328 Q1060.1558,58.0078 1060.2651,57.9453 Q1060.3901,57.8828 1060.5151,57.8828 Q1060.7339,57.8828 1060.8745,58.0391 Q1061.0151,58.1953 1061.0151,58.5547 L1061.0151,59.3984 Q1061.0151,59.7578 1060.8745,59.9141 Q1060.7339,60.0703 1060.5151,60.0703 Q1060.312,60.0703 1060.187,59.9609 Q1060.062,59.8516 1059.9995,59.5391 Q1059.9683,59.3359 1059.8745,59.2266 Q1059.6714,58.9922 1059.312,58.8672 Q1058.9526,58.7422 1058.5933,58.7422 Q1058.1401,58.7422 1057.7651,58.9453 Q1057.3901,59.1328 1057.0933,59.5703 Q1056.812,60.0078 1056.812,60.6172 L1056.812,61.2578 Q1056.812,61.9766 1057.3276,62.4609 Q1057.8589,62.9453 1058.7964,62.9453 Q1059.3589,62.9453 1059.7339,62.8047 Q1059.9683,62.7109 1060.2183,62.4453 Q1060.3745,62.2891 1060.4526,62.2422 Q1060.5464,62.1953 1060.6558,62.1953 Q1060.8589,62.1953 1061.0151,62.3516 Q1061.1714,62.5078 1061.1714,62.7109 Q1061.1714,62.9141 1060.9526,63.1484 Q1060.6558,63.4922 1060.187,63.6797 Q1059.562,63.9453 1058.7964,63.9453 Q1057.9058,63.9453 1057.2026,63.5859 Q1056.6245,63.2891 1056.2183,62.6641 Q1055.812,62.0234 1055.812,61.2734 L1055.812,60.6016 Q1055.812,59.8203 1056.1714,59.1484 Q1056.5464,58.4609 1057.187,58.1016 Q1057.8276,57.7422 1058.5464,57.7422 Q1058.9839,57.7422 1059.3589,57.8359 Q1059.7495,57.9297 1060.0776,58.1328 Z " fill="#000000"/><text fill="#000000" font-family="Hack" font-size="14" lengthAdjust="spacing" textLength="21.0137" x="1074.9995" y="66.5332">Bot</text><line style="stroke:#000000;stroke-width:1;" x1="955.5" x2="1190.5127" y1="74.6094" y2="74.6094"/><rect fill="transparent" height="6" style="stroke:#000000;stroke-width:1;" width="6" x="962.5" y="85.9141"/><text fill="#000000" font-family="Hack" font-size="14" lengthAdjust="spacing" textLength="94.1787" x="971.5" y="93.1426">logger : Logger</text><ellipse cx="965.5" cy="106.5234" fill="transparent" rx="3" ry="3" style="stroke:#000000;stroke-width:1;"/><text fill="#000000" font-family="Hack" font-size="14" lengthAdjust="spacing" textLength="56.7998" x="971.5" y="110.752">jda : JDA</text><ellipse cx="965.5" cy="124.1328" fill="transparent" rx="3" ry="3" style="stroke:#000000;stroke-width:1;"/><text fill="#000000" font-family="Hack" font-size="14" lengthAdjust="spacing" textLength="214.0127" x="971.5" y="128.3613">moduleManager : ModuleManager</text><line style="stroke:#000000;stroke-width:1;" x1="955.5" x2="1190.5127" y1="135.4375" y2="135.4375"/><ellipse cx="965.5" cy="149.7422" fill="#FFFFFF" rx="3" ry="3" style="stroke:#000000;stroke-width:1;"/><text fill="#000000" font-family="Hack" font-size="14" lengthAdjust="spacing" textLength="148.6133" x="971.5" y="153.9707">start(String token) : void</text></g><!--class ICommand--><g id="elem_ICommand"><rect codeLine="10" fill="#FFFFFF" height="114.0469" id="ICommand" rx="2.5" ry="2.5" style="stroke:#000000;stroke-width:1;" width="357.6191" x="2412" y="650"/><ellipse cx="2553.0752" cy="663.8047" fill="#FFFFFF" rx="8" ry="8" style="stroke:#000000;stroke-width:1;"/><path d="M2554.0752,661.8828 L2554.0752,665.8047 L2555.0908,665.8047 Q2555.4502,665.8047 2555.6064,665.9453 Q2555.7627,666.0859 2555.7627,666.3047 Q2555.7627,666.5234 2555.6064,666.6641 Q2555.4502,666.8047 2555.0908,666.8047 L2552.0596,666.8047 Q2551.7002,666.8047 2551.5439,666.6641 Q2551.4033,666.5234 2551.4033,666.3047 Q2551.4033,666.0859 2551.5439,665.9453 Q2551.7002,665.8047 2552.0596,665.8047 L2553.0752,665.8047 L2553.0752,661.8828 L2552.0596,661.8828 Q2551.7002,661.8828 2551.5439,661.7422 Q2551.4033,661.6016 2551.4033,661.3828 Q2551.4033,661.1641 2551.5439,661.0234 Q2551.7002,660.8828 2552.0596,660.8828 L2555.0908,660.8828 Q2555.4502,660.8828 2555.6064,661.0234 Q2555.7627,661.1641 2555.7627,661.3828 Q2555.7627,661.6016 2555.6064,661.7422 Q2555.4502,661.8828 2555.0908,661.8828 L2554.0752,661.8828 Z " fill="#000000"/><text fill="#000000" font-family="Hack" font-size="14" font-style="italic" lengthAdjust="spacing" textLength="68.4688" x="2569.0752" y="669.5332">ICommand</text><line style="stroke:#000000;stroke-width:1;" x1="2413" x2="2768.6191" y1="677.6094" y2="677.6094"/><ellipse cx="2423" cy="691.9141" fill="transparent" rx="3" ry="3" style="stroke:#000000;stroke-width:1;"/><text fill="#000000" font-family="Hack" font-size="14" lengthAdjust="spacing" textLength="83.2617" x="2429" y="696.1426">name : String</text><line style="stroke:#000000;stroke-width:1;" x1="2413" x2="2768.6191" y1="703.2188" y2="703.2188"/><ellipse cx="2423" cy="717.5234" fill="#FFFFFF" rx="3" ry="3" style="stroke:#000000;stroke-width:1;"/><text fill="#000000" font-family="Hack" font-size="14" lengthAdjust="spacing" textLength="334.6191" x="2429" y="721.752">execute(SlashCommandInteractionEvent event) : void</text><ellipse cx="2423" cy="735.1328" fill="#FFFFFF" rx="3" ry="3" style="stroke:#000000;stroke-width:1;"/><text fill="#000000" font-family="Hack" font-size="14" lengthAdjust="spacing" textLength="204.6475" x="2429" y="739.3613">getSlash() : SlashCommandData</text><ellipse cx="2423" cy="752.7422" fill="#FFFFFF" rx="3" ry="3" style="stroke:#000000;stroke-width:1;"/><text fill="#000000" font-family="Hack" font-size="14" lengthAdjust="spacing" textLength="114.3721" x="2429" y="756.9707">getName() : String</text></g><!--class ModuleManager--><g id="elem_ModuleManager"><rect codeLine="16" fill="#FFFFFF" height="149.2656" id="ModuleManager" rx="2.5" ry="2.5" style="stroke:#000000;stroke-width:1;" width="380.9502" x="882.5" y="344"/><ellipse cx="1018.8892" cy="357.8047" fill="#FFFFFF" rx="8" ry="8" style="stroke:#000000;stroke-width:1;"/><path d="M1019.9673,355.1328 Q1020.0454,355.0078 1020.1548,354.9453 Q1020.2798,354.8828 1020.4048,354.8828 Q1020.6235,354.8828 1020.7642,355.0391 Q1020.9048,355.1953 1020.9048,355.5547 L1020.9048,356.3984 Q1020.9048,356.7578 1020.7642,356.9141 Q1020.6235,357.0703 1020.4048,357.0703 Q1020.2017,357.0703 1020.0767,356.9609 Q1019.9517,356.8516 1019.8892,356.5391 Q1019.8579,356.3359 1019.7642,356.2266 Q1019.561,355.9922 1019.2017,355.8672 Q1018.8423,355.7422 1018.4829,355.7422 Q1018.0298,355.7422 1017.6548,355.9453 Q1017.2798,356.1328 1016.9829,356.5703 Q1016.7017,357.0078 1016.7017,357.6172 L1016.7017,358.2578 Q1016.7017,358.9766 1017.2173,359.4609 Q1017.7485,359.9453 1018.686,359.9453 Q1019.2485,359.9453 1019.6235,359.8047 Q1019.8579,359.7109 1020.1079,359.4453 Q1020.2642,359.2891 1020.3423,359.2422 Q1020.436,359.1953 1020.5454,359.1953 Q1020.7485,359.1953 1020.9048,359.3516 Q1021.061,359.5078 1021.061,359.7109 Q1021.061,359.9141 1020.8423,360.1484 Q1020.5454,360.4922 1020.0767,360.6797 Q1019.4517,360.9453 1018.686,360.9453 Q1017.7954,360.9453 1017.0923,360.5859 Q1016.5142,360.2891 1016.1079,359.6641 Q1015.7017,359.0234 1015.7017,358.2734 L1015.7017,357.6016 Q1015.7017,356.8203 1016.061,356.1484 Q1016.436,355.4609 1017.0767,355.1016 Q1017.7173,354.7422 1018.436,354.7422 Q1018.8735,354.7422 1019.2485,354.8359 Q1019.6392,354.9297 1019.9673,355.1328 Z " fill="#000000"/><text fill="#000000" font-family="Hack" font-size="14" lengthAdjust="spacing" textLength="101.1719" x="1034.8892" y="363.5332">ModuleManager</text><line style="stroke:#000000;stroke-width:1;" x1="883.5" x2="1262.4502" y1="371.6094" y2="371.6094"/><rect fill="transparent" height="6" style="stroke:#000000;stroke-width:1;" width="6" x="890.5" y="382.9141"/><text fill="#000000" font-family="Hack" font-size="14" lengthAdjust="spacing" textLength="234.2402" x="899.5" y="390.1426">modules : Map&lt;String,EventListener&gt;</text><line style="stroke:#000000;stroke-width:1;" x1="883.5" x2="1262.4502" y1="397.2188" y2="397.2188"/><ellipse cx="893.5" cy="411.5234" fill="#FFFFFF" rx="3" ry="3" style="stroke:#000000;stroke-width:1;"/><text fill="#000000" font-family="Hack" font-size="14" lengthAdjust="spacing" textLength="357.9502" x="899.5" y="415.752">registerModule(String name, EventListener module) : void</text><ellipse cx="893.5" cy="429.1328" fill="#FFFFFF" rx="3" ry="3" style="stroke:#000000;stroke-width:1;"/><text fill="#000000" font-family="Hack" font-size="14" lengthAdjust="spacing" textLength="210.1162" x="899.5" y="433.3613">enableModule(String name) : void</text><ellipse cx="893.5" cy="446.7422" fill="#FFFFFF" rx="3" ry="3" style="stroke:#000000;stroke-width:1;"/><text fill="#000000" font-family="Hack" font-size="14" lengthAdjust="spacing" textLength="212.4404" x="899.5" y="450.9707">disableModule(String name) : void</text><ellipse cx="893.5" cy="464.3516" fill="#FFFFFF" rx="3" ry="3" style="stroke:#000000;stroke-width:1;"/><text fill="#000000" font-family="Hack" font-size="14" lengthAdjust="spacing" textLength="253.709" x="899.5" y="468.5801">isModuleEnabled(String name) : boolean</text><ellipse cx="893.5" cy="481.9609" fill="#FFFFFF" rx="3" ry="3" style="stroke:#000000;stroke-width:1;"/><text fill="#000000" font-family="Hack" font-size="14" lengthAdjust="spacing" textLength="263.0264" x="899.5" y="486.1895">getModules() : Map&lt;String,EventListener&gt;</text></g><!--class CommandManager--><g id="elem_CommandManager"><rect codeLine="24" fill="#FFFFFF" height="96.4375" id="CommandManager" rx="2.5" ry="2.5" style="stroke:#000000;stroke-width:1;" width="489.1289" x="1298.5" y="370.5"/><ellipse cx="1479.6475" cy="384.3047" fill="#FFFFFF" rx="8" ry="8" style="stroke:#000000;stroke-width:1;"/><path d="M1480.7256,381.6328 Q1480.8037,381.5078 1480.9131,381.4453 Q1481.0381,381.3828 1481.1631,381.3828 Q1481.3818,381.3828 1481.5225,381.5391 Q1481.6631,381.6953 1481.6631,382.0547 L1481.6631,382.8984 Q1481.6631,383.2578 1481.5225,383.4141 Q1481.3818,383.5703 1481.1631,383.5703 Q1480.96,383.5703 1480.835,383.4609 Q1480.71,383.3516 1480.6475,383.0391 Q1480.6162,382.8359 1480.5225,382.7266 Q1480.3193,382.4922 1479.96,382.3672 Q1479.6006,382.2422 1479.2412,382.2422 Q1478.7881,382.2422 1478.4131,382.4453 Q1478.0381,382.6328 1477.7412,383.0703 Q1477.46,383.5078 1477.46,384.1172 L1477.46,384.7578 Q1477.46,385.4766 1477.9756,385.9609 Q1478.5068,386.4453 1479.4443,386.4453 Q1480.0068,386.4453 1480.3818,386.3047 Q1480.6162,386.2109 1480.8662,385.9453 Q1481.0225,385.7891 1481.1006,385.7422 Q1481.1943,385.6953 1481.3037,385.6953 Q1481.5068,385.6953 1481.6631,385.8516 Q1481.8193,386.0078 1481.8193,386.2109 Q1481.8193,386.4141 1481.6006,386.6484 Q1481.3037,386.9922 1480.835,387.1797 Q1480.21,387.4453 1479.4443,387.4453 Q1478.5537,387.4453 1477.8506,387.0859 Q1477.2725,386.7891 1476.8662,386.1641 Q1476.46,385.5234 1476.46,384.7734 L1476.46,384.1016 Q1476.46,383.3203 1476.8193,382.6484 Q1477.1943,381.9609 1477.835,381.6016 Q1478.4756,381.2422 1479.1943,381.2422 Q1479.6318,381.2422 1480.0068,381.3359 Q1480.3975,381.4297 1480.7256,381.6328 Z " fill="#000000"/><text fill="#000000" font-family="Hack" font-size="14" lengthAdjust="spacing" textLength="119.834" x="1495.6475" y="390.0332">CommandManager</text><line style="stroke:#000000;stroke-width:1;" x1="1299.5" x2="1786.6289" y1="398.1094" y2="398.1094"/><ellipse cx="1309.5" cy="412.4141" fill="transparent" rx="3" ry="3" style="stroke:#000000;stroke-width:1;"/><text fill="#000000" font-family="Hack" font-size="14" lengthAdjust="spacing" textLength="186.7441" x="1315.5" y="416.6426">commands : List&lt;ICommand&gt;</text><line style="stroke:#000000;stroke-width:1;" x1="1299.5" x2="1786.6289" y1="423.7188" y2="423.7188"/><ellipse cx="1309.5" cy="438.0234" fill="#FFFFFF" rx="3" ry="3" style="stroke:#000000;stroke-width:1;"/><text fill="#000000" font-family="Hack" font-size="14" lengthAdjust="spacing" textLength="242.7852" x="1315.5" y="442.252">getSlash() : List&lt;SlashCommandData&gt;</text><ellipse cx="1309.5" cy="455.6328" fill="#FFFFFF" rx="3" ry="3" style="stroke:#000000;stroke-width:1;"/><text fill="#000000" font-family="Hack" font-size="14" lengthAdjust="spacing" textLength="466.1289" x="1315.5" y="459.8613">onSlashCommandInteraction(SlashCommandInteractionEvent event) : void</text></g><!--class ManageCommands--><g id="elem_ManageCommands"><rect codeLine="29" fill="#FFFFFF" height="43.6094" id="ManageCommands" rx="2.5" ry="2.5" style="stroke:#000000;stroke-width:1;" width="148.1719" x="1297" y="82"/><ellipse cx="1309" cy="95.8047" fill="#FFFFFF" rx="8" ry="8" style="stroke:#000000;stroke-width:1;"/><path d="M1310.0781,93.1328 Q1310.1563,93.0078 1310.2656,92.9453 Q1310.3906,92.8828 1310.5156,92.8828 Q1310.7344,92.8828 1310.875,93.0391 Q1311.0156,93.1953 1311.0156,93.5547 L1311.0156,94.3984 Q1311.0156,94.7578 1310.875,94.9141 Q1310.7344,95.0703 1310.5156,95.0703 Q1310.3125,95.0703 1310.1875,94.9609 Q1310.0625,94.8516 1310,94.5391 Q1309.9688,94.3359 1309.875,94.2266 Q1309.6719,93.9922 1309.3125,93.8672 Q1308.9531,93.7422 1308.5938,93.7422 Q1308.1406,93.7422 1307.7656,93.9453 Q1307.3906,94.1328 1307.0938,94.5703 Q1306.8125,95.0078 1306.8125,95.6172 L1306.8125,96.2578 Q1306.8125,96.9766 1307.3281,97.4609 Q1307.8594,97.9453 1308.7969,97.9453 Q1309.3594,97.9453 1309.7344,97.8047 Q1309.9688,97.7109 1310.2188,97.4453 Q1310.375,97.2891 1310.4531,97.2422 Q1310.5469,97.1953 1310.6563,97.1953 Q1310.8594,97.1953 1311.0156,97.3516 Q1311.1719,97.5078 1311.1719,97.7109 Q1311.1719,97.9141 1310.9531,98.1484 Q1310.6563,98.4922 1310.1875,98.6797 Q1309.5625,98.9453 1308.7969,98.9453 Q1307.9063,98.9453 1307.2031,98.5859 Q1306.625,98.2891 1306.2188,97.6641 Q1305.8125,97.0234 1305.8125,96.2734 L1305.8125,95.6016 Q1305.8125,94.8203 1306.1719,94.1484 Q1306.5469,93.4609 1307.1875,93.1016 Q1307.8281,92.7422 1308.5469,92.7422 Q1308.9844,92.7422 1309.3594,92.8359 Q1309.75,92.9297 1310.0781,93.1328 Z " fill="#000000"/><text fill="#000000" font-family="Hack" font-size="14" lengthAdjust="spacing" textLength="122.1719" x="1320" y="101.5332">ManageCommands</text><line style="stroke:#000000;stroke-width:1;" x1="1298" x2="1444.1719" y1="109.6094" y2="109.6094"/><line style="stroke:#000000;stroke-width:1;" x1="1298" x2="1444.1719" y1="117.6094" y2="117.6094"/></g><!--class CreateRole--><g id="elem_CreateRole"><rect codeLine="31" fill="#FFFFFF" height="114.0469" id="CreateRole" rx="2.5" ry="2.5" style="stroke:#000000;stroke-width:1;" width="357.6191" x="1823" y="361.5"/><ellipse cx="1962.9028" cy="375.3047" fill="#FFFFFF" rx="8" ry="8" style="stroke:#000000;stroke-width:1;"/><path d="M1963.981,372.6328 Q1964.0591,372.5078 1964.1685,372.4453 Q1964.2935,372.3828 1964.4185,372.3828 Q1964.6372,372.3828 1964.7778,372.5391 Q1964.9185,372.6953 1964.9185,373.0547 L1964.9185,373.8984 Q1964.9185,374.2578 1964.7778,374.4141 Q1964.6372,374.5703 1964.4185,374.5703 Q1964.2153,374.5703 1964.0903,374.4609 Q1963.9653,374.3516 1963.9028,374.0391 Q1963.8716,373.8359 1963.7778,373.7266 Q1963.5747,373.4922 1963.2153,373.3672 Q1962.856,373.2422 1962.4966,373.2422 Q1962.0435,373.2422 1961.6685,373.4453 Q1961.2935,373.6328 1960.9966,374.0703 Q1960.7153,374.5078 1960.7153,375.1172 L1960.7153,375.7578 Q1960.7153,376.4766 1961.231,376.9609 Q1961.7622,377.4453 1962.6997,377.4453 Q1963.2622,377.4453 1963.6372,377.3047 Q1963.8716,377.2109 1964.1216,376.9453 Q1964.2778,376.7891 1964.356,376.7422 Q1964.4497,376.6953 1964.5591,376.6953 Q1964.7622,376.6953 1964.9185,376.8516 Q1965.0747,377.0078 1965.0747,377.2109 Q1965.0747,377.4141 1964.856,377.6484 Q1964.5591,377.9922 1964.0903,378.1797 Q1963.4653,378.4453 1962.6997,378.4453 Q1961.8091,378.4453 1961.106,378.0859 Q1960.5278,377.7891 1960.1216,377.1641 Q1959.7153,376.5234 1959.7153,375.7734 L1959.7153,375.1016 Q1959.7153,374.3203 1960.0747,373.6484 Q1960.4497,372.9609 1961.0903,372.6016 Q1961.731,372.2422 1962.4497,372.2422 Q1962.8872,372.2422 1963.2622,372.3359 Q1963.6528,372.4297 1963.981,372.6328 Z " fill="#000000"/><text fill="#000000" font-family="Hack" font-size="14" lengthAdjust="spacing" textLength="70.8135" x="1978.9028" y="381.0332">CreateRole</text><line style="stroke:#000000;stroke-width:1;" x1="1824" x2="2179.6191" y1="389.1094" y2="389.1094"/><rect fill="transparent" height="6" style="stroke:#000000;stroke-width:1;" width="6" x="1831" y="400.4141"/><text fill="#000000" font-family="Hack" font-size="14" lengthAdjust="spacing" textLength="83.2617" x="1840" y="407.6426">name : String</text><line style="stroke:#000000;stroke-width:1;" x1="1824" x2="2179.6191" y1="414.7188" y2="414.7188"/><ellipse cx="1834" cy="429.0234" fill="#FFFFFF" rx="3" ry="3" style="stroke:#000000;stroke-width:1;"/><text fill="#000000" font-family="Hack" font-size="14" lengthAdjust="spacing" textLength="334.6191" x="1840" y="433.252">execute(SlashCommandInteractionEvent event) : void</text><ellipse cx="1834" cy="446.6328" fill="#FFFFFF" rx="3" ry="3" style="stroke:#000000;stroke-width:1;"/><text fill="#000000" font-family="Hack" font-size="14" lengthAdjust="spacing" textLength="204.6475" x="1840" y="450.8613">getSlash() : SlashCommandData</text><ellipse cx="1834" cy="464.2422" fill="#FFFFFF" rx="3" ry="3" style="stroke:#000000;stroke-width:1;"/><text fill="#000000" font-family="Hack" font-size="14" lengthAdjust="spacing" textLength="114.3721" x="1840" y="468.4707">getName() : String</text></g><!--class DeleteRole--><g id="elem_DeleteRole"><rect codeLine="37" fill="#FFFFFF" height="114.0469" id="DeleteRole" rx="2.5" ry="2.5" style="stroke:#000000;stroke-width:1;" width="357.6191" x="2216" y="361.5"/><ellipse cx="2356.6787" cy="375.3047" fill="#FFFFFF" rx="8" ry="8" style="stroke:#000000;stroke-width:1;"/><path d="M2357.7568,372.6328 Q2357.835,372.5078 2357.9443,372.4453 Q2358.0693,372.3828 2358.1943,372.3828 Q2358.4131,372.3828 2358.5537,372.5391 Q2358.6943,372.6953 2358.6943,373.0547 L2358.6943,373.8984 Q2358.6943,374.2578 2358.5537,374.4141 Q2358.4131,374.5703 2358.1943,374.5703 Q2357.9912,374.5703 2357.8662,374.4609 Q2357.7412,374.3516 2357.6787,374.0391 Q2357.6475,373.8359 2357.5537,373.7266 Q2357.3506,373.4922 2356.9912,373.3672 Q2356.6318,373.2422 2356.2725,373.2422 Q2355.8193,373.2422 2355.4443,373.4453 Q2355.0693,373.6328 2354.7725,374.0703 Q2354.4912,374.5078 2354.4912,375.1172 L2354.4912,375.7578 Q2354.4912,376.4766 2355.0068,376.9609 Q2355.5381,377.4453 2356.4756,377.4453 Q2357.0381,377.4453 2357.4131,377.3047 Q2357.6475,377.2109 2357.8975,376.9453 Q2358.0537,376.7891 2358.1318,376.7422 Q2358.2256,376.6953 2358.335,376.6953 Q2358.5381,376.6953 2358.6943,376.8516 Q2358.8506,377.0078 2358.8506,377.2109 Q2358.8506,377.4141 2358.6318,377.6484 Q2358.335,377.9922 2357.8662,378.1797 Q2357.2412,378.4453 2356.4756,378.4453 Q2355.585,378.4453 2354.8818,378.0859 Q2354.3037,377.7891 2353.8975,377.1641 Q2353.4912,376.5234 2353.4912,375.7734 L2353.4912,375.1016 Q2353.4912,374.3203 2353.8506,373.6484 Q2354.2256,372.9609 2354.8662,372.6016 Q2355.5068,372.2422 2356.2256,372.2422 Q2356.6631,372.2422 2357.0381,372.3359 Q2357.4287,372.4297 2357.7568,372.6328 Z " fill="#000000"/><text fill="#000000" font-family="Hack" font-size="14" lengthAdjust="spacing" textLength="69.2617" x="2372.6787" y="381.0332">DeleteRole</text><line style="stroke:#000000;stroke-width:1;" x1="2217" x2="2572.6191" y1="389.1094" y2="389.1094"/><rect fill="transparent" height="6" style="stroke:#000000;stroke-width:1;" width="6" x="2224" y="400.4141"/><text fill="#000000" font-family="Hack" font-size="14" lengthAdjust="spacing" textLength="83.2617" x="2233" y="407.6426">name : String</text><line style="stroke:#000000;stroke-width:1;" x1="2217" x2="2572.6191" y1="414.7188" y2="414.7188"/><ellipse cx="2227" cy="429.0234" fill="#FFFFFF" rx="3" ry="3" style="stroke:#000000;stroke-width:1;"/><text fill="#000000" font-family="Hack" font-size="14" lengthAdjust="spacing" textLength="334.6191" x="2233" y="433.252">execute(SlashCommandInteractionEvent event) : void</text><ellipse cx="2227" cy="446.6328" fill="#FFFFFF" rx="3" ry="3" style="stroke:#000000;stroke-width:1;"/><text fill="#000000" font-family="Hack" font-size="14" lengthAdjust="spacing" textLength="204.6475" x="2233" y="450.8613">getSlash() : SlashCommandData</text><ellipse cx="2227" cy="464.2422" fill="#FFFFFF" rx="3" ry="3" style="stroke:#000000;stroke-width:1;"/><text fill="#000000" font-family="Hack" font-size="14" lengthAdjust="spacing" textLength="114.3721" x="2233" y="468.4707">getName() : String</text></g><!--class Ban--><g id="elem_Ban"><rect codeLine="43" fill="#FFFFFF" height="131.6563" id="Ban" rx="2.5" ry="2.5" style="stroke:#000000;stroke-width:1;" width="357.6191" x="2609" y="352.5"/><ellipse cx="2771.8545" cy="366.3047" fill="#FFFFFF" rx="8" ry="8" style="stroke:#000000;stroke-width:1;"/><path d="M2772.9326,363.6328 Q2773.0107,363.5078 2773.1201,363.4453 Q2773.2451,363.3828 2773.3701,363.3828 Q2773.5889,363.3828 2773.7295,363.5391 Q2773.8701,363.6953 2773.8701,364.0547 L2773.8701,364.8984 Q2773.8701,365.2578 2773.7295,365.4141 Q2773.5889,365.5703 2773.3701,365.5703 Q2773.167,365.5703 2773.042,365.4609 Q2772.917,365.3516 2772.8545,365.0391 Q2772.8232,364.8359 2772.7295,364.7266 Q2772.5264,364.4922 2772.167,364.3672 Q2771.8076,364.2422 2771.4482,364.2422 Q2770.9951,364.2422 2770.6201,364.4453 Q2770.2451,364.6328 2769.9482,365.0703 Q2769.667,365.5078 2769.667,366.1172 L2769.667,366.7578 Q2769.667,367.4766 2770.1826,367.9609 Q2770.7139,368.4453 2771.6514,368.4453 Q2772.2139,368.4453 2772.5889,368.3047 Q2772.8232,368.2109 2773.0732,367.9453 Q2773.2295,367.7891 2773.3076,367.7422 Q2773.4014,367.6953 2773.5107,367.6953 Q2773.7139,367.6953 2773.8701,367.8516 Q2774.0264,368.0078 2774.0264,368.2109 Q2774.0264,368.4141 2773.8076,368.6484 Q2773.5107,368.9922 2773.042,369.1797 Q2772.417,369.4453 2771.6514,369.4453 Q2770.7607,369.4453 2770.0576,369.0859 Q2769.4795,368.7891 2769.0732,368.1641 Q2768.667,367.5234 2768.667,366.7734 L2768.667,366.1016 Q2768.667,365.3203 2769.0264,364.6484 Q2769.4014,363.9609 2770.042,363.6016 Q2770.6826,363.2422 2771.4014,363.2422 Q2771.8389,363.2422 2772.2139,363.3359 Q2772.6045,363.4297 2772.9326,363.6328 Z " fill="#000000"/><text fill="#000000" font-family="Hack" font-size="14" lengthAdjust="spacing" textLength="24.9102" x="2787.8545" y="372.0332">Ban</text><line style="stroke:#000000;stroke-width:1;" x1="2610" x2="2965.6191" y1="380.1094" y2="380.1094"/><rect fill="transparent" height="6" style="stroke:#000000;stroke-width:1;" width="6" x="2617" y="391.4141"/><text fill="#000000" font-family="Hack" font-size="14" lengthAdjust="spacing" textLength="83.2617" x="2626" y="398.6426">name : String</text><line style="stroke:#000000;stroke-width:1;" x1="2610" x2="2965.6191" y1="405.7188" y2="405.7188"/><ellipse cx="2620" cy="420.0234" fill="#FFFFFF" rx="3" ry="3" style="stroke:#000000;stroke-width:1;"/><text fill="#000000" font-family="Hack" font-size="14" lengthAdjust="spacing" textLength="334.6191" x="2626" y="424.252">execute(SlashCommandInteractionEvent event) : void</text><ellipse cx="2620" cy="437.6328" fill="#FFFFFF" rx="3" ry="3" style="stroke:#000000;stroke-width:1;"/><text fill="#000000" font-family="Hack" font-size="14" lengthAdjust="spacing" textLength="204.6475" x="2626" y="441.8613">getSlash() : SlashCommandData</text><rect fill="#FFFFFF" height="6" style="stroke:#000000;stroke-width:1;" width="6" x="2617" y="452.2422"/><text fill="#000000" font-family="Hack" font-size="14" lengthAdjust="spacing" textLength="168.8203" x="2626" y="459.4707">parseTime(String time) : int</text><ellipse cx="2620" cy="472.8516" fill="#FFFFFF" rx="3" ry="3" style="stroke:#000000;stroke-width:1;"/><text fill="#000000" font-family="Hack" font-size="14" lengthAdjust="spacing" textLength="114.3721" x="2626" y="477.0801">getName() : String</text></g><!--class Kick--><g id="elem_Kick"><rect codeLine="50" fill="#FFFFFF" height="114.0469" id="Kick" rx="2.5" ry="2.5" style="stroke:#000000;stroke-width:1;" width="357.6191" x="3002" y="361.5"/><ellipse cx="3164.0854" cy="375.3047" fill="#FFFFFF" rx="8" ry="8" style="stroke:#000000;stroke-width:1;"/><path d="M3165.1636,372.6328 Q3165.2417,372.5078 3165.3511,372.4453 Q3165.4761,372.3828 3165.6011,372.3828 Q3165.8198,372.3828 3165.9604,372.5391 Q3166.1011,372.6953 3166.1011,373.0547 L3166.1011,373.8984 Q3166.1011,374.2578 3165.9604,374.4141 Q3165.8198,374.5703 3165.6011,374.5703 Q3165.3979,374.5703 3165.2729,374.4609 Q3165.1479,374.3516 3165.0854,374.0391 Q3165.0542,373.8359 3164.9604,373.7266 Q3164.7573,373.4922 3164.3979,373.3672 Q3164.0386,373.2422 3163.6792,373.2422 Q3163.2261,373.2422 3162.8511,373.4453 Q3162.4761,373.6328 3162.1792,374.0703 Q3161.8979,374.5078 3161.8979,375.1172 L3161.8979,375.7578 Q3161.8979,376.4766 3162.4136,376.9609 Q3162.9448,377.4453 3163.8823,377.4453 Q3164.4448,377.4453 3164.8198,377.3047 Q3165.0542,377.2109 3165.3042,376.9453 Q3165.4604,376.7891 3165.5386,376.7422 Q3165.6323,376.6953 3165.7417,376.6953 Q3165.9448,376.6953 3166.1011,376.8516 Q3166.2573,377.0078 3166.2573,377.2109 Q3166.2573,377.4141 3166.0386,377.6484 Q3165.7417,377.9922 3165.2729,378.1797 Q3164.6479,378.4453 3163.8823,378.4453 Q3162.9917,378.4453 3162.2886,378.0859 Q3161.7104,377.7891 3161.3042,377.1641 Q3160.8979,376.5234 3160.8979,375.7734 L3160.8979,375.1016 Q3160.8979,374.3203 3161.2573,373.6484 Q3161.6323,372.9609 3162.2729,372.6016 Q3162.9136,372.2422 3163.6323,372.2422 Q3164.0698,372.2422 3164.4448,372.3359 Q3164.8354,372.4297 3165.1636,372.6328 Z " fill="#000000"/><text fill="#000000" font-family="Hack" font-size="14" lengthAdjust="spacing" textLength="26.4482" x="3180.0854" y="381.0332">Kick</text><line style="stroke:#000000;stroke-width:1;" x1="3003" x2="3358.6191" y1="389.1094" y2="389.1094"/><rect fill="transparent" height="6" style="stroke:#000000;stroke-width:1;" width="6" x="3010" y="400.4141"/><text fill="#000000" font-family="Hack" font-size="14" lengthAdjust="spacing" textLength="83.2617" x="3019" y="407.6426">name : String</text><line style="stroke:#000000;stroke-width:1;" x1="3003" x2="3358.6191" y1="414.7188" y2="414.7188"/><ellipse cx="3013" cy="429.0234" fill="#FFFFFF" rx="3" ry="3" style="stroke:#000000;stroke-width:1;"/><text fill="#000000" font-family="Hack" font-size="14" lengthAdjust="spacing" textLength="334.6191" x="3019" y="433.252">execute(SlashCommandInteractionEvent event) : void</text><ellipse cx="3013" cy="446.6328" fill="#FFFFFF" rx="3" ry="3" style="stroke:#000000;stroke-width:1;"/><text fill="#000000" font-family="Hack" font-size="14" lengthAdjust="spacing" textLength="204.6475" x="3019" y="450.8613">getSlash() : SlashCommandData</text><ellipse cx="3013" cy="464.2422" fill="#FFFFFF" rx="3" ry="3" style="stroke:#000000;stroke-width:1;"/><text fill="#000000" font-family="Hack" font-size="14" lengthAdjust="spacing" textLength="114.3721" x="3019" y="468.4707">getName() : String</text></g><!--class Mute--><g id="elem_Mute"><rect codeLine="56" fill="#FFFFFF" height="131.6563" id="Mute" rx="2.5" ry="2.5" style="stroke:#000000;stroke-width:1;" width="357.6191" x="3395" y="352.5"/><ellipse cx="3554.7476" cy="366.3047" fill="#FFFFFF" rx="8" ry="8" style="stroke:#000000;stroke-width:1;"/><path d="M3555.8257,363.6328 Q3555.9038,363.5078 3556.0132,363.4453 Q3556.1382,363.3828 3556.2632,363.3828 Q3556.4819,363.3828 3556.6226,363.5391 Q3556.7632,363.6953 3556.7632,364.0547 L3556.7632,364.8984 Q3556.7632,365.2578 3556.6226,365.4141 Q3556.4819,365.5703 3556.2632,365.5703 Q3556.0601,365.5703 3555.9351,365.4609 Q3555.8101,365.3516 3555.7476,365.0391 Q3555.7163,364.8359 3555.6226,364.7266 Q3555.4194,364.4922 3555.0601,364.3672 Q3554.7007,364.2422 3554.3413,364.2422 Q3553.8882,364.2422 3553.5132,364.4453 Q3553.1382,364.6328 3552.8413,365.0703 Q3552.5601,365.5078 3552.5601,366.1172 L3552.5601,366.7578 Q3552.5601,367.4766 3553.0757,367.9609 Q3553.6069,368.4453 3554.5444,368.4453 Q3555.1069,368.4453 3555.4819,368.3047 Q3555.7163,368.2109 3555.9663,367.9453 Q3556.1226,367.7891 3556.2007,367.7422 Q3556.2944,367.6953 3556.4038,367.6953 Q3556.6069,367.6953 3556.7632,367.8516 Q3556.9194,368.0078 3556.9194,368.2109 Q3556.9194,368.4141 3556.7007,368.6484 Q3556.4038,368.9922 3555.9351,369.1797 Q3555.3101,369.4453 3554.5444,369.4453 Q3553.6538,369.4453 3552.9507,369.0859 Q3552.3726,368.7891 3551.9663,368.1641 Q3551.5601,367.5234 3551.5601,366.7734 L3551.5601,366.1016 Q3551.5601,365.3203 3551.9194,364.6484 Q3552.2944,363.9609 3552.9351,363.6016 Q3553.5757,363.2422 3554.2944,363.2422 Q3554.7319,363.2422 3555.1069,363.3359 Q3555.4976,363.4297 3555.8257,363.6328 Z " fill="#000000"/><text fill="#000000" font-family="Hack" font-size="14" lengthAdjust="spacing" textLength="31.124" x="3570.7476" y="372.0332">Mute</text><line style="stroke:#000000;stroke-width:1;" x1="3396" x2="3751.6191" y1="380.1094" y2="380.1094"/><rect fill="transparent" height="6" style="stroke:#000000;stroke-width:1;" width="6" x="3403" y="391.4141"/><text fill="#000000" font-family="Hack" font-size="14" lengthAdjust="spacing" textLength="83.2617" x="3412" y="398.6426">name : String</text><line style="stroke:#000000;stroke-width:1;" x1="3396" x2="3751.6191" y1="405.7188" y2="405.7188"/><ellipse cx="3406" cy="420.0234" fill="#FFFFFF" rx="3" ry="3" style="stroke:#000000;stroke-width:1;"/><text fill="#000000" font-family="Hack" font-size="14" lengthAdjust="spacing" textLength="334.6191" x="3412" y="424.252">execute(SlashCommandInteractionEvent event) : void</text><ellipse cx="3406" cy="437.6328" fill="#FFFFFF" rx="3" ry="3" style="stroke:#000000;stroke-width:1;"/><text fill="#000000" font-family="Hack" font-size="14" lengthAdjust="spacing" textLength="204.6475" x="3412" y="441.8613">getSlash() : SlashCommandData</text><rect fill="#FFFFFF" height="6" style="stroke:#000000;stroke-width:1;" width="6" x="3403" y="452.2422"/><text fill="#000000" font-family="Hack" font-size="14" lengthAdjust="spacing" textLength="206.9512" x="3412" y="459.4707">parseTime(String time) : Duration</text><ellipse cx="3406" cy="472.8516" fill="#FFFFFF" rx="3" ry="3" style="stroke:#000000;stroke-width:1;"/><text fill="#000000" font-family="Hack" font-size="14" lengthAdjust="spacing" textLength="114.3721" x="3412" y="477.0801">getName() : String</text></g><!--class ModCommands--><g id="elem_ModCommands"><rect codeLine="63" fill="#FFFFFF" height="43.6094" id="ModCommands" rx="2.5" ry="2.5" style="stroke:#000000;stroke-width:1;" width="124.8135" x="1480.5" y="82"/><ellipse cx="1492.5" cy="95.8047" fill="#FFFFFF" rx="8" ry="8" style="stroke:#000000;stroke-width:1;"/><path d="M1493.5781,93.1328 Q1493.6563,93.0078 1493.7656,92.9453 Q1493.8906,92.8828 1494.0156,92.8828 Q1494.2344,92.8828 1494.375,93.0391 Q1494.5156,93.1953 1494.5156,93.5547 L1494.5156,94.3984 Q1494.5156,94.7578 1494.375,94.9141 Q1494.2344,95.0703 1494.0156,95.0703 Q1493.8125,95.0703 1493.6875,94.9609 Q1493.5625,94.8516 1493.5,94.5391 Q1493.4688,94.3359 1493.375,94.2266 Q1493.1719,93.9922 1492.8125,93.8672 Q1492.4531,93.7422 1492.0938,93.7422 Q1491.6406,93.7422 1491.2656,93.9453 Q1490.8906,94.1328 1490.5938,94.5703 Q1490.3125,95.0078 1490.3125,95.6172 L1490.3125,96.2578 Q1490.3125,96.9766 1490.8281,97.4609 Q1491.3594,97.9453 1492.2969,97.9453 Q1492.8594,97.9453 1493.2344,97.8047 Q1493.4688,97.7109 1493.7188,97.4453 Q1493.875,97.2891 1493.9531,97.2422 Q1494.0469,97.1953 1494.1563,97.1953 Q1494.3594,97.1953 1494.5156,97.3516 Q1494.6719,97.5078 1494.6719,97.7109 Q1494.6719,97.9141 1494.4531,98.1484 Q1494.1563,98.4922 1493.6875,98.6797 Q1493.0625,98.9453 1492.2969,98.9453 Q1491.4063,98.9453 1490.7031,98.5859 Q1490.125,98.2891 1489.7188,97.6641 Q1489.3125,97.0234 1489.3125,96.2734 L1489.3125,95.6016 Q1489.3125,94.8203 1489.6719,94.1484 Q1490.0469,93.4609 1490.6875,93.1016 Q1491.3281,92.7422 1492.0469,92.7422 Q1492.4844,92.7422 1492.8594,92.8359 Q1493.25,92.9297 1493.5781,93.1328 Z " fill="#000000"/><text fill="#000000" font-family="Hack" font-size="14" lengthAdjust="spacing" textLength="98.8135" x="1503.5" y="101.5332">ModCommands</text><line style="stroke:#000000;stroke-width:1;" x1="1481.5" x2="1604.3135" y1="109.6094" y2="109.6094"/><line style="stroke:#000000;stroke-width:1;" x1="1481.5" x2="1604.3135" y1="117.6094" y2="117.6094"/></g><!--class Avatar--><g id="elem_Avatar"><rect codeLine="65" fill="#FFFFFF" height="149.2656" id="Avatar" rx="2.5" ry="2.5" style="stroke:#000000;stroke-width:1;" width="423.7705" x="3788" y="344"/><ellipse cx="3976.1543" cy="357.8047" fill="#FFFFFF" rx="8" ry="8" style="stroke:#000000;stroke-width:1;"/><path d="M3977.2324,355.1328 Q3977.3105,355.0078 3977.4199,354.9453 Q3977.5449,354.8828 3977.6699,354.8828 Q3977.8887,354.8828 3978.0293,355.0391 Q3978.1699,355.1953 3978.1699,355.5547 L3978.1699,356.3984 Q3978.1699,356.7578 3978.0293,356.9141 Q3977.8887,357.0703 3977.6699,357.0703 Q3977.4668,357.0703 3977.3418,356.9609 Q3977.2168,356.8516 3977.1543,356.5391 Q3977.123,356.3359 3977.0293,356.2266 Q3976.8262,355.9922 3976.4668,355.8672 Q3976.1074,355.7422 3975.748,355.7422 Q3975.2949,355.7422 3974.9199,355.9453 Q3974.5449,356.1328 3974.248,356.5703 Q3973.9668,357.0078 3973.9668,357.6172 L3973.9668,358.2578 Q3973.9668,358.9766 3974.4824,359.4609 Q3975.0137,359.9453 3975.9512,359.9453 Q3976.5137,359.9453 3976.8887,359.8047 Q3977.123,359.7109 3977.373,359.4453 Q3977.5293,359.2891 3977.6074,359.2422 Q3977.7012,359.1953 3977.8105,359.1953 Q3978.0137,359.1953 3978.1699,359.3516 Q3978.3262,359.5078 3978.3262,359.7109 Q3978.3262,359.9141 3978.1074,360.1484 Q3977.8105,360.4922 3977.3418,360.6797 Q3976.7168,360.9453 3975.9512,360.9453 Q3975.0605,360.9453 3974.3574,360.5859 Q3973.7793,360.2891 3973.373,359.6641 Q3972.9668,359.0234 3972.9668,358.2734 L3972.9668,357.6016 Q3972.9668,356.8203 3973.3262,356.1484 Q3973.7012,355.4609 3974.3418,355.1016 Q3974.9824,354.7422 3975.7012,354.7422 Q3976.1387,354.7422 3976.5137,354.8359 Q3976.9043,354.9297 3977.2324,355.1328 Z " fill="#000000"/><text fill="#000000" font-family="Hack" font-size="14" lengthAdjust="spacing" textLength="40.4619" x="3992.1543" y="363.5332">Avatar</text><line style="stroke:#000000;stroke-width:1;" x1="3789" x2="4210.7705" y1="371.6094" y2="371.6094"/><rect fill="transparent" height="6" style="stroke:#000000;stroke-width:1;" width="6" x="3796" y="382.9141"/><text fill="#000000" font-family="Hack" font-size="14" lengthAdjust="spacing" textLength="83.2617" x="3805" y="390.1426">name : String</text><line style="stroke:#000000;stroke-width:1;" x1="3789" x2="4210.7705" y1="397.2188" y2="397.2188"/><ellipse cx="3799" cy="411.5234" fill="#FFFFFF" rx="3" ry="3" style="stroke:#000000;stroke-width:1;"/><text fill="#000000" font-family="Hack" font-size="14" lengthAdjust="spacing" textLength="334.6191" x="3805" y="415.752">execute(SlashCommandInteractionEvent event) : void</text><rect fill="#FFFFFF" height="6" style="stroke:#000000;stroke-width:1;" width="6" x="3796" y="426.1328"/><text fill="#000000" font-family="Hack" font-size="14" lengthAdjust="spacing" textLength="391.4053" x="3805" y="433.3613">buildAvatarEmbed(String avatar, String user) : MessageEmbed</text><rect fill="#FFFFFF" height="6" style="stroke:#000000;stroke-width:1;" width="6" x="3796" y="443.7422"/><text fill="#000000" font-family="Hack" font-size="14" lengthAdjust="spacing" textLength="400.7705" x="3805" y="450.9707">buildBannerEmbed(String banner, String user) : MessageEmbed</text><ellipse cx="3799" cy="464.3516" fill="#FFFFFF" rx="3" ry="3" style="stroke:#000000;stroke-width:1;"/><text fill="#000000" font-family="Hack" font-size="14" lengthAdjust="spacing" textLength="204.6475" x="3805" y="468.5801">getSlash() : SlashCommandData</text><ellipse cx="3799" cy="481.9609" fill="#FFFFFF" rx="3" ry="3" style="stroke:#000000;stroke-width:1;"/><text fill="#000000" font-family="Hack" font-size="14" lengthAdjust="spacing" textLength="114.3721" x="3805" y="486.1895">getName() : String</text></g><!--class UserCommands--><g id="elem_UserCommands"><rect codeLine="73" fill="#FFFFFF" height="43.6094" id="UserCommands" rx="2.5" ry="2.5" style="stroke:#000000;stroke-width:1;" width="127.1377" x="1640.5" y="82"/><ellipse cx="1652.5" cy="95.8047" fill="#FFFFFF" rx="8" ry="8" style="stroke:#000000;stroke-width:1;"/><path d="M1653.5781,93.1328 Q1653.6563,93.0078 1653.7656,92.9453 Q1653.8906,92.8828 1654.0156,92.8828 Q1654.2344,92.8828 1654.375,93.0391 Q1654.5156,93.1953 1654.5156,93.5547 L1654.5156,94.3984 Q1654.5156,94.7578 1654.375,94.9141 Q1654.2344,95.0703 1654.0156,95.0703 Q1653.8125,95.0703 1653.6875,94.9609 Q1653.5625,94.8516 1653.5,94.5391 Q1653.4688,94.3359 1653.375,94.2266 Q1653.1719,93.9922 1652.8125,93.8672 Q1652.4531,93.7422 1652.0938,93.7422 Q1651.6406,93.7422 1651.2656,93.9453 Q1650.8906,94.1328 1650.5938,94.5703 Q1650.3125,95.0078 1650.3125,95.6172 L1650.3125,96.2578 Q1650.3125,96.9766 1650.8281,97.4609 Q1651.3594,97.9453 1652.2969,97.9453 Q1652.8594,97.9453 1653.2344,97.8047 Q1653.4688,97.7109 1653.7188,97.4453 Q1653.875,97.2891 1653.9531,97.2422 Q1654.0469,97.1953 1654.1563,97.1953 Q1654.3594,97.1953 1654.5156,97.3516 Q1654.6719,97.5078 1654.6719,97.7109 Q1654.6719,97.9141 1654.4531,98.1484 Q1654.1563,98.4922 1653.6875,98.6797 Q1653.0625,98.9453 1652.2969,98.9453 Q1651.4063,98.9453 1650.7031,98.5859 Q1650.125,98.2891 1649.7188,97.6641 Q1649.3125,97.0234 1649.3125,96.2734 L1649.3125,95.6016 Q1649.3125,94.8203 1649.6719,94.1484 Q1650.0469,93.4609 1650.6875,93.1016 Q1651.3281,92.7422 1652.0469,92.7422 Q1652.4844,92.7422 1652.8594,92.8359 Q1653.25,92.9297 1653.5781,93.1328 Z " fill="#000000"/><text fill="#000000" font-family="Hack" font-size="14" lengthAdjust="spacing" textLength="101.1377" x="1663.5" y="101.5332">UserCommands</text><line style="stroke:#000000;stroke-width:1;" x1="1641.5" x2="1766.6377" y1="109.6094" y2="109.6094"/><line style="stroke:#000000;stroke-width:1;" x1="1641.5" x2="1766.6377" y1="117.6094" y2="117.6094"/></g><!--class DatabaseManager--><g id="elem_DatabaseManager"><rect codeLine="75" fill="#FFFFFF" height="184.4844" id="DatabaseManager" rx="2.5" ry="2.5" style="stroke:#000000;stroke-width:1;" width="343.6123" x="33" y="12"/><ellipse cx="143.7134" cy="25.8047" fill="#FFFFFF" rx="8" ry="8" style="stroke:#000000;stroke-width:1;"/><path d="M144.7915,23.1328 Q144.8696,23.0078 144.979,22.9453 Q145.104,22.8828 145.229,22.8828 Q145.4478,22.8828 145.5884,23.0391 Q145.729,23.1953 145.729,23.5547 L145.729,24.3984 Q145.729,24.7578 145.5884,24.9141 Q145.4478,25.0703 145.229,25.0703 Q145.0259,25.0703 144.9009,24.9609 Q144.7759,24.8516 144.7134,24.5391 Q144.6821,24.3359 144.5884,24.2266 Q144.3853,23.9922 144.0259,23.8672 Q143.6665,23.7422 143.3071,23.7422 Q142.854,23.7422 142.479,23.9453 Q142.104,24.1328 141.8071,24.5703 Q141.5259,25.0078 141.5259,25.6172 L141.5259,26.2578 Q141.5259,26.9766 142.0415,27.4609 Q142.5728,27.9453 143.5103,27.9453 Q144.0728,27.9453 144.4478,27.8047 Q144.6821,27.7109 144.9321,27.4453 Q145.0884,27.2891 145.1665,27.2422 Q145.2603,27.1953 145.3696,27.1953 Q145.5728,27.1953 145.729,27.3516 Q145.8853,27.5078 145.8853,27.7109 Q145.8853,27.9141 145.6665,28.1484 Q145.3696,28.4922 144.9009,28.6797 Q144.2759,28.9453 143.5103,28.9453 Q142.6196,28.9453 141.9165,28.5859 Q141.3384,28.2891 140.9321,27.6641 Q140.5259,27.0234 140.5259,26.2734 L140.5259,25.6016 Q140.5259,24.8203 140.8853,24.1484 Q141.2603,23.4609 141.9009,23.1016 Q142.5415,22.7422 143.2603,22.7422 Q143.6978,22.7422 144.0728,22.8359 Q144.4634,22.9297 144.7915,23.1328 Z " fill="#000000"/><text fill="#000000" font-family="Hack" font-size="14" lengthAdjust="spacing" textLength="115.1855" x="159.7134" y="31.5332">DatabaseManager</text><line style="stroke:#000000;stroke-width:1;" x1="34" x2="375.6123" y1="39.6094" y2="39.6094"/><rect fill="transparent" height="6" style="stroke:#000000;stroke-width:1;" width="6" x="41" y="50.9141"/><text fill="#000000" font-family="Hack" font-size="14" lengthAdjust="spacing" textLength="63.7998" x="50" y="58.1426">url : String</text><rect fill="transparent" height="6" style="stroke:#000000;stroke-width:1;" width="6" x="41" y="68.5234"/><text fill="#000000" font-family="Hack" font-size="14" lengthAdjust="spacing" textLength="75.4756" x="50" y="75.752">user : String</text><rect fill="transparent" height="6" style="stroke:#000000;stroke-width:1;" width="6" x="41" y="86.1328"/><text fill="#000000" font-family="Hack" font-size="14" lengthAdjust="spacing" textLength="108.1582" x="50" y="93.3613">password : String</text><rect fill="transparent" height="6" style="stroke:#000000;stroke-width:1;" width="6" x="41" y="103.7422"/><text fill="#000000" font-family="Hack" font-size="14" lengthAdjust="spacing" textLength="150.2129" x="50" y="110.9707">connection : Connection</text><line style="stroke:#000000;stroke-width:1;" x1="34" x2="375.6123" y1="118.0469" y2="118.0469"/><rect fill="#FFFFFF" height="6" style="stroke:#000000;stroke-width:1;" width="6" x="41" y="129.3516"/><text fill="#000000" font-family="Hack" font-size="14" lengthAdjust="spacing" textLength="95.71" x="50" y="136.5801">connect() : void</text><ellipse cx="44" cy="149.9609" fill="#FFFFFF" rx="3" ry="3" style="stroke:#000000;stroke-width:1;"/><text fill="#000000" font-family="Hack" font-size="14" lengthAdjust="spacing" textLength="320.6123" x="50" y="154.1895">addPenalty(String userId, String penaltyType) : void</text><ellipse cx="44" cy="167.5703" fill="#FFFFFF" rx="3" ry="3" style="stroke:#000000;stroke-width:1;"/><text fill="#000000" font-family="Hack" font-size="14" lengthAdjust="spacing" textLength="238.1162" x="50" y="171.7988">getPenalties(String userId) : ResultSet</text><ellipse cx="44" cy="185.1797" fill="#FFFFFF" rx="3" ry="3" style="stroke:#000000;stroke-width:1;"/><text fill="#000000" font-family="Hack" font-size="14" lengthAdjust="spacing" textLength="79.3584" x="50" y="189.4082">close() : void</text></g><!--class EventListener--><g id="elem_EventListener"><rect codeLine="85" fill="#FFFFFF" height="131.6563" id="EventListener" rx="2.5" ry="2.5" style="stroke:#000000;stroke-width:1;" width="433.1289" x="1091.5" y="641"/><ellipse cx="1261.7612" cy="654.8047" fill="#FFFFFF" rx="8" ry="8" style="stroke:#000000;stroke-width:1;"/><path d="M1262.8394,652.1328 Q1262.9175,652.0078 1263.0269,651.9453 Q1263.1519,651.8828 1263.2769,651.8828 Q1263.4956,651.8828 1263.6362,652.0391 Q1263.7769,652.1953 1263.7769,652.5547 L1263.7769,653.3984 Q1263.7769,653.7578 1263.6362,653.9141 Q1263.4956,654.0703 1263.2769,654.0703 Q1263.0737,654.0703 1262.9487,653.9609 Q1262.8237,653.8516 1262.7612,653.5391 Q1262.73,653.3359 1262.6362,653.2266 Q1262.4331,652.9922 1262.0737,652.8672 Q1261.7144,652.7422 1261.355,652.7422 Q1260.9019,652.7422 1260.5269,652.9453 Q1260.1519,653.1328 1259.855,653.5703 Q1259.5737,654.0078 1259.5737,654.6172 L1259.5737,655.2578 Q1259.5737,655.9766 1260.0894,656.4609 Q1260.6206,656.9453 1261.5581,656.9453 Q1262.1206,656.9453 1262.4956,656.8047 Q1262.73,656.7109 1262.98,656.4453 Q1263.1362,656.2891 1263.2144,656.2422 Q1263.3081,656.1953 1263.4175,656.1953 Q1263.6206,656.1953 1263.7769,656.3516 Q1263.9331,656.5078 1263.9331,656.7109 Q1263.9331,656.9141 1263.7144,657.1484 Q1263.4175,657.4922 1262.9487,657.6797 Q1262.3237,657.9453 1261.5581,657.9453 Q1260.6675,657.9453 1259.9644,657.5859 Q1259.3862,657.2891 1258.98,656.6641 Q1258.5737,656.0234 1258.5737,655.2734 L1258.5737,654.6016 Q1258.5737,653.8203 1258.9331,653.1484 Q1259.3081,652.4609 1259.9487,652.1016 Q1260.5894,651.7422 1261.3081,651.7422 Q1261.7456,651.7422 1262.1206,651.8359 Q1262.5112,651.9297 1262.8394,652.1328 Z " fill="#000000"/><text fill="#000000" font-family="Hack" font-size="14" lengthAdjust="spacing" textLength="85.6064" x="1277.7612" y="660.5332">EventListener</text><line style="stroke:#000000;stroke-width:1;" x1="1092.5" x2="1523.6289" y1="668.6094" y2="668.6094"/><ellipse cx="1102.5" cy="682.9141" fill="transparent" rx="3" ry="3" style="stroke:#000000;stroke-width:1;"/><text fill="#000000" font-family="Hack" font-size="14" lengthAdjust="spacing" textLength="187.5645" x="1108.5" y="687.1426">isCommandEnabled : boolean</text><line style="stroke:#000000;stroke-width:1;" x1="1092.5" x2="1523.6289" y1="694.2188" y2="694.2188"/><ellipse cx="1102.5" cy="708.5234" fill="#FFFFFF" rx="3" ry="3" style="stroke:#000000;stroke-width:1;"/><text fill="#000000" font-family="Hack" font-size="14" lengthAdjust="spacing" textLength="366.5293" x="1108.5" y="712.752">onMessageReceived(MessageReceivedEvent event) : void</text><ellipse cx="1102.5" cy="726.1328" fill="#FFFFFF" rx="3" ry="3" style="stroke:#000000;stroke-width:1;"/><text fill="#000000" font-family="Hack" font-size="14" lengthAdjust="spacing" textLength="410.1289" x="1108.5" y="730.3613">onMessageReactionAdd(MessageReactionAddEvent event) : void</text><ellipse cx="1102.5" cy="743.7422" fill="#FFFFFF" rx="3" ry="3" style="stroke:#000000;stroke-width:1;"/><text fill="#000000" font-family="Hack" font-size="14" lengthAdjust="spacing" textLength="284.8535" x="1108.5" y="747.9707">setCommandEnabled(boolean enabled) : void</text><ellipse cx="1102.5" cy="761.3516" fill="#FFFFFF" rx="3" ry="3" style="stroke:#000000;stroke-width:1;"/><text fill="#000000" font-family="Hack" font-size="14" lengthAdjust="spacing" textLength="196.8887" x="1108.5" y="765.5801">isCommandEnabled() : boolean</text></g><!--class GuiManager--><g id="elem_GuiManager"><rect codeLine="92" fill="#FFFFFF" height="78.8281" id="GuiManager" rx="2.5" ry="2.5" style="stroke:#000000;stroke-width:1;" width="141.2617" x="412.5" y="64.5"/><ellipse cx="441.6993" cy="78.3047" fill="#FFFFFF" rx="8" ry="8" style="stroke:#000000;stroke-width:1;"/><path d="M442.7774,75.6328 Q442.8556,75.5078 442.9649,75.4453 Q443.0899,75.3828 443.2149,75.3828 Q443.4337,75.3828 443.5743,75.5391 Q443.7149,75.6953 443.7149,76.0547 L443.7149,76.8984 Q443.7149,77.2578 443.5743,77.4141 Q443.4337,77.5703 443.2149,77.5703 Q443.0118,77.5703 442.8868,77.4609 Q442.7618,77.3516 442.6993,77.0391 Q442.6681,76.8359 442.5743,76.7266 Q442.3712,76.4922 442.0118,76.3672 Q441.6524,76.2422 441.2931,76.2422 Q440.8399,76.2422 440.4649,76.4453 Q440.0899,76.6328 439.7931,77.0703 Q439.5118,77.5078 439.5118,78.1172 L439.5118,78.7578 Q439.5118,79.4766 440.0274,79.9609 Q440.5587,80.4453 441.4962,80.4453 Q442.0587,80.4453 442.4337,80.3047 Q442.6681,80.2109 442.9181,79.9453 Q443.0743,79.7891 443.1524,79.7422 Q443.2462,79.6953 443.3556,79.6953 Q443.5587,79.6953 443.7149,79.8516 Q443.8712,80.0078 443.8712,80.2109 Q443.8712,80.4141 443.6524,80.6484 Q443.3556,80.9922 442.8868,81.1797 Q442.2618,81.4453 441.4962,81.4453 Q440.6056,81.4453 439.9024,81.0859 Q439.3243,80.7891 438.9181,80.1641 Q438.5118,79.5234 438.5118,78.7734 L438.5118,78.1016 Q438.5118,77.3203 438.8712,76.6484 Q439.2462,75.9609 439.8868,75.6016 Q440.5274,75.2422 441.2462,75.2422 Q441.6837,75.2422 442.0587,75.3359 Q442.4493,75.4297 442.7774,75.6328 Z " fill="#000000"/><text fill="#000000" font-family="Hack" font-size="14" lengthAdjust="spacing" textLength="77.041" x="456.5214" y="84.0332">GuiManager</text><line style="stroke:#000000;stroke-width:1;" x1="413.5" x2="552.7617" y1="92.1094" y2="92.1094"/><line style="stroke:#000000;stroke-width:1;" x1="413.5" x2="552.7617" y1="100.1094" y2="100.1094"/><ellipse cx="423.5" cy="114.4141" fill="#FFFFFF" rx="3" ry="3" style="stroke:#000000;stroke-width:1;"/><text fill="#000000" font-family="Hack" font-size="14" lengthAdjust="spacing" textLength="118.2617" x="429.5" y="118.6426">initializeGui() : void</text><ellipse cx="423.5" cy="132.0234" fill="#FFFFFF" rx="3" ry="3" style="stroke:#000000;stroke-width:1;"/><text fill="#000000" font-family="Hack" font-size="14" lengthAdjust="spacing" textLength="111.2822" x="429.5" y="136.252">updateGui() : void</text></g><!--class Main--><g id="elem_Main"><rect codeLine="96" fill="#FFFFFF" height="61.2188" id="Main" rx="2.5" ry="2.5" style="stroke:#000000;stroke-width:1;" width="175.4961" x="588.5" y="73.5"/><ellipse cx="657.5757" cy="87.3047" fill="#FFFFFF" rx="8" ry="8" style="stroke:#000000;stroke-width:1;"/><path d="M658.6538,84.6328 Q658.7319,84.5078 658.8413,84.4453 Q658.9663,84.3828 659.0913,84.3828 Q659.3101,84.3828 659.4507,84.5391 Q659.5913,84.6953 659.5913,85.0547 L659.5913,85.8984 Q659.5913,86.2578 659.4507,86.4141 Q659.3101,86.5703 659.0913,86.5703 Q658.8882,86.5703 658.7632,86.4609 Q658.6382,86.3516 658.5757,86.0391 Q658.5444,85.8359 658.4507,85.7266 Q658.2476,85.4922 657.8882,85.3672 Q657.5288,85.2422 657.1694,85.2422 Q656.7163,85.2422 656.3413,85.4453 Q655.9663,85.6328 655.6694,86.0703 Q655.3882,86.5078 655.3882,87.1172 L655.3882,87.7578 Q655.3882,88.4766 655.9038,88.9609 Q656.4351,89.4453 657.3726,89.4453 Q657.9351,89.4453 658.3101,89.3047 Q658.5444,89.2109 658.7944,88.9453 Q658.9507,88.7891 659.0288,88.7422 Q659.1226,88.6953 659.2319,88.6953 Q659.4351,88.6953 659.5913,88.8516 Q659.7476,89.0078 659.7476,89.2109 Q659.7476,89.4141 659.5288,89.6484 Q659.2319,89.9922 658.7632,90.1797 Q658.1382,90.4453 657.3726,90.4453 Q656.4819,90.4453 655.7788,90.0859 Q655.2007,89.7891 654.7944,89.1641 Q654.3882,88.5234 654.3882,87.7734 L654.3882,87.1016 Q654.3882,86.3203 654.7476,85.6484 Q655.1226,84.9609 655.7632,84.6016 Q656.4038,84.2422 657.1226,84.2422 Q657.5601,84.2422 657.9351,84.3359 Q658.3257,84.4297 658.6538,84.6328 Z " fill="#000000"/><text fill="#000000" font-family="Hack" font-size="14" lengthAdjust="spacing" textLength="30.3447" x="673.5757" y="93.0332">Main</text><line style="stroke:#000000;stroke-width:1;" x1="589.5" x2="762.9961" y1="101.1094" y2="101.1094"/><line style="stroke:#000000;stroke-width:1;" x1="589.5" x2="762.9961" y1="109.1094" y2="109.1094"/><ellipse cx="599.5" cy="123.4141" fill="#FFFFFF" rx="3" ry="3" style="stroke:#000000;stroke-width:1;"/><text fill="#000000" font-family="Hack" font-size="14" lengthAdjust="spacing" textLength="152.4961" x="605.5" y="127.6426">main(String[] args) : void</text></g><!--class UMLGenerator--><g id="elem_UMLGenerator"><rect codeLine="99" fill="#FFFFFF" height="325.3594" id="UMLGenerator" rx="2.5" ry="2.5" style="stroke:#000000;stroke-width:1;" width="385.5713" x="12" y="256"/><ellipse cx="154.9893" cy="269.8047" fill="#FFFFFF" rx="8" ry="8" style="stroke:#000000;stroke-width:1;"/><path d="M156.0674,267.1328 Q156.1455,267.0078 156.2549,266.9453 Q156.3799,266.8828 156.5049,266.8828 Q156.7236,266.8828 156.8643,267.0391 Q157.0049,267.1953 157.0049,267.5547 L157.0049,268.3984 Q157.0049,268.7578 156.8643,268.9141 Q156.7236,269.0703 156.5049,269.0703 Q156.3018,269.0703 156.1768,268.9609 Q156.0518,268.8516 155.9893,268.5391 Q155.958,268.3359 155.8643,268.2266 Q155.6611,267.9922 155.3018,267.8672 Q154.9424,267.7422 154.583,267.7422 Q154.1299,267.7422 153.7549,267.9453 Q153.3799,268.1328 153.083,268.5703 Q152.8018,269.0078 152.8018,269.6172 L152.8018,270.2578 Q152.8018,270.9766 153.3174,271.4609 Q153.8486,271.9453 154.7861,271.9453 Q155.3486,271.9453 155.7236,271.8047 Q155.958,271.7109 156.208,271.4453 Q156.3643,271.2891 156.4424,271.2422 Q156.5361,271.1953 156.6455,271.1953 Q156.8486,271.1953 157.0049,271.3516 Q157.1611,271.5078 157.1611,271.7109 Q157.1611,271.9141 156.9424,272.1484 Q156.6455,272.4922 156.1768,272.6797 Q155.5518,272.9453 154.7861,272.9453 Q153.8955,272.9453 153.1924,272.5859 Q152.6143,272.2891 152.208,271.6641 Q151.8018,271.0234 151.8018,270.2734 L151.8018,269.6016 Q151.8018,268.8203 152.1611,268.1484 Q152.5361,267.4609 153.1768,267.1016 Q153.8174,266.7422 154.5361,266.7422 Q154.9736,266.7422 155.3486,266.8359 Q155.7393,266.9297 156.0674,267.1328 Z " fill="#000000"/><text fill="#000000" font-family="Hack" font-size="14" lengthAdjust="spacing" textLength="92.5928" x="170.9893" y="275.5332">UMLGenerator</text><line style="stroke:#000000;stroke-width:1;" x1="13" x2="396.5713" y1="283.6094" y2="283.6094"/><rect fill="transparent" height="6" style="stroke:#000000;stroke-width:1;" width="6" x="20" y="294.9141"/><text fill="#000000" font-family="Hack" font-size="14" lengthAdjust="spacing" textLength="133.0615" x="29" y="302.1426">classes : List&lt;String&gt;</text><rect fill="transparent" height="6" style="stroke:#000000;stroke-width:1;" width="6" x="20" y="312.5234"/><text fill="#000000" font-family="Hack" font-size="14" lengthAdjust="spacing" textLength="164.9785" x="29" y="319.752">relationships : List&lt;String&gt;</text><rect fill="transparent" height="6" style="stroke:#000000;stroke-width:1;" width="6" x="20" y="330.1328"/><text fill="#000000" font-family="Hack" font-size="14" lengthAdjust="spacing" textLength="200.7646" x="29" y="337.3613">javaNativeClasses : Set&lt;String&gt;</text><line style="stroke:#000000;stroke-width:1;" x1="13" x2="396.5713" y1="344.4375" y2="344.4375"/><ellipse cx="23" cy="358.7422" fill="#FFFFFF" rx="3" ry="3" style="stroke:#000000;stroke-width:1;"/><text fill="#000000" font-family="Hack" font-size="14" lengthAdjust="spacing" textLength="152.4961" x="29" y="362.9707">main(String[] args) : void</text><rect fill="#FFFFFF" height="6" style="stroke:#000000;stroke-width:1;" width="6" x="20" y="373.3516"/><text fill="#000000" font-family="Hack" font-size="14" lengthAdjust="spacing" textLength="213.1719" x="29" y="380.5801">processDirectory(File folder) : void</text><rect fill="#FFFFFF" height="6" style="stroke:#000000;stroke-width:1;" width="6" x="20" y="390.9609"/><text fill="#000000" font-family="Hack" font-size="14" lengthAdjust="spacing" textLength="162.5996" x="29" y="398.1895">processFile(File file) : void</text><rect fill="#FFFFFF" height="6" style="stroke:#000000;stroke-width:1;" width="6" x="20" y="408.5703"/><text fill="#000000" font-family="Hack" font-size="14" lengthAdjust="spacing" textLength="262.9854" x="29" y="415.7988">processClasses(CompilationUnit cu) : void</text><rect fill="#FFFFFF" height="6" style="stroke:#000000;stroke-width:1;" width="6" x="20" y="426.1797"/><text fill="#000000" font-family="Hack" font-size="14" lengthAdjust="spacing" textLength="326.8125" x="29" y="433.4082">processAtributes(List&lt;FieldDeclaration&gt; fields) : void</text><rect fill="#FFFFFF" height="6" style="stroke:#000000;stroke-width:1;" width="6" x="20" y="443.7891"/><text fill="#000000" font-family="Hack" font-size="14" lengthAdjust="spacing" textLength="361.0264" x="29" y="451.0176">processMethods(ClassOrInterfaceDeclaration clazz) : void</text><rect fill="#FFFFFF" height="6" style="stroke:#000000;stroke-width:1;" width="6" x="20" y="461.3984"/><text fill="#000000" font-family="Hack" font-size="14" lengthAdjust="spacing" textLength="297.2402" x="29" y="468.627">processRelationships(CompilationUnit cu) : void</text><rect fill="#FFFFFF" height="6" style="stroke:#000000;stroke-width:1;" width="6" x="20" y="479.0078"/><text fill="#000000" font-family="Hack" font-size="14" lengthAdjust="spacing" textLength="246.6475" x="29" y="486.2363">extractGenericType(String type) : String</text><rect fill="#FFFFFF" height="6" style="stroke:#000000;stroke-width:1;" width="6" x="20" y="496.6172"/><text fill="#000000" font-family="Hack" font-size="14" lengthAdjust="spacing" textLength="294.8955" x="29" y="503.8457">isJavaNativeClass(String className) : boolean</text><rect fill="#FFFFFF" height="6" style="stroke:#000000;stroke-width:1;" width="6" x="20" y="514.2266"/><text fill="#000000" font-family="Hack" font-size="14" lengthAdjust="spacing" textLength="293.3232" x="29" y="521.4551">isClassInDirectory(String className) : boolean</text><rect fill="#FFFFFF" height="6" style="stroke:#000000;stroke-width:1;" width="6" x="20" y="531.8359"/><text fill="#000000" font-family="Hack" font-size="14" lengthAdjust="spacing" textLength="362.5713" x="29" y="539.0645">isClassInDirectory(File folder, String className) : boolean</text><rect fill="#FFFFFF" height="6" style="stroke:#000000;stroke-width:1;" width="6" x="20" y="549.4453"/><text fill="#000000" font-family="Hack" font-size="14" lengthAdjust="spacing" textLength="163.4131" x="29" y="556.6738">generatePlantUML() : void</text><rect fill="#FFFFFF" height="6" style="stroke:#000000;stroke-width:1;" width="6" x="20" y="567.0547"/><text fill="#000000" font-family="Hack" font-size="14" lengthAdjust="spacing" textLength="234.9854" x="29" y="574.2832">generateImageFromPlantUML() : void</text></g><!--class Utils--><g id="elem_Utils"><rect codeLine="117" fill="#FFFFFF" height="96.4375" id="Utils" rx="2.5" ry="2.5" style="stroke:#000000;stroke-width:1;" width="414.3848" x="433" y="370.5"/><ellipse cx="623.082" cy="384.3047" fill="#FFFFFF" rx="8" ry="8" style="stroke:#000000;stroke-width:1;"/><path d="M624.1602,381.6328 Q624.2383,381.5078 624.3477,381.4453 Q624.4727,381.3828 624.5977,381.3828 Q624.8164,381.3828 624.957,381.5391 Q625.0977,381.6953 625.0977,382.0547 L625.0977,382.8984 Q625.0977,383.2578 624.957,383.4141 Q624.8164,383.5703 624.5977,383.5703 Q624.3945,383.5703 624.2695,383.4609 Q624.1445,383.3516 624.082,383.0391 Q624.0508,382.8359 623.957,382.7266 Q623.7539,382.4922 623.3945,382.3672 Q623.0352,382.2422 622.6758,382.2422 Q622.2227,382.2422 621.8477,382.4453 Q621.4727,382.6328 621.1758,383.0703 Q620.8945,383.5078 620.8945,384.1172 L620.8945,384.7578 Q620.8945,385.4766 621.4102,385.9609 Q621.9414,386.4453 622.8789,386.4453 Q623.4414,386.4453 623.8164,386.3047 Q624.0508,386.2109 624.3008,385.9453 Q624.457,385.7891 624.5352,385.7422 Q624.6289,385.6953 624.7383,385.6953 Q624.9414,385.6953 625.0977,385.8516 Q625.2539,386.0078 625.2539,386.2109 Q625.2539,386.4141 625.0352,386.6484 Q624.7383,386.9922 624.2695,387.1797 Q623.6445,387.4453 622.8789,387.4453 Q621.9883,387.4453 621.2852,387.0859 Q620.707,386.7891 620.3008,386.1641 Q619.8945,385.5234 619.8945,384.7734 L619.8945,384.1016 Q619.8945,383.3203 620.2539,382.6484 Q620.6289,381.9609 621.2695,381.6016 Q621.9102,381.2422 622.6289,381.2422 Q623.0664,381.2422 623.4414,381.3359 Q623.832,381.4297 624.1602,381.6328 Z " fill="#000000"/><text fill="#000000" font-family="Hack" font-size="14" lengthAdjust="spacing" textLength="27.2207" x="639.082" y="390.0332">Utils</text><line style="stroke:#000000;stroke-width:1;" x1="434" x2="846.3848" y1="398.1094" y2="398.1094"/><line style="stroke:#000000;stroke-width:1;" x1="434" x2="846.3848" y1="406.1094" y2="406.1094"/><ellipse cx="444" cy="420.4141" fill="#FFFFFF" rx="3" ry="3" style="stroke:#000000;stroke-width:1;"/><text fill="#000000" font-family="Hack" font-size="14" lengthAdjust="spacing" textLength="232.668" x="450" y="424.6426">isValidUserId(String userId) : boolean</text><ellipse cx="444" cy="438.0234" fill="#FFFFFF" rx="3" ry="3" style="stroke:#000000;stroke-width:1;"/><text fill="#000000" font-family="Hack" font-size="14" lengthAdjust="spacing" textLength="391.3848" x="450" y="442.252">formatPenaltyMessage(String userName, String action) : String</text><ellipse cx="444" cy="455.6328" fill="#FFFFFF" rx="3" ry="3" style="stroke:#000000;stroke-width:1;"/><text fill="#000000" font-family="Hack" font-size="14" lengthAdjust="spacing" textLength="231.1094" x="450" y="459.8613">formatDuration(long duration) : String</text></g><!--link Bot to ModuleManager--><g id="link_Bot_ModuleManager"><path codeLine="122" d="M1033.5,161.32 C1033.5,212.52 1033.5,281.86 1033.5,337.78 " fill="transparent" id="Bot-to-ModuleManager" style="stroke:#000000;stroke-width:1;"/><polygon fill="#000000" points="1033.5,343.78,1037.5,334.78,1033.5,338.78,1029.5,334.78,1033.5,343.78" style="stroke:#000000;stroke-width:1;"/></g><!--reverse link Bot to ModuleManager--><g id="link_Bot_ModuleManager"><path codeLine="123" d="M1112.5,173.32 C1112.5,224.52 1112.5,287.86 1112.5,343.78 " fill="transparent" id="Bot-backto-ModuleManager" style="stroke:#000000;stroke-width:1;"/><polygon fill="transparent" points="1112.5,161.32,1108.5,167.32,1112.5,173.32,1116.5,167.32,1112.5,161.32" style="stroke:#000000;stroke-width:1;"/></g><!--link ModuleManager to EventListener--><g id="link_ModuleManager_EventListener"><path codeLine="124" d="M1177.5,493.17 C1177.5,538.92 1177.5,590.94 1177.5,635 " fill="transparent" id="ModuleManager-to-EventListener" style="stroke:#000000;stroke-width:1;stroke-dasharray:7.0,7.0;"/><polygon fill="#000000" points="1177.5,641,1181.5,632,1177.5,636,1173.5,632,1177.5,641" style="stroke:#000000;stroke-width:1;"/></g><!--link CommandManager to EventListener--><g id="link_CommandManager_EventListener"><path codeLine="125" d="M1411.5,466.79 C1411.5,514.51 1411.5,569.88 1411.5,622.97 " fill="transparent" id="CommandManager-to-EventListener" style="stroke:#000000;stroke-width:1;"/><polygon fill="transparent" points="1411.5,640.97,1417.5,622.97,1405.5,622.97,1411.5,640.97" style="stroke:#000000;stroke-width:1;"/></g><!--link CommandManager to ICommand--><g id="link_CommandManager_ICommand"><path codeLine="126" d="M1612.17,466.72 C1612.17,555.54 1612.17,736 1612.17,736 C1612.17,736 2123.23,736 2405.75,736 " fill="transparent" id="CommandManager-to-ICommand" style="stroke:#000000;stroke-width:1;"/><polygon fill="#000000" points="2411.75,736,2402.75,732,2406.75,736,2402.75,740,2411.75,736" style="stroke:#000000;stroke-width:1;"/></g><!--reverse link CommandManager to ICommand--><g id="link_CommandManager_ICommand"><path codeLine="127" d="M1699.83,478.79 C1699.83,560.92 1699.83,707 1699.83,707 C1699.83,707 2151.81,707 2412,707 " fill="transparent" id="CommandManager-backto-ICommand" style="stroke:#000000;stroke-width:1;"/><polygon fill="transparent" points="1699.83,466.79,1695.83,472.79,1699.83,478.79,1703.83,472.79,1699.83,466.79" style="stroke:#000000;stroke-width:1;"/></g><!--link ManageCommands to CommandManager--><g id="link_ManageCommands_CommandManager"><path codeLine="128" d="M1371.75,126.12 C1371.75,176.59 1371.75,283.24 1371.75,352.38 " fill="transparent" id="ManageCommands-to-CommandManager" style="stroke:#000000;stroke-width:1;"/><polygon fill="transparent" points="1371.75,370.38,1377.75,352.38,1365.75,352.38,1371.75,370.38" style="stroke:#000000;stroke-width:1;"/></g><!--link CreateRole to ICommand--><g id="link_CreateRole_ICommand"><path codeLine="129" d="M2002,475.67 C2002,552.35 2002,679 2002,679 C2002,679 2220.59,679 2393.88,679 " fill="transparent" id="CreateRole-to-ICommand" style="stroke:#000000;stroke-width:1;stroke-dasharray:7.0,7.0;"/><polygon fill="transparent" points="2411.88,679,2393.88,673,2393.88,685,2411.88,679" style="stroke:#000000;stroke-width:1;"/></g><!--link DeleteRole to ICommand--><g id="link_DeleteRole_ICommand"><path codeLine="130" d="M2493,475.84 C2493,526.29 2493,581.35 2493,631.77 " fill="transparent" id="DeleteRole-to-ICommand" style="stroke:#000000;stroke-width:1;stroke-dasharray:7.0,7.0;"/><polygon fill="transparent" points="2493,649.77,2499,631.77,2487,631.77,2493,649.77" style="stroke:#000000;stroke-width:1;"/></g><!--link Ban to ICommand--><g id="link_Ban_ICommand"><path codeLine="131" d="M2662.67,484.69 C2662.67,534.59 2662.67,584.34 2662.67,631.89 " fill="transparent" id="Ban-to-ICommand" style="stroke:#000000;stroke-width:1;stroke-dasharray:7.0,7.0;"/><polygon fill="transparent" points="2662.67,649.89,2668.67,631.89,2656.67,631.89,2662.67,649.89" style="stroke:#000000;stroke-width:1;"/></g><!--link Kick to ICommand--><g id="link_Kick_ICommand"><path codeLine="132" d="M3181,475.65 C3181,554.76 3181,688 3181,688 C3181,688 2961.64,688 2788.02,688 " fill="transparent" id="Kick-to-ICommand" style="stroke:#000000;stroke-width:1;stroke-dasharray:7.0,7.0;"/><polygon fill="transparent" points="2770.02,688,2788.02,694,2788.02,682,2770.02,688" style="stroke:#000000;stroke-width:1;"/></g><!--link Mute to ICommand--><g id="link_Mute_ICommand"><path codeLine="133" d="M3574,484.84 C3574,575.24 3574,726 3574,726 C3574,726 3071.69,726 2788.15,726 " fill="transparent" id="Mute-to-ICommand" style="stroke:#000000;stroke-width:1;stroke-dasharray:7.0,7.0;"/><polygon fill="transparent" points="2770.15,726,2788.15,732,2788.15,720,2770.15,726" style="stroke:#000000;stroke-width:1;"/></g><!--link ModCommands to CommandManager--><g id="link_ModCommands_CommandManager"><path codeLine="134" d="M1543,126.12 C1543,176.59 1543,283.24 1543,352.38 " fill="transparent" id="ModCommands-to-CommandManager" style="stroke:#000000;stroke-width:1;"/><polygon fill="transparent" points="1543,370.38,1549,352.38,1537,352.38,1543,370.38" style="stroke:#000000;stroke-width:1;"/></g><!--link Avatar to ICommand--><g id="link_Avatar_ICommand"><path codeLine="135" d="M3787.67,489 C3422.97,489 2716.33,489 2716.33,489 C2716.33,489 2716.33,567.13 2716.33,631.72 " fill="transparent" id="Avatar-to-ICommand" style="stroke:#000000;stroke-width:1;stroke-dasharray:7.0,7.0;"/><polygon fill="transparent" points="2716.33,649.72,2722.33,631.72,2710.33,631.72,2716.33,649.72" style="stroke:#000000;stroke-width:1;"/></g><!--link UserCommands to CommandManager--><g id="link_UserCommands_CommandManager"><path codeLine="136" d="M1704,126.12 C1704,176.59 1704,283.24 1704,352.38 " fill="transparent" id="UserCommands-to-CommandManager" style="stroke:#000000;stroke-width:1;"/><polygon fill="transparent" points="1704,370.38,1710,352.38,1698,352.38,1704,370.38" style="stroke:#000000;stroke-width:1;"/></g><!--SRC=[pLTBJnin4BxdLxYthM3v0LKL2GYWK48HZrwg7fpraBXuxSZsfZp_UyUFtTYR04AjMYvHFFFDU5wUcVrWvr03gPLK0tF3vO9gMXF19TYx1H2bxJnbE5mrrmf5h6vWK0bg3DbJbZmCIYBKR0QQV28d_izWY_na58_7ertyNolM29XGIGDeafwHRopLjhYmciiPiUe6v4T4BHLdWwS1bnRqDQs0ZFTLNLF9yCOj8YbQyea48Jp3BLIDXU82xPf7uDY9qifo9G-M82q1zzlftY8pi1vVE5egEQAM1luftXFOuQQdw7dcWuz1yD8u_-ZYSu1l-tjFkB4WGGzHfOQPE-aWtphjlDac6JZgIwm5IQTuvPfW0c7Sl8hX9h0Fl3hMHqsL4a1by3uWZG_0yrwrCOd1MmLbYrI1vABYy9_R70xxqVVSVWeSIibdKlgML7TPywRjjqOzh4pNG2sSe-i-b_-xkaOWu1sPiqVblxAZ9DXl35pokgjVoqDbOYTusSmllBfv5_6Qu6Nl862ZHbEdzjLEjk51x2vHkVvRJfHasd31WjA3UhfgEzIJjgDsqXZGljc0CVXIFRILnYh4TfD9JptfPUa_okGLQjmG7ISufIRh_uqMA_dIsvAU5oZtIscMqYg5vlkW8NM_EwmuHL86bB4p7072tXM9ksFMURy8t4iSttdr136EVJmJTA1pC8sm5-1ULYMKWMAjP-PJwS5Fa1YIE4AogQ5aZFuvLC2NcAlUUNEH9sAXZ7PP8jcHDWiRiBb5HRGdpaoMZRyUD1rwhSz73K-d69VSSYhuFI0ZpKcpO3WsCk9gr73fXMly4mF__GUXUcRMi5UJaoCNNMfLg2LFXcvg1kaXCZG8_wJDd2ysi7_YSpf5m1BsEmsOt0xneZLOerfL6F8HrrXxIjyLXnmdqBKIBBoh7EQO4S6JHQNZHnCAZFU21xElC92aQjQnksZH59kAARn7Xnm46m668NIm8Lw1b0ssJW3tL8QNkCk-wd6xBIR2Bfhtz-kYvsaiNxOIRgthRZv9l78lhEkryRLrRvgRupm9BTBdzBItPJcyHutbAkfl5aZIr7M3PwHdeSxWJ51fiUwAnCkMDwwnyWznrry7THLhkJ2n6Np3by6kV4jPRp2hnd2jT4rZBxgBBpl5d_eTk1qB_i5_JCTEa6zdMY4KmbWyPPtRVPIKvR3tcU6egYnxr7oDtzaPvkrkq5jfo_BnLSIm-r3fyzpr7Q-tYdhDENwGBAKxEu-9tcGzp1bkKSifVYVAINuxwP6I7M2J9N4Ro8MosRX1wZS0]--></g></svg>