<svg xmlns="http://www.w3.org/2000/svg" xmlns:xlink="http://www.w3.org/1999/xlink" contentStyleType="text/css" data-diagram-type="CLASS" height="949px" preserveAspectRatio="none" style="width:1958px;height:949px;background:#FFFFFF;" version="1.1" viewBox="0 0 1958 949" width="1958px" zoomAndPan="magnify"><defs/><g><!--class Bot--><g id="elem_Bot"><rect codeLine="1" fill="#F1F1F1" height="118.4375" id="Bot" rx="2.5" ry="2.5" style="stroke:#181818;stroke-width:0.5;" width="240.0127" x="67.5" y="25"/><ellipse cx="172.7495" cy="41" fill="#ADD1B2" rx="11" ry="11" style="stroke:#181818;stroke-width:1;"/><path d="M175.5151,36.875 Q175.6714,36.6563 175.8589,36.5469 Q176.0464,36.4375 176.2651,36.4375 Q176.6401,36.4375 176.8745,36.7031 Q177.1089,36.9531 177.1089,37.5625 L177.1089,39.0156 Q177.1089,39.625 176.8745,39.8906 Q176.6401,40.1563 176.2651,40.1563 Q175.9214,40.1563 175.7183,39.9531 Q175.5151,39.7656 175.4058,39.25 Q175.3589,38.8906 175.1714,38.7031 Q174.8433,38.3281 174.2339,38.1094 Q173.6245,37.8906 172.9995,37.8906 Q172.2339,37.8906 171.5933,38.2188 Q170.9683,38.5469 170.4683,39.2969 Q169.9839,40.0469 169.9839,41.0781 L169.9839,42.1719 Q169.9839,43.4063 170.8745,44.2344 Q171.7651,45.0469 173.3589,45.0469 Q174.2964,45.0469 174.9526,44.7969 Q175.3433,44.6406 175.7651,44.2031 Q176.0308,43.9375 176.1714,43.8594 Q176.3276,43.7813 176.5308,43.7813 Q176.8589,43.7813 177.1089,44.0469 Q177.3745,44.2969 177.3745,44.6406 Q177.3745,44.9844 177.0308,45.3906 Q176.5308,45.9688 175.7339,46.2969 Q174.6558,46.75 173.3589,46.75 Q171.8433,46.75 170.6401,46.125 Q169.6558,45.625 168.9683,44.5625 Q168.2808,43.4844 168.2808,42.2031 L168.2808,41.0469 Q168.2808,39.7188 168.8901,38.5781 Q169.5151,37.4219 170.6089,36.8125 Q171.7026,36.1875 172.937,36.1875 Q173.6714,36.1875 174.312,36.3594 Q174.9683,36.5156 175.5151,36.875 Z " fill="#000000"/><text fill="#000000" font-family="sans-serif" font-size="14" lengthAdjust="spacing" textLength="21.0137" x="193.2495" y="46.7285">Bot</text><line style="stroke:#181818;stroke-width:0.5;" x1="68.5" x2="306.5127" y1="57" y2="57"/><rect fill="transparent" height="6" style="stroke:#C82930;stroke-width:1;" width="6" x="75.5" y="68.3047"/><text fill="#000000" font-family="sans-serif" font-size="14" lengthAdjust="spacing" textLength="94.1787" x="87.5" y="75.5332">logger : Logger</text><ellipse cx="78.5" cy="88.9141" fill="transparent" rx="3" ry="3" style="stroke:#038048;stroke-width:1;"/><text fill="#000000" font-family="sans-serif" font-size="14" lengthAdjust="spacing" textLength="56.7998" x="87.5" y="93.1426">jda : JDA</text><ellipse cx="78.5" cy="106.5234" fill="transparent" rx="3" ry="3" style="stroke:#038048;stroke-width:1;"/><text fill="#000000" font-family="sans-serif" font-size="14" lengthAdjust="spacing" textLength="214.0127" x="87.5" y="110.752">moduleManager : ModuleManager</text><line style="stroke:#181818;stroke-width:0.5;" x1="68.5" x2="306.5127" y1="117.8281" y2="117.8281"/><ellipse cx="78.5" cy="132.1328" fill="#84BE84" rx="3" ry="3" style="stroke:#038048;stroke-width:1;"/><text fill="#000000" font-family="sans-serif" font-size="14" lengthAdjust="spacing" textLength="148.6133" x="87.5" y="136.3613">start(String token) : void</text></g><!--class ICommand--><g id="elem_ICommand"><rect codeLine="7" fill="#F1F1F1" height="118.4375" id="ICommand" rx="2.5" ry="2.5" style="stroke:#181818;stroke-width:0.5;" width="360.6191" x="343" y="25"/><ellipse cx="484.8252" cy="41" fill="#B4A7E5" rx="11" ry="11" style="stroke:#181818;stroke-width:1;"/><path d="M485.7783,37.6406 L485.7783,44.2969 L487.4971,44.2969 Q488.1064,44.2969 488.3721,44.5313 Q488.6377,44.7656 488.6377,45.1563 Q488.6377,45.5313 488.3721,45.7656 Q488.1064,46 487.4971,46 L482.3564,46 Q481.7471,46 481.4814,45.7656 Q481.2158,45.5313 481.2158,45.1406 Q481.2158,44.7656 481.4814,44.5313 Q481.7471,44.2969 482.3564,44.2969 L484.0752,44.2969 L484.0752,37.6406 L482.3564,37.6406 Q481.7471,37.6406 481.4814,37.4063 Q481.2158,37.1719 481.2158,36.7813 Q481.2158,36.4063 481.4814,36.1719 Q481.7471,35.9375 482.3564,35.9375 L487.4971,35.9375 Q488.1064,35.9375 488.3721,36.1719 Q488.6377,36.4063 488.6377,36.7813 Q488.6377,37.1719 488.3721,37.4063 Q488.1064,37.6406 487.4971,37.6406 L485.7783,37.6406 Z " fill="#000000"/><text fill="#000000" font-family="sans-serif" font-size="14" font-style="italic" lengthAdjust="spacing" textLength="68.4688" x="505.3252" y="46.7285">ICommand</text><line style="stroke:#181818;stroke-width:0.5;" x1="344" x2="702.6191" y1="57" y2="57"/><ellipse cx="354" cy="71.3047" fill="transparent" rx="3" ry="3" style="stroke:#038048;stroke-width:1;"/><text fill="#000000" font-family="sans-serif" font-size="14" lengthAdjust="spacing" textLength="83.2617" x="363" y="75.5332">name : String</text><line style="stroke:#181818;stroke-width:0.5;" x1="344" x2="702.6191" y1="82.6094" y2="82.6094"/><ellipse cx="354" cy="96.9141" fill="#84BE84" rx="3" ry="3" style="stroke:#038048;stroke-width:1;"/><text fill="#000000" font-family="sans-serif" font-size="14" lengthAdjust="spacing" textLength="334.6191" x="363" y="101.1426">execute(SlashCommandInteractionEvent event) : void</text><ellipse cx="354" cy="114.5234" fill="#84BE84" rx="3" ry="3" style="stroke:#038048;stroke-width:1;"/><text fill="#000000" font-family="sans-serif" font-size="14" lengthAdjust="spacing" textLength="204.6475" x="363" y="118.752">getSlash() : SlashCommandData</text><ellipse cx="354" cy="132.1328" fill="#84BE84" rx="3" ry="3" style="stroke:#038048;stroke-width:1;"/><text fill="#000000" font-family="sans-serif" font-size="14" lengthAdjust="spacing" textLength="114.3721" x="363" y="136.3613">getName() : String</text></g><!--class ModuleManager--><g id="elem_ModuleManager"><rect codeLine="13" fill="#F1F1F1" height="153.6563" id="ModuleManager" rx="2.5" ry="2.5" style="stroke:#181818;stroke-width:0.5;" width="383.9502" x="739.5" y="7"/><ellipse cx="876.6392" cy="23" fill="#ADD1B2" rx="11" ry="11" style="stroke:#181818;stroke-width:1;"/><path d="M879.4048,18.875 Q879.561,18.6563 879.7485,18.5469 Q879.936,18.4375 880.1548,18.4375 Q880.5298,18.4375 880.7642,18.7031 Q880.9985,18.9531 880.9985,19.5625 L880.9985,21.0156 Q880.9985,21.625 880.7642,21.8906 Q880.5298,22.1563 880.1548,22.1563 Q879.811,22.1563 879.6079,21.9531 Q879.4048,21.7656 879.2954,21.25 Q879.2485,20.8906 879.061,20.7031 Q878.7329,20.3281 878.1235,20.1094 Q877.5142,19.8906 876.8892,19.8906 Q876.1235,19.8906 875.4829,20.2188 Q874.8579,20.5469 874.3579,21.2969 Q873.8735,22.0469 873.8735,23.0781 L873.8735,24.1719 Q873.8735,25.4063 874.7642,26.2344 Q875.6548,27.0469 877.2485,27.0469 Q878.186,27.0469 878.8423,26.7969 Q879.2329,26.6406 879.6548,26.2031 Q879.9204,25.9375 880.061,25.8594 Q880.2173,25.7813 880.4204,25.7813 Q880.7485,25.7813 880.9985,26.0469 Q881.2642,26.2969 881.2642,26.6406 Q881.2642,26.9844 880.9204,27.3906 Q880.4204,27.9688 879.6235,28.2969 Q878.5454,28.75 877.2485,28.75 Q875.7329,28.75 874.5298,28.125 Q873.5454,27.625 872.8579,26.5625 Q872.1704,25.4844 872.1704,24.2031 L872.1704,23.0469 Q872.1704,21.7188 872.7798,20.5781 Q873.4048,19.4219 874.4985,18.8125 Q875.5923,18.1875 876.8267,18.1875 Q877.561,18.1875 878.2017,18.3594 Q878.8579,18.5156 879.4048,18.875 Z " fill="#000000"/><text fill="#000000" font-family="sans-serif" font-size="14" lengthAdjust="spacing" textLength="101.1719" x="897.1392" y="28.7285">ModuleManager</text><line style="stroke:#181818;stroke-width:0.5;" x1="740.5" x2="1122.4502" y1="39" y2="39"/><rect fill="transparent" height="6" style="stroke:#C82930;stroke-width:1;" width="6" x="747.5" y="50.3047"/><text fill="#000000" font-family="sans-serif" font-size="14" lengthAdjust="spacing" textLength="234.2402" x="759.5" y="57.5332">modules : Map&lt;String,EventListener&gt;</text><line style="stroke:#181818;stroke-width:0.5;" x1="740.5" x2="1122.4502" y1="64.6094" y2="64.6094"/><ellipse cx="750.5" cy="78.9141" fill="#84BE84" rx="3" ry="3" style="stroke:#038048;stroke-width:1;"/><text fill="#000000" font-family="sans-serif" font-size="14" lengthAdjust="spacing" textLength="357.9502" x="759.5" y="83.1426">registerModule(String name, EventListener module) : void</text><ellipse cx="750.5" cy="96.5234" fill="#84BE84" rx="3" ry="3" style="stroke:#038048;stroke-width:1;"/><text fill="#000000" font-family="sans-serif" font-size="14" lengthAdjust="spacing" textLength="210.1162" x="759.5" y="100.752">enableModule(String name) : void</text><ellipse cx="750.5" cy="114.1328" fill="#84BE84" rx="3" ry="3" style="stroke:#038048;stroke-width:1;"/><text fill="#000000" font-family="sans-serif" font-size="14" lengthAdjust="spacing" textLength="212.4404" x="759.5" y="118.3613">disableModule(String name) : void</text><ellipse cx="750.5" cy="131.7422" fill="#84BE84" rx="3" ry="3" style="stroke:#038048;stroke-width:1;"/><text fill="#000000" font-family="sans-serif" font-size="14" lengthAdjust="spacing" textLength="253.709" x="759.5" y="135.9707">isModuleEnabled(String name) : boolean</text><ellipse cx="750.5" cy="149.3516" fill="#84BE84" rx="3" ry="3" style="stroke:#038048;stroke-width:1;"/><text fill="#000000" font-family="sans-serif" font-size="14" lengthAdjust="spacing" textLength="263.0264" x="759.5" y="153.5801">getModules() : Map&lt;String,EventListener&gt;</text></g><!--class CommandManager--><g id="elem_CommandManager"><rect codeLine="21" fill="#F1F1F1" height="100.8281" id="CommandManager" rx="2.5" ry="2.5" style="stroke:#181818;stroke-width:0.5;" width="492.1289" x="1158.5" y="33.5"/><ellipse cx="1340.3975" cy="49.5" fill="#ADD1B2" rx="11" ry="11" style="stroke:#181818;stroke-width:1;"/><path d="M1343.1631,45.375 Q1343.3193,45.1563 1343.5068,45.0469 Q1343.6943,44.9375 1343.9131,44.9375 Q1344.2881,44.9375 1344.5225,45.2031 Q1344.7568,45.4531 1344.7568,46.0625 L1344.7568,47.5156 Q1344.7568,48.125 1344.5225,48.3906 Q1344.2881,48.6563 1343.9131,48.6563 Q1343.5693,48.6563 1343.3662,48.4531 Q1343.1631,48.2656 1343.0537,47.75 Q1343.0068,47.3906 1342.8193,47.2031 Q1342.4912,46.8281 1341.8818,46.6094 Q1341.2725,46.3906 1340.6475,46.3906 Q1339.8818,46.3906 1339.2412,46.7188 Q1338.6162,47.0469 1338.1162,47.7969 Q1337.6318,48.5469 1337.6318,49.5781 L1337.6318,50.6719 Q1337.6318,51.9063 1338.5225,52.7344 Q1339.4131,53.5469 1341.0068,53.5469 Q1341.9443,53.5469 1342.6006,53.2969 Q1342.9912,53.1406 1343.4131,52.7031 Q1343.6787,52.4375 1343.8193,52.3594 Q1343.9756,52.2813 1344.1787,52.2813 Q1344.5068,52.2813 1344.7568,52.5469 Q1345.0225,52.7969 1345.0225,53.1406 Q1345.0225,53.4844 1344.6787,53.8906 Q1344.1787,54.4688 1343.3818,54.7969 Q1342.3037,55.25 1341.0068,55.25 Q1339.4912,55.25 1338.2881,54.625 Q1337.3037,54.125 1336.6162,53.0625 Q1335.9287,51.9844 1335.9287,50.7031 L1335.9287,49.5469 Q1335.9287,48.2188 1336.5381,47.0781 Q1337.1631,45.9219 1338.2568,45.3125 Q1339.3506,44.6875 1340.585,44.6875 Q1341.3193,44.6875 1341.96,44.8594 Q1342.6162,45.0156 1343.1631,45.375 Z " fill="#000000"/><text fill="#000000" font-family="sans-serif" font-size="14" lengthAdjust="spacing" textLength="119.834" x="1360.8975" y="55.2285">CommandManager</text><line style="stroke:#181818;stroke-width:0.5;" x1="1159.5" x2="1649.6289" y1="65.5" y2="65.5"/><ellipse cx="1169.5" cy="79.8047" fill="transparent" rx="3" ry="3" style="stroke:#038048;stroke-width:1;"/><text fill="#000000" font-family="sans-serif" font-size="14" lengthAdjust="spacing" textLength="186.7441" x="1178.5" y="84.0332">commands : List&lt;ICommand&gt;</text><line style="stroke:#181818;stroke-width:0.5;" x1="1159.5" x2="1649.6289" y1="91.1094" y2="91.1094"/><ellipse cx="1169.5" cy="105.4141" fill="#84BE84" rx="3" ry="3" style="stroke:#038048;stroke-width:1;"/><text fill="#000000" font-family="sans-serif" font-size="14" lengthAdjust="spacing" textLength="242.7852" x="1178.5" y="109.6426">getSlash() : List&lt;SlashCommandData&gt;</text><ellipse cx="1169.5" cy="123.0234" fill="#84BE84" rx="3" ry="3" style="stroke:#038048;stroke-width:1;"/><text fill="#000000" font-family="sans-serif" font-size="14" lengthAdjust="spacing" textLength="466.1289" x="1178.5" y="127.252">onSlashCommandInteraction(SlashCommandInteractionEvent event) : void</text></g><!--class ManageCommands--><g id="elem_ManageCommands"><rect codeLine="26" fill="#F1F1F1" height="48" id="ManageCommands" rx="2.5" ry="2.5" style="stroke:#181818;stroke-width:0.5;" width="154.1719" x="1685.5" y="60"/><ellipse cx="1700.5" cy="76" fill="#ADD1B2" rx="11" ry="11" style="stroke:#181818;stroke-width:1;"/><path d="M1703.2656,71.875 Q1703.4219,71.6563 1703.6094,71.5469 Q1703.7969,71.4375 1704.0156,71.4375 Q1704.3906,71.4375 1704.625,71.7031 Q1704.8594,71.9531 1704.8594,72.5625 L1704.8594,74.0156 Q1704.8594,74.625 1704.625,74.8906 Q1704.3906,75.1563 1704.0156,75.1563 Q1703.6719,75.1563 1703.4688,74.9531 Q1703.2656,74.7656 1703.1563,74.25 Q1703.1094,73.8906 1702.9219,73.7031 Q1702.5938,73.3281 1701.9844,73.1094 Q1701.375,72.8906 1700.75,72.8906 Q1699.9844,72.8906 1699.3438,73.2188 Q1698.7188,73.5469 1698.2188,74.2969 Q1697.7344,75.0469 1697.7344,76.0781 L1697.7344,77.1719 Q1697.7344,78.4063 1698.625,79.2344 Q1699.5156,80.0469 1701.1094,80.0469 Q1702.0469,80.0469 1702.7031,79.7969 Q1703.0938,79.6406 1703.5156,79.2031 Q1703.7813,78.9375 1703.9219,78.8594 Q1704.0781,78.7813 1704.2813,78.7813 Q1704.6094,78.7813 1704.8594,79.0469 Q1705.125,79.2969 1705.125,79.6406 Q1705.125,79.9844 1704.7813,80.3906 Q1704.2813,80.9688 1703.4844,81.2969 Q1702.4063,81.75 1701.1094,81.75 Q1699.5938,81.75 1698.3906,81.125 Q1697.4063,80.625 1696.7188,79.5625 Q1696.0313,78.4844 1696.0313,77.2031 L1696.0313,76.0469 Q1696.0313,74.7188 1696.6406,73.5781 Q1697.2656,72.4219 1698.3594,71.8125 Q1699.4531,71.1875 1700.6875,71.1875 Q1701.4219,71.1875 1702.0625,71.3594 Q1702.7188,71.5156 1703.2656,71.875 Z " fill="#000000"/><text fill="#000000" font-family="sans-serif" font-size="14" lengthAdjust="spacing" textLength="122.1719" x="1714.5" y="81.7285">ManageCommands</text><line style="stroke:#181818;stroke-width:0.5;" x1="1686.5" x2="1838.6719" y1="92" y2="92"/><line style="stroke:#181818;stroke-width:0.5;" x1="1686.5" x2="1838.6719" y1="100" y2="100"/></g><!--class CreateRole--><g id="elem_CreateRole"><rect codeLine="28" fill="#F1F1F1" height="118.4375" id="CreateRole" rx="2.5" ry="2.5" style="stroke:#181818;stroke-width:0.5;" width="360.6191" x="7" y="230"/><ellipse cx="147.6528" cy="246" fill="#ADD1B2" rx="11" ry="11" style="stroke:#181818;stroke-width:1;"/><path d="M150.4185,241.875 Q150.5747,241.6563 150.7622,241.5469 Q150.9497,241.4375 151.1685,241.4375 Q151.5435,241.4375 151.7778,241.7031 Q152.0122,241.9531 152.0122,242.5625 L152.0122,244.0156 Q152.0122,244.625 151.7778,244.8906 Q151.5435,245.1563 151.1685,245.1563 Q150.8247,245.1563 150.6216,244.9531 Q150.4185,244.7656 150.3091,244.25 Q150.2622,243.8906 150.0747,243.7031 Q149.7466,243.3281 149.1372,243.1094 Q148.5278,242.8906 147.9028,242.8906 Q147.1372,242.8906 146.4966,243.2188 Q145.8716,243.5469 145.3716,244.2969 Q144.8872,245.0469 144.8872,246.0781 L144.8872,247.1719 Q144.8872,248.4063 145.7778,249.2344 Q146.6685,250.0469 148.2622,250.0469 Q149.1997,250.0469 149.856,249.7969 Q150.2466,249.6406 150.6685,249.2031 Q150.9341,248.9375 151.0747,248.8594 Q151.231,248.7813 151.4341,248.7813 Q151.7622,248.7813 152.0122,249.0469 Q152.2778,249.2969 152.2778,249.6406 Q152.2778,249.9844 151.9341,250.3906 Q151.4341,250.9688 150.6372,251.2969 Q149.5591,251.75 148.2622,251.75 Q146.7466,251.75 145.5435,251.125 Q144.5591,250.625 143.8716,249.5625 Q143.1841,248.4844 143.1841,247.2031 L143.1841,246.0469 Q143.1841,244.7188 143.7935,243.5781 Q144.4185,242.4219 145.5122,241.8125 Q146.606,241.1875 147.8403,241.1875 Q148.5747,241.1875 149.2153,241.3594 Q149.8716,241.5156 150.4185,241.875 Z " fill="#000000"/><text fill="#000000" font-family="sans-serif" font-size="14" lengthAdjust="spacing" textLength="70.8135" x="168.1528" y="251.7285">CreateRole</text><line style="stroke:#181818;stroke-width:0.5;" x1="8" x2="366.6191" y1="262" y2="262"/><rect fill="transparent" height="6" style="stroke:#C82930;stroke-width:1;" width="6" x="15" y="273.3047"/><text fill="#000000" font-family="sans-serif" font-size="14" lengthAdjust="spacing" textLength="83.2617" x="27" y="280.5332">name : String</text><line style="stroke:#181818;stroke-width:0.5;" x1="8" x2="366.6191" y1="287.6094" y2="287.6094"/><ellipse cx="18" cy="301.9141" fill="#84BE84" rx="3" ry="3" style="stroke:#038048;stroke-width:1;"/><text fill="#000000" font-family="sans-serif" font-size="14" lengthAdjust="spacing" textLength="334.6191" x="27" y="306.1426">execute(SlashCommandInteractionEvent event) : void</text><ellipse cx="18" cy="319.5234" fill="#84BE84" rx="3" ry="3" style="stroke:#038048;stroke-width:1;"/><text fill="#000000" font-family="sans-serif" font-size="14" lengthAdjust="spacing" textLength="204.6475" x="27" y="323.752">getSlash() : SlashCommandData</text><ellipse cx="18" cy="337.1328" fill="#84BE84" rx="3" ry="3" style="stroke:#038048;stroke-width:1;"/><text fill="#000000" font-family="sans-serif" font-size="14" lengthAdjust="spacing" textLength="114.3721" x="27" y="341.3613">getName() : String</text></g><!--class DeleteRole--><g id="elem_DeleteRole"><rect codeLine="34" fill="#F1F1F1" height="118.4375" id="DeleteRole" rx="2.5" ry="2.5" style="stroke:#181818;stroke-width:0.5;" width="360.6191" x="403" y="230"/><ellipse cx="544.4287" cy="246" fill="#ADD1B2" rx="11" ry="11" style="stroke:#181818;stroke-width:1;"/><path d="M547.1943,241.875 Q547.3506,241.6563 547.5381,241.5469 Q547.7256,241.4375 547.9443,241.4375 Q548.3193,241.4375 548.5537,241.7031 Q548.7881,241.9531 548.7881,242.5625 L548.7881,244.0156 Q548.7881,244.625 548.5537,244.8906 Q548.3193,245.1563 547.9443,245.1563 Q547.6006,245.1563 547.3975,244.9531 Q547.1943,244.7656 547.085,244.25 Q547.0381,243.8906 546.8506,243.7031 Q546.5225,243.3281 545.9131,243.1094 Q545.3037,242.8906 544.6787,242.8906 Q543.9131,242.8906 543.2725,243.2188 Q542.6475,243.5469 542.1475,244.2969 Q541.6631,245.0469 541.6631,246.0781 L541.6631,247.1719 Q541.6631,248.4063 542.5537,249.2344 Q543.4443,250.0469 545.0381,250.0469 Q545.9756,250.0469 546.6318,249.7969 Q547.0225,249.6406 547.4443,249.2031 Q547.71,248.9375 547.8506,248.8594 Q548.0068,248.7813 548.21,248.7813 Q548.5381,248.7813 548.7881,249.0469 Q549.0537,249.2969 549.0537,249.6406 Q549.0537,249.9844 548.71,250.3906 Q548.21,250.9688 547.4131,251.2969 Q546.335,251.75 545.0381,251.75 Q543.5225,251.75 542.3193,251.125 Q541.335,250.625 540.6475,249.5625 Q539.96,248.4844 539.96,247.2031 L539.96,246.0469 Q539.96,244.7188 540.5693,243.5781 Q541.1943,242.4219 542.2881,241.8125 Q543.3818,241.1875 544.6162,241.1875 Q545.3506,241.1875 545.9912,241.3594 Q546.6475,241.5156 547.1943,241.875 Z " fill="#000000"/><text fill="#000000" font-family="sans-serif" font-size="14" lengthAdjust="spacing" textLength="69.2617" x="564.9287" y="251.7285">DeleteRole</text><line style="stroke:#181818;stroke-width:0.5;" x1="404" x2="762.6191" y1="262" y2="262"/><rect fill="transparent" height="6" style="stroke:#C82930;stroke-width:1;" width="6" x="411" y="273.3047"/><text fill="#000000" font-family="sans-serif" font-size="14" lengthAdjust="spacing" textLength="83.2617" x="423" y="280.5332">name : String</text><line style="stroke:#181818;stroke-width:0.5;" x1="404" x2="762.6191" y1="287.6094" y2="287.6094"/><ellipse cx="414" cy="301.9141" fill="#84BE84" rx="3" ry="3" style="stroke:#038048;stroke-width:1;"/><text fill="#000000" font-family="sans-serif" font-size="14" lengthAdjust="spacing" textLength="334.6191" x="423" y="306.1426">execute(SlashCommandInteractionEvent event) : void</text><ellipse cx="414" cy="319.5234" fill="#84BE84" rx="3" ry="3" style="stroke:#038048;stroke-width:1;"/><text fill="#000000" font-family="sans-serif" font-size="14" lengthAdjust="spacing" textLength="204.6475" x="423" y="323.752">getSlash() : SlashCommandData</text><ellipse cx="414" cy="337.1328" fill="#84BE84" rx="3" ry="3" style="stroke:#038048;stroke-width:1;"/><text fill="#000000" font-family="sans-serif" font-size="14" lengthAdjust="spacing" textLength="114.3721" x="423" y="341.3613">getName() : String</text></g><!--class Ban--><g id="elem_Ban"><rect codeLine="40" fill="#F1F1F1" height="136.0469" id="Ban" rx="2.5" ry="2.5" style="stroke:#181818;stroke-width:0.5;" width="360.6191" x="799" y="221"/><ellipse cx="962.6045" cy="237" fill="#ADD1B2" rx="11" ry="11" style="stroke:#181818;stroke-width:1;"/><path d="M965.3701,232.875 Q965.5264,232.6563 965.7139,232.5469 Q965.9014,232.4375 966.1201,232.4375 Q966.4951,232.4375 966.7295,232.7031 Q966.9639,232.9531 966.9639,233.5625 L966.9639,235.0156 Q966.9639,235.625 966.7295,235.8906 Q966.4951,236.1563 966.1201,236.1563 Q965.7764,236.1563 965.5732,235.9531 Q965.3701,235.7656 965.2607,235.25 Q965.2139,234.8906 965.0264,234.7031 Q964.6982,234.3281 964.0889,234.1094 Q963.4795,233.8906 962.8545,233.8906 Q962.0889,233.8906 961.4482,234.2188 Q960.8232,234.5469 960.3232,235.2969 Q959.8389,236.0469 959.8389,237.0781 L959.8389,238.1719 Q959.8389,239.4063 960.7295,240.2344 Q961.6201,241.0469 963.2139,241.0469 Q964.1514,241.0469 964.8076,240.7969 Q965.1982,240.6406 965.6201,240.2031 Q965.8857,239.9375 966.0264,239.8594 Q966.1826,239.7813 966.3857,239.7813 Q966.7139,239.7813 966.9639,240.0469 Q967.2295,240.2969 967.2295,240.6406 Q967.2295,240.9844 966.8857,241.3906 Q966.3857,241.9688 965.5889,242.2969 Q964.5107,242.75 963.2139,242.75 Q961.6982,242.75 960.4951,242.125 Q959.5107,241.625 958.8232,240.5625 Q958.1357,239.4844 958.1357,238.2031 L958.1357,237.0469 Q958.1357,235.7188 958.7451,234.5781 Q959.3701,233.4219 960.4639,232.8125 Q961.5576,232.1875 962.792,232.1875 Q963.5264,232.1875 964.167,232.3594 Q964.8232,232.5156 965.3701,232.875 Z " fill="#000000"/><text fill="#000000" font-family="sans-serif" font-size="14" lengthAdjust="spacing" textLength="24.9102" x="983.1045" y="242.7285">Ban</text><line style="stroke:#181818;stroke-width:0.5;" x1="800" x2="1158.6191" y1="253" y2="253"/><rect fill="transparent" height="6" style="stroke:#C82930;stroke-width:1;" width="6" x="807" y="264.3047"/><text fill="#000000" font-family="sans-serif" font-size="14" lengthAdjust="spacing" textLength="83.2617" x="819" y="271.5332">name : String</text><line style="stroke:#181818;stroke-width:0.5;" x1="800" x2="1158.6191" y1="278.6094" y2="278.6094"/><ellipse cx="810" cy="292.9141" fill="#84BE84" rx="3" ry="3" style="stroke:#038048;stroke-width:1;"/><text fill="#000000" font-family="sans-serif" font-size="14" lengthAdjust="spacing" textLength="334.6191" x="819" y="297.1426">execute(SlashCommandInteractionEvent event) : void</text><ellipse cx="810" cy="310.5234" fill="#84BE84" rx="3" ry="3" style="stroke:#038048;stroke-width:1;"/><text fill="#000000" font-family="sans-serif" font-size="14" lengthAdjust="spacing" textLength="204.6475" x="819" y="314.752">getSlash() : SlashCommandData</text><rect fill="#F24D5C" height="6" style="stroke:#C82930;stroke-width:1;" width="6" x="807" y="325.1328"/><text fill="#000000" font-family="sans-serif" font-size="14" lengthAdjust="spacing" textLength="168.8203" x="819" y="332.3613">parseTime(String time) : int</text><ellipse cx="810" cy="345.7422" fill="#84BE84" rx="3" ry="3" style="stroke:#038048;stroke-width:1;"/><text fill="#000000" font-family="sans-serif" font-size="14" lengthAdjust="spacing" textLength="114.3721" x="819" y="349.9707">getName() : String</text></g><!--class Kick--><g id="elem_Kick"><rect codeLine="47" fill="#F1F1F1" height="118.4375" id="Kick" rx="2.5" ry="2.5" style="stroke:#181818;stroke-width:0.5;" width="360.6191" x="1195" y="230"/><ellipse cx="1357.8354" cy="246" fill="#ADD1B2" rx="11" ry="11" style="stroke:#181818;stroke-width:1;"/><path d="M1360.6011,241.875 Q1360.7573,241.6563 1360.9448,241.5469 Q1361.1323,241.4375 1361.3511,241.4375 Q1361.7261,241.4375 1361.9604,241.7031 Q1362.1948,241.9531 1362.1948,242.5625 L1362.1948,244.0156 Q1362.1948,244.625 1361.9604,244.8906 Q1361.7261,245.1563 1361.3511,245.1563 Q1361.0073,245.1563 1360.8042,244.9531 Q1360.6011,244.7656 1360.4917,244.25 Q1360.4448,243.8906 1360.2573,243.7031 Q1359.9292,243.3281 1359.3198,243.1094 Q1358.7104,242.8906 1358.0854,242.8906 Q1357.3198,242.8906 1356.6792,243.2188 Q1356.0542,243.5469 1355.5542,244.2969 Q1355.0698,245.0469 1355.0698,246.0781 L1355.0698,247.1719 Q1355.0698,248.4063 1355.9604,249.2344 Q1356.8511,250.0469 1358.4448,250.0469 Q1359.3823,250.0469 1360.0386,249.7969 Q1360.4292,249.6406 1360.8511,249.2031 Q1361.1167,248.9375 1361.2573,248.8594 Q1361.4136,248.7813 1361.6167,248.7813 Q1361.9448,248.7813 1362.1948,249.0469 Q1362.4604,249.2969 1362.4604,249.6406 Q1362.4604,249.9844 1362.1167,250.3906 Q1361.6167,250.9688 1360.8198,251.2969 Q1359.7417,251.75 1358.4448,251.75 Q1356.9292,251.75 1355.7261,251.125 Q1354.7417,250.625 1354.0542,249.5625 Q1353.3667,248.4844 1353.3667,247.2031 L1353.3667,246.0469 Q1353.3667,244.7188 1353.9761,243.5781 Q1354.6011,242.4219 1355.6948,241.8125 Q1356.7886,241.1875 1358.0229,241.1875 Q1358.7573,241.1875 1359.3979,241.3594 Q1360.0542,241.5156 1360.6011,241.875 Z " fill="#000000"/><text fill="#000000" font-family="sans-serif" font-size="14" lengthAdjust="spacing" textLength="26.4482" x="1378.3354" y="251.7285">Kick</text><line style="stroke:#181818;stroke-width:0.5;" x1="1196" x2="1554.6191" y1="262" y2="262"/><rect fill="transparent" height="6" style="stroke:#C82930;stroke-width:1;" width="6" x="1203" y="273.3047"/><text fill="#000000" font-family="sans-serif" font-size="14" lengthAdjust="spacing" textLength="83.2617" x="1215" y="280.5332">name : String</text><line style="stroke:#181818;stroke-width:0.5;" x1="1196" x2="1554.6191" y1="287.6094" y2="287.6094"/><ellipse cx="1206" cy="301.9141" fill="#84BE84" rx="3" ry="3" style="stroke:#038048;stroke-width:1;"/><text fill="#000000" font-family="sans-serif" font-size="14" lengthAdjust="spacing" textLength="334.6191" x="1215" y="306.1426">execute(SlashCommandInteractionEvent event) : void</text><ellipse cx="1206" cy="319.5234" fill="#84BE84" rx="3" ry="3" style="stroke:#038048;stroke-width:1;"/><text fill="#000000" font-family="sans-serif" font-size="14" lengthAdjust="spacing" textLength="204.6475" x="1215" y="323.752">getSlash() : SlashCommandData</text><ellipse cx="1206" cy="337.1328" fill="#84BE84" rx="3" ry="3" style="stroke:#038048;stroke-width:1;"/><text fill="#000000" font-family="sans-serif" font-size="14" lengthAdjust="spacing" textLength="114.3721" x="1215" y="341.3613">getName() : String</text></g><!--class Mute--><g id="elem_Mute"><rect codeLine="53" fill="#F1F1F1" height="136.0469" id="Mute" rx="2.5" ry="2.5" style="stroke:#181818;stroke-width:0.5;" width="360.6191" x="1591" y="221"/><ellipse cx="1751.4976" cy="237" fill="#ADD1B2" rx="11" ry="11" style="stroke:#181818;stroke-width:1;"/><path d="M1754.2632,232.875 Q1754.4194,232.6563 1754.6069,232.5469 Q1754.7944,232.4375 1755.0132,232.4375 Q1755.3882,232.4375 1755.6226,232.7031 Q1755.8569,232.9531 1755.8569,233.5625 L1755.8569,235.0156 Q1755.8569,235.625 1755.6226,235.8906 Q1755.3882,236.1563 1755.0132,236.1563 Q1754.6694,236.1563 1754.4663,235.9531 Q1754.2632,235.7656 1754.1538,235.25 Q1754.1069,234.8906 1753.9194,234.7031 Q1753.5913,234.3281 1752.9819,234.1094 Q1752.3726,233.8906 1751.7476,233.8906 Q1750.9819,233.8906 1750.3413,234.2188 Q1749.7163,234.5469 1749.2163,235.2969 Q1748.7319,236.0469 1748.7319,237.0781 L1748.7319,238.1719 Q1748.7319,239.4063 1749.6226,240.2344 Q1750.5132,241.0469 1752.1069,241.0469 Q1753.0444,241.0469 1753.7007,240.7969 Q1754.0913,240.6406 1754.5132,240.2031 Q1754.7788,239.9375 1754.9194,239.8594 Q1755.0757,239.7813 1755.2788,239.7813 Q1755.6069,239.7813 1755.8569,240.0469 Q1756.1226,240.2969 1756.1226,240.6406 Q1756.1226,240.9844 1755.7788,241.3906 Q1755.2788,241.9688 1754.4819,242.2969 Q1753.4038,242.75 1752.1069,242.75 Q1750.5913,242.75 1749.3882,242.125 Q1748.4038,241.625 1747.7163,240.5625 Q1747.0288,239.4844 1747.0288,238.2031 L1747.0288,237.0469 Q1747.0288,235.7188 1747.6382,234.5781 Q1748.2632,233.4219 1749.3569,232.8125 Q1750.4507,232.1875 1751.6851,232.1875 Q1752.4194,232.1875 1753.0601,232.3594 Q1753.7163,232.5156 1754.2632,232.875 Z " fill="#000000"/><text fill="#000000" font-family="sans-serif" font-size="14" lengthAdjust="spacing" textLength="31.124" x="1771.9976" y="242.7285">Mute</text><line style="stroke:#181818;stroke-width:0.5;" x1="1592" x2="1950.6191" y1="253" y2="253"/><rect fill="transparent" height="6" style="stroke:#C82930;stroke-width:1;" width="6" x="1599" y="264.3047"/><text fill="#000000" font-family="sans-serif" font-size="14" lengthAdjust="spacing" textLength="83.2617" x="1611" y="271.5332">name : String</text><line style="stroke:#181818;stroke-width:0.5;" x1="1592" x2="1950.6191" y1="278.6094" y2="278.6094"/><ellipse cx="1602" cy="292.9141" fill="#84BE84" rx="3" ry="3" style="stroke:#038048;stroke-width:1;"/><text fill="#000000" font-family="sans-serif" font-size="14" lengthAdjust="spacing" textLength="334.6191" x="1611" y="297.1426">execute(SlashCommandInteractionEvent event) : void</text><ellipse cx="1602" cy="310.5234" fill="#84BE84" rx="3" ry="3" style="stroke:#038048;stroke-width:1;"/><text fill="#000000" font-family="sans-serif" font-size="14" lengthAdjust="spacing" textLength="204.6475" x="1611" y="314.752">getSlash() : SlashCommandData</text><rect fill="#F24D5C" height="6" style="stroke:#C82930;stroke-width:1;" width="6" x="1599" y="325.1328"/><text fill="#000000" font-family="sans-serif" font-size="14" lengthAdjust="spacing" textLength="206.9512" x="1611" y="332.3613">parseTime(String time) : Duration</text><ellipse cx="1602" cy="345.7422" fill="#84BE84" rx="3" ry="3" style="stroke:#038048;stroke-width:1;"/><text fill="#000000" font-family="sans-serif" font-size="14" lengthAdjust="spacing" textLength="114.3721" x="1611" y="349.9707">getName() : String</text></g><!--class ModCommands--><g id="elem_ModCommands"><rect codeLine="60" fill="#F1F1F1" height="48" id="ModCommands" rx="2.5" ry="2.5" style="stroke:#181818;stroke-width:0.5;" width="130.8135" x="122" y="487.5"/><ellipse cx="137" cy="503.5" fill="#ADD1B2" rx="11" ry="11" style="stroke:#181818;stroke-width:1;"/><path d="M139.7656,499.375 Q139.9219,499.1563 140.1094,499.0469 Q140.2969,498.9375 140.5156,498.9375 Q140.8906,498.9375 141.125,499.2031 Q141.3594,499.4531 141.3594,500.0625 L141.3594,501.5156 Q141.3594,502.125 141.125,502.3906 Q140.8906,502.6563 140.5156,502.6563 Q140.1719,502.6563 139.9688,502.4531 Q139.7656,502.2656 139.6563,501.75 Q139.6094,501.3906 139.4219,501.2031 Q139.0938,500.8281 138.4844,500.6094 Q137.875,500.3906 137.25,500.3906 Q136.4844,500.3906 135.8438,500.7188 Q135.2188,501.0469 134.7188,501.7969 Q134.2344,502.5469 134.2344,503.5781 L134.2344,504.6719 Q134.2344,505.9063 135.125,506.7344 Q136.0156,507.5469 137.6094,507.5469 Q138.5469,507.5469 139.2031,507.2969 Q139.5938,507.1406 140.0156,506.7031 Q140.2813,506.4375 140.4219,506.3594 Q140.5781,506.2813 140.7813,506.2813 Q141.1094,506.2813 141.3594,506.5469 Q141.625,506.7969 141.625,507.1406 Q141.625,507.4844 141.2813,507.8906 Q140.7813,508.4688 139.9844,508.7969 Q138.9063,509.25 137.6094,509.25 Q136.0938,509.25 134.8906,508.625 Q133.9063,508.125 133.2188,507.0625 Q132.5313,505.9844 132.5313,504.7031 L132.5313,503.5469 Q132.5313,502.2188 133.1406,501.0781 Q133.7656,499.9219 134.8594,499.3125 Q135.9531,498.6875 137.1875,498.6875 Q137.9219,498.6875 138.5625,498.8594 Q139.2188,499.0156 139.7656,499.375 Z " fill="#000000"/><text fill="#000000" font-family="sans-serif" font-size="14" lengthAdjust="spacing" textLength="98.8135" x="151" y="509.2285">ModCommands</text><line style="stroke:#181818;stroke-width:0.5;" x1="123" x2="251.8135" y1="519.5" y2="519.5"/><line style="stroke:#181818;stroke-width:0.5;" x1="123" x2="251.8135" y1="527.5" y2="527.5"/></g><!--class Avatar--><g id="elem_Avatar"><rect codeLine="62" fill="#F1F1F1" height="153.6563" id="Avatar" rx="2.5" ry="2.5" style="stroke:#181818;stroke-width:0.5;" width="426.7705" x="288" y="434.5"/><ellipse cx="476.9043" cy="450.5" fill="#ADD1B2" rx="11" ry="11" style="stroke:#181818;stroke-width:1;"/><path d="M479.6699,446.375 Q479.8262,446.1563 480.0137,446.0469 Q480.2012,445.9375 480.4199,445.9375 Q480.7949,445.9375 481.0293,446.2031 Q481.2637,446.4531 481.2637,447.0625 L481.2637,448.5156 Q481.2637,449.125 481.0293,449.3906 Q480.7949,449.6563 480.4199,449.6563 Q480.0762,449.6563 479.873,449.4531 Q479.6699,449.2656 479.5605,448.75 Q479.5137,448.3906 479.3262,448.2031 Q478.998,447.8281 478.3887,447.6094 Q477.7793,447.3906 477.1543,447.3906 Q476.3887,447.3906 475.748,447.7188 Q475.123,448.0469 474.623,448.7969 Q474.1387,449.5469 474.1387,450.5781 L474.1387,451.6719 Q474.1387,452.9063 475.0293,453.7344 Q475.9199,454.5469 477.5137,454.5469 Q478.4512,454.5469 479.1074,454.2969 Q479.498,454.1406 479.9199,453.7031 Q480.1855,453.4375 480.3262,453.3594 Q480.4824,453.2813 480.6855,453.2813 Q481.0137,453.2813 481.2637,453.5469 Q481.5293,453.7969 481.5293,454.1406 Q481.5293,454.4844 481.1855,454.8906 Q480.6855,455.4688 479.8887,455.7969 Q478.8105,456.25 477.5137,456.25 Q475.998,456.25 474.7949,455.625 Q473.8105,455.125 473.123,454.0625 Q472.4355,452.9844 472.4355,451.7031 L472.4355,450.5469 Q472.4355,449.2188 473.0449,448.0781 Q473.6699,446.9219 474.7637,446.3125 Q475.8574,445.6875 477.0918,445.6875 Q477.8262,445.6875 478.4668,445.8594 Q479.123,446.0156 479.6699,446.375 Z " fill="#000000"/><text fill="#000000" font-family="sans-serif" font-size="14" lengthAdjust="spacing" textLength="40.4619" x="497.4043" y="456.2285">Avatar</text><line style="stroke:#181818;stroke-width:0.5;" x1="289" x2="713.7705" y1="466.5" y2="466.5"/><rect fill="transparent" height="6" style="stroke:#C82930;stroke-width:1;" width="6" x="296" y="477.8047"/><text fill="#000000" font-family="sans-serif" font-size="14" lengthAdjust="spacing" textLength="83.2617" x="308" y="485.0332">name : String</text><line style="stroke:#181818;stroke-width:0.5;" x1="289" x2="713.7705" y1="492.1094" y2="492.1094"/><ellipse cx="299" cy="506.4141" fill="#84BE84" rx="3" ry="3" style="stroke:#038048;stroke-width:1;"/><text fill="#000000" font-family="sans-serif" font-size="14" lengthAdjust="spacing" textLength="334.6191" x="308" y="510.6426">execute(SlashCommandInteractionEvent event) : void</text><rect fill="#F24D5C" height="6" style="stroke:#C82930;stroke-width:1;" width="6" x="296" y="521.0234"/><text fill="#000000" font-family="sans-serif" font-size="14" lengthAdjust="spacing" textLength="391.4053" x="308" y="528.252">buildAvatarEmbed(String avatar, String user) : MessageEmbed</text><rect fill="#F24D5C" height="6" style="stroke:#C82930;stroke-width:1;" width="6" x="296" y="538.6328"/><text fill="#000000" font-family="sans-serif" font-size="14" lengthAdjust="spacing" textLength="400.7705" x="308" y="545.8613">buildBannerEmbed(String banner, String user) : MessageEmbed</text><ellipse cx="299" cy="559.2422" fill="#84BE84" rx="3" ry="3" style="stroke:#038048;stroke-width:1;"/><text fill="#000000" font-family="sans-serif" font-size="14" lengthAdjust="spacing" textLength="204.6475" x="308" y="563.4707">getSlash() : SlashCommandData</text><ellipse cx="299" cy="576.8516" fill="#84BE84" rx="3" ry="3" style="stroke:#038048;stroke-width:1;"/><text fill="#000000" font-family="sans-serif" font-size="14" lengthAdjust="spacing" textLength="114.3721" x="308" y="581.0801">getName() : String</text></g><!--class UserCommands--><g id="elem_UserCommands"><rect codeLine="70" fill="#F1F1F1" height="48" id="UserCommands" rx="2.5" ry="2.5" style="stroke:#181818;stroke-width:0.5;" width="133.1377" x="750" y="487.5"/><ellipse cx="765" cy="503.5" fill="#ADD1B2" rx="11" ry="11" style="stroke:#181818;stroke-width:1;"/><path d="M767.7656,499.375 Q767.9219,499.1563 768.1094,499.0469 Q768.2969,498.9375 768.5156,498.9375 Q768.8906,498.9375 769.125,499.2031 Q769.3594,499.4531 769.3594,500.0625 L769.3594,501.5156 Q769.3594,502.125 769.125,502.3906 Q768.8906,502.6563 768.5156,502.6563 Q768.1719,502.6563 767.9688,502.4531 Q767.7656,502.2656 767.6563,501.75 Q767.6094,501.3906 767.4219,501.2031 Q767.0938,500.8281 766.4844,500.6094 Q765.875,500.3906 765.25,500.3906 Q764.4844,500.3906 763.8438,500.7188 Q763.2188,501.0469 762.7188,501.7969 Q762.2344,502.5469 762.2344,503.5781 L762.2344,504.6719 Q762.2344,505.9063 763.125,506.7344 Q764.0156,507.5469 765.6094,507.5469 Q766.5469,507.5469 767.2031,507.2969 Q767.5938,507.1406 768.0156,506.7031 Q768.2813,506.4375 768.4219,506.3594 Q768.5781,506.2813 768.7813,506.2813 Q769.1094,506.2813 769.3594,506.5469 Q769.625,506.7969 769.625,507.1406 Q769.625,507.4844 769.2813,507.8906 Q768.7813,508.4688 767.9844,508.7969 Q766.9063,509.25 765.6094,509.25 Q764.0938,509.25 762.8906,508.625 Q761.9063,508.125 761.2188,507.0625 Q760.5313,505.9844 760.5313,504.7031 L760.5313,503.5469 Q760.5313,502.2188 761.1406,501.0781 Q761.7656,499.9219 762.8594,499.3125 Q763.9531,498.6875 765.1875,498.6875 Q765.9219,498.6875 766.5625,498.8594 Q767.2188,499.0156 767.7656,499.375 Z " fill="#000000"/><text fill="#000000" font-family="sans-serif" font-size="14" lengthAdjust="spacing" textLength="101.1377" x="779" y="509.2285">UserCommands</text><line style="stroke:#181818;stroke-width:0.5;" x1="751" x2="882.1377" y1="519.5" y2="519.5"/><line style="stroke:#181818;stroke-width:0.5;" x1="751" x2="882.1377" y1="527.5" y2="527.5"/></g><!--class DatabaseManager--><g id="elem_DatabaseManager"><rect codeLine="72" fill="#F1F1F1" height="188.875" id="DatabaseManager" rx="2.5" ry="2.5" style="stroke:#181818;stroke-width:0.5;" width="346.6123" x="918" y="417"/><ellipse cx="1029.4634" cy="433" fill="#ADD1B2" rx="11" ry="11" style="stroke:#181818;stroke-width:1;"/><path d="M1032.229,428.875 Q1032.3853,428.6563 1032.5728,428.5469 Q1032.7603,428.4375 1032.979,428.4375 Q1033.354,428.4375 1033.5884,428.7031 Q1033.8228,428.9531 1033.8228,429.5625 L1033.8228,431.0156 Q1033.8228,431.625 1033.5884,431.8906 Q1033.354,432.1563 1032.979,432.1563 Q1032.6353,432.1563 1032.4321,431.9531 Q1032.229,431.7656 1032.1196,431.25 Q1032.0728,430.8906 1031.8853,430.7031 Q1031.5571,430.3281 1030.9478,430.1094 Q1030.3384,429.8906 1029.7134,429.8906 Q1028.9478,429.8906 1028.3071,430.2188 Q1027.6821,430.5469 1027.1821,431.2969 Q1026.6978,432.0469 1026.6978,433.0781 L1026.6978,434.1719 Q1026.6978,435.4063 1027.5884,436.2344 Q1028.479,437.0469 1030.0728,437.0469 Q1031.0103,437.0469 1031.6665,436.7969 Q1032.0571,436.6406 1032.479,436.2031 Q1032.7446,435.9375 1032.8853,435.8594 Q1033.0415,435.7813 1033.2446,435.7813 Q1033.5728,435.7813 1033.8228,436.0469 Q1034.0884,436.2969 1034.0884,436.6406 Q1034.0884,436.9844 1033.7446,437.3906 Q1033.2446,437.9688 1032.4478,438.2969 Q1031.3696,438.75 1030.0728,438.75 Q1028.5571,438.75 1027.354,438.125 Q1026.3696,437.625 1025.6821,436.5625 Q1024.9946,435.4844 1024.9946,434.2031 L1024.9946,433.0469 Q1024.9946,431.7188 1025.604,430.5781 Q1026.229,429.4219 1027.3228,428.8125 Q1028.4165,428.1875 1029.6509,428.1875 Q1030.3853,428.1875 1031.0259,428.3594 Q1031.6821,428.5156 1032.229,428.875 Z " fill="#000000"/><text fill="#000000" font-family="sans-serif" font-size="14" lengthAdjust="spacing" textLength="115.1855" x="1049.9634" y="438.7285">DatabaseManager</text><line style="stroke:#181818;stroke-width:0.5;" x1="919" x2="1263.6123" y1="449" y2="449"/><rect fill="transparent" height="6" style="stroke:#C82930;stroke-width:1;" width="6" x="926" y="460.3047"/><text fill="#000000" font-family="sans-serif" font-size="14" lengthAdjust="spacing" textLength="63.7998" x="938" y="467.5332">url : String</text><rect fill="transparent" height="6" style="stroke:#C82930;stroke-width:1;" width="6" x="926" y="477.9141"/><text fill="#000000" font-family="sans-serif" font-size="14" lengthAdjust="spacing" textLength="75.4756" x="938" y="485.1426">user : String</text><rect fill="transparent" height="6" style="stroke:#C82930;stroke-width:1;" width="6" x="926" y="495.5234"/><text fill="#000000" font-family="sans-serif" font-size="14" lengthAdjust="spacing" textLength="108.1582" x="938" y="502.752">password : String</text><rect fill="transparent" height="6" style="stroke:#C82930;stroke-width:1;" width="6" x="926" y="513.1328"/><text fill="#000000" font-family="sans-serif" font-size="14" lengthAdjust="spacing" textLength="150.2129" x="938" y="520.3613">connection : Connection</text><line style="stroke:#181818;stroke-width:0.5;" x1="919" x2="1263.6123" y1="527.4375" y2="527.4375"/><rect fill="#F24D5C" height="6" style="stroke:#C82930;stroke-width:1;" width="6" x="926" y="538.7422"/><text fill="#000000" font-family="sans-serif" font-size="14" lengthAdjust="spacing" textLength="95.71" x="938" y="545.9707">connect() : void</text><ellipse cx="929" cy="559.3516" fill="#84BE84" rx="3" ry="3" style="stroke:#038048;stroke-width:1;"/><text fill="#000000" font-family="sans-serif" font-size="14" lengthAdjust="spacing" textLength="320.6123" x="938" y="563.5801">addPenalty(String userId, String penaltyType) : void</text><ellipse cx="929" cy="576.9609" fill="#84BE84" rx="3" ry="3" style="stroke:#038048;stroke-width:1;"/><text fill="#000000" font-family="sans-serif" font-size="14" lengthAdjust="spacing" textLength="238.1162" x="938" y="581.1895">getPenalties(String userId) : ResultSet</text><ellipse cx="929" cy="594.5703" fill="#84BE84" rx="3" ry="3" style="stroke:#038048;stroke-width:1;"/><text fill="#000000" font-family="sans-serif" font-size="14" lengthAdjust="spacing" textLength="79.3584" x="938" y="598.7988">close() : void</text></g><!--class EventListener--><g id="elem_EventListener"><rect codeLine="82" fill="#F1F1F1" height="136.0469" id="EventListener" rx="2.5" ry="2.5" style="stroke:#181818;stroke-width:0.5;" width="436.1289" x="1300.5" y="443.5"/><ellipse cx="1471.5112" cy="459.5" fill="#ADD1B2" rx="11" ry="11" style="stroke:#181818;stroke-width:1;"/><path d="M1474.2769,455.375 Q1474.4331,455.1563 1474.6206,455.0469 Q1474.8081,454.9375 1475.0269,454.9375 Q1475.4019,454.9375 1475.6362,455.2031 Q1475.8706,455.4531 1475.8706,456.0625 L1475.8706,457.5156 Q1475.8706,458.125 1475.6362,458.3906 Q1475.4019,458.6563 1475.0269,458.6563 Q1474.6831,458.6563 1474.48,458.4531 Q1474.2769,458.2656 1474.1675,457.75 Q1474.1206,457.3906 1473.9331,457.2031 Q1473.605,456.8281 1472.9956,456.6094 Q1472.3862,456.3906 1471.7612,456.3906 Q1470.9956,456.3906 1470.355,456.7188 Q1469.73,457.0469 1469.23,457.7969 Q1468.7456,458.5469 1468.7456,459.5781 L1468.7456,460.6719 Q1468.7456,461.9063 1469.6362,462.7344 Q1470.5269,463.5469 1472.1206,463.5469 Q1473.0581,463.5469 1473.7144,463.2969 Q1474.105,463.1406 1474.5269,462.7031 Q1474.7925,462.4375 1474.9331,462.3594 Q1475.0894,462.2813 1475.2925,462.2813 Q1475.6206,462.2813 1475.8706,462.5469 Q1476.1362,462.7969 1476.1362,463.1406 Q1476.1362,463.4844 1475.7925,463.8906 Q1475.2925,464.4688 1474.4956,464.7969 Q1473.4175,465.25 1472.1206,465.25 Q1470.605,465.25 1469.4019,464.625 Q1468.4175,464.125 1467.73,463.0625 Q1467.0425,461.9844 1467.0425,460.7031 L1467.0425,459.5469 Q1467.0425,458.2188 1467.6519,457.0781 Q1468.2769,455.9219 1469.3706,455.3125 Q1470.4644,454.6875 1471.6987,454.6875 Q1472.4331,454.6875 1473.0737,454.8594 Q1473.73,455.0156 1474.2769,455.375 Z " fill="#000000"/><text fill="#000000" font-family="sans-serif" font-size="14" lengthAdjust="spacing" textLength="85.6064" x="1492.0112" y="465.2285">EventListener</text><line style="stroke:#181818;stroke-width:0.5;" x1="1301.5" x2="1735.6289" y1="475.5" y2="475.5"/><ellipse cx="1311.5" cy="489.8047" fill="transparent" rx="3" ry="3" style="stroke:#038048;stroke-width:1;"/><text fill="#000000" font-family="sans-serif" font-size="14" lengthAdjust="spacing" textLength="187.5645" x="1320.5" y="494.0332">isCommandEnabled : boolean</text><line style="stroke:#181818;stroke-width:0.5;" x1="1301.5" x2="1735.6289" y1="501.1094" y2="501.1094"/><ellipse cx="1311.5" cy="515.4141" fill="#84BE84" rx="3" ry="3" style="stroke:#038048;stroke-width:1;"/><text fill="#000000" font-family="sans-serif" font-size="14" lengthAdjust="spacing" textLength="366.5293" x="1320.5" y="519.6426">onMessageReceived(MessageReceivedEvent event) : void</text><ellipse cx="1311.5" cy="533.0234" fill="#84BE84" rx="3" ry="3" style="stroke:#038048;stroke-width:1;"/><text fill="#000000" font-family="sans-serif" font-size="14" lengthAdjust="spacing" textLength="410.1289" x="1320.5" y="537.252">onMessageReactionAdd(MessageReactionAddEvent event) : void</text><ellipse cx="1311.5" cy="550.6328" fill="#84BE84" rx="3" ry="3" style="stroke:#038048;stroke-width:1;"/><text fill="#000000" font-family="sans-serif" font-size="14" lengthAdjust="spacing" textLength="284.8535" x="1320.5" y="554.8613">setCommandEnabled(boolean enabled) : void</text><ellipse cx="1311.5" cy="568.2422" fill="#84BE84" rx="3" ry="3" style="stroke:#038048;stroke-width:1;"/><text fill="#000000" font-family="sans-serif" font-size="14" lengthAdjust="spacing" textLength="196.8887" x="1320.5" y="572.4707">isCommandEnabled() : boolean</text></g><!--class GuiManager--><g id="elem_GuiManager"><rect codeLine="89" fill="#F1F1F1" height="83.2188" id="GuiManager" rx="2.5" ry="2.5" style="stroke:#181818;stroke-width:0.5;" width="144.2617" x="115.5" y="763"/><ellipse cx="146.3493" cy="779" fill="#ADD1B2" rx="11" ry="11" style="stroke:#181818;stroke-width:1;"/><path d="M149.1149,774.875 Q149.2712,774.6563 149.4587,774.5469 Q149.6462,774.4375 149.8649,774.4375 Q150.2399,774.4375 150.4743,774.7031 Q150.7087,774.9531 150.7087,775.5625 L150.7087,777.0156 Q150.7087,777.625 150.4743,777.8906 Q150.2399,778.1563 149.8649,778.1563 Q149.5212,778.1563 149.3181,777.9531 Q149.1149,777.7656 149.0056,777.25 Q148.9587,776.8906 148.7712,776.7031 Q148.4431,776.3281 147.8337,776.1094 Q147.2243,775.8906 146.5993,775.8906 Q145.8337,775.8906 145.1931,776.2188 Q144.5681,776.5469 144.0681,777.2969 Q143.5837,778.0469 143.5837,779.0781 L143.5837,780.1719 Q143.5837,781.4063 144.4743,782.2344 Q145.3649,783.0469 146.9587,783.0469 Q147.8962,783.0469 148.5524,782.7969 Q148.9431,782.6406 149.3649,782.2031 Q149.6306,781.9375 149.7712,781.8594 Q149.9274,781.7813 150.1306,781.7813 Q150.4587,781.7813 150.7087,782.0469 Q150.9743,782.2969 150.9743,782.6406 Q150.9743,782.9844 150.6306,783.3906 Q150.1306,783.9688 149.3337,784.2969 Q148.2556,784.75 146.9587,784.75 Q145.4431,784.75 144.2399,784.125 Q143.2556,783.625 142.5681,782.5625 Q141.8806,781.4844 141.8806,780.2031 L141.8806,779.0469 Q141.8806,777.7188 142.4899,776.5781 Q143.1149,775.4219 144.2087,774.8125 Q145.3024,774.1875 146.5368,774.1875 Q147.2712,774.1875 147.9118,774.3594 Q148.5681,774.5156 149.1149,774.875 Z " fill="#000000"/><text fill="#000000" font-family="sans-serif" font-size="14" lengthAdjust="spacing" textLength="77.041" x="163.8714" y="784.7285">GuiManager</text><line style="stroke:#181818;stroke-width:0.5;" x1="116.5" x2="258.7617" y1="795" y2="795"/><line style="stroke:#181818;stroke-width:0.5;" x1="116.5" x2="258.7617" y1="803" y2="803"/><ellipse cx="126.5" cy="817.3047" fill="#84BE84" rx="3" ry="3" style="stroke:#038048;stroke-width:1;"/><text fill="#000000" font-family="sans-serif" font-size="14" lengthAdjust="spacing" textLength="118.2617" x="135.5" y="821.5332">initializeGui() : void</text><ellipse cx="126.5" cy="834.9141" fill="#84BE84" rx="3" ry="3" style="stroke:#038048;stroke-width:1;"/><text fill="#000000" font-family="sans-serif" font-size="14" lengthAdjust="spacing" textLength="111.2822" x="135.5" y="839.1426">updateGui() : void</text></g><!--class Main--><g id="elem_Main"><rect codeLine="93" fill="#F1F1F1" height="65.6094" id="Main" rx="2.5" ry="2.5" style="stroke:#181818;stroke-width:0.5;" width="178.4961" x="294.5" y="771.5"/><ellipse cx="364.3257" cy="787.5" fill="#ADD1B2" rx="11" ry="11" style="stroke:#181818;stroke-width:1;"/><path d="M367.0913,783.375 Q367.2476,783.1563 367.4351,783.0469 Q367.6226,782.9375 367.8413,782.9375 Q368.2163,782.9375 368.4507,783.2031 Q368.6851,783.4531 368.6851,784.0625 L368.6851,785.5156 Q368.6851,786.125 368.4507,786.3906 Q368.2163,786.6563 367.8413,786.6563 Q367.4976,786.6563 367.2944,786.4531 Q367.0913,786.2656 366.9819,785.75 Q366.9351,785.3906 366.7476,785.2031 Q366.4194,784.8281 365.8101,784.6094 Q365.2007,784.3906 364.5757,784.3906 Q363.8101,784.3906 363.1694,784.7188 Q362.5444,785.0469 362.0444,785.7969 Q361.5601,786.5469 361.5601,787.5781 L361.5601,788.6719 Q361.5601,789.9063 362.4507,790.7344 Q363.3413,791.5469 364.9351,791.5469 Q365.8726,791.5469 366.5288,791.2969 Q366.9194,791.1406 367.3413,790.7031 Q367.6069,790.4375 367.7476,790.3594 Q367.9038,790.2813 368.1069,790.2813 Q368.4351,790.2813 368.6851,790.5469 Q368.9507,790.7969 368.9507,791.1406 Q368.9507,791.4844 368.6069,791.8906 Q368.1069,792.4688 367.3101,792.7969 Q366.2319,793.25 364.9351,793.25 Q363.4194,793.25 362.2163,792.625 Q361.2319,792.125 360.5444,791.0625 Q359.8569,789.9844 359.8569,788.7031 L359.8569,787.5469 Q359.8569,786.2188 360.4663,785.0781 Q361.0913,783.9219 362.1851,783.3125 Q363.2788,782.6875 364.5132,782.6875 Q365.2476,782.6875 365.8882,782.8594 Q366.5444,783.0156 367.0913,783.375 Z " fill="#000000"/><text fill="#000000" font-family="sans-serif" font-size="14" lengthAdjust="spacing" textLength="30.3447" x="384.8257" y="793.2285">Main</text><line style="stroke:#181818;stroke-width:0.5;" x1="295.5" x2="471.9961" y1="803.5" y2="803.5"/><line style="stroke:#181818;stroke-width:0.5;" x1="295.5" x2="471.9961" y1="811.5" y2="811.5"/><ellipse cx="305.5" cy="825.8047" fill="#84BE84" rx="3" ry="3" style="stroke:#038048;stroke-width:1;"/><text fill="#000000" font-family="sans-serif" font-size="14" lengthAdjust="spacing" textLength="152.4961" x="314.5" y="830.0332">main(String[] args) : void</text></g><!--class UMLGenerator--><g id="elem_UMLGenerator"><rect codeLine="96" fill="#F1F1F1" height="276.9219" id="UMLGenerator" rx="2.5" ry="2.5" style="stroke:#181818;stroke-width:0.5;" width="387.0264" x="508" y="666"/><ellipse cx="650.9668" cy="682" fill="#ADD1B2" rx="11" ry="11" style="stroke:#181818;stroke-width:1;"/><path d="M653.7324,677.875 Q653.8887,677.6563 654.0762,677.5469 Q654.2637,677.4375 654.4824,677.4375 Q654.8574,677.4375 655.0918,677.7031 Q655.3262,677.9531 655.3262,678.5625 L655.3262,680.0156 Q655.3262,680.625 655.0918,680.8906 Q654.8574,681.1563 654.4824,681.1563 Q654.1387,681.1563 653.9355,680.9531 Q653.7324,680.7656 653.623,680.25 Q653.5762,679.8906 653.3887,679.7031 Q653.0605,679.3281 652.4512,679.1094 Q651.8418,678.8906 651.2168,678.8906 Q650.4512,678.8906 649.8105,679.2188 Q649.1855,679.5469 648.6855,680.2969 Q648.2012,681.0469 648.2012,682.0781 L648.2012,683.1719 Q648.2012,684.4063 649.0918,685.2344 Q649.9824,686.0469 651.5762,686.0469 Q652.5137,686.0469 653.1699,685.7969 Q653.5605,685.6406 653.9824,685.2031 Q654.248,684.9375 654.3887,684.8594 Q654.5449,684.7813 654.748,684.7813 Q655.0762,684.7813 655.3262,685.0469 Q655.5918,685.2969 655.5918,685.6406 Q655.5918,685.9844 655.248,686.3906 Q654.748,686.9688 653.9512,687.2969 Q652.873,687.75 651.5762,687.75 Q650.0605,687.75 648.8574,687.125 Q647.873,686.625 647.1855,685.5625 Q646.498,684.4844 646.498,683.2031 L646.498,682.0469 Q646.498,680.7188 647.1074,679.5781 Q647.7324,678.4219 648.8262,677.8125 Q649.9199,677.1875 651.1543,677.1875 Q651.8887,677.1875 652.5293,677.3594 Q653.1855,677.5156 653.7324,677.875 Z " fill="#000000"/><text fill="#000000" font-family="sans-serif" font-size="14" lengthAdjust="spacing" textLength="92.5928" x="671.4668" y="687.7285">UMLGenerator</text><line style="stroke:#181818;stroke-width:0.5;" x1="509" x2="894.0264" y1="698" y2="698"/><rect fill="transparent" height="6" style="stroke:#C82930;stroke-width:1;" width="6" x="516" y="709.3047"/><text fill="#000000" font-family="sans-serif" font-size="14" lengthAdjust="spacing" textLength="133.0615" x="528" y="716.5332">classes : List&lt;String&gt;</text><rect fill="transparent" height="6" style="stroke:#C82930;stroke-width:1;" width="6" x="516" y="726.9141"/><text fill="#000000" font-family="sans-serif" font-size="14" lengthAdjust="spacing" textLength="164.9785" x="528" y="734.1426">relationships : List&lt;String&gt;</text><rect fill="transparent" height="6" style="stroke:#C82930;stroke-width:1;" width="6" x="516" y="744.5234"/><text fill="#000000" font-family="sans-serif" font-size="14" lengthAdjust="spacing" textLength="200.7646" x="528" y="751.752">javaNativeClasses : Set&lt;String&gt;</text><line style="stroke:#181818;stroke-width:0.5;" x1="509" x2="894.0264" y1="758.8281" y2="758.8281"/><ellipse cx="519" cy="773.1328" fill="#84BE84" rx="3" ry="3" style="stroke:#038048;stroke-width:1;"/><text fill="#000000" font-family="sans-serif" font-size="14" lengthAdjust="spacing" textLength="152.4961" x="528" y="777.3613">main(String[] args) : void</text><rect fill="#F24D5C" height="6" style="stroke:#C82930;stroke-width:1;" width="6" x="516" y="787.7422"/><text fill="#000000" font-family="sans-serif" font-size="14" lengthAdjust="spacing" textLength="213.1719" x="528" y="794.9707">processDirectory(File folder) : void</text><rect fill="#F24D5C" height="6" style="stroke:#C82930;stroke-width:1;" width="6" x="516" y="805.3516"/><text fill="#000000" font-family="sans-serif" font-size="14" lengthAdjust="spacing" textLength="162.5996" x="528" y="812.5801">processFile(File file) : void</text><rect fill="#F24D5C" height="6" style="stroke:#C82930;stroke-width:1;" width="6" x="516" y="822.9609"/><text fill="#000000" font-family="sans-serif" font-size="14" lengthAdjust="spacing" textLength="262.9854" x="528" y="830.1895">processClasses(CompilationUnit cu) : void</text><rect fill="#F24D5C" height="6" style="stroke:#C82930;stroke-width:1;" width="6" x="516" y="840.5703"/><text fill="#000000" font-family="sans-serif" font-size="14" lengthAdjust="spacing" textLength="326.8125" x="528" y="847.7988">processAtributes(List&lt;FieldDeclaration&gt; fields) : void</text><rect fill="#F24D5C" height="6" style="stroke:#C82930;stroke-width:1;" width="6" x="516" y="858.1797"/><text fill="#000000" font-family="sans-serif" font-size="14" lengthAdjust="spacing" textLength="361.0264" x="528" y="865.4082">processMethods(ClassOrInterfaceDeclaration clazz) : void</text><rect fill="#F24D5C" height="6" style="stroke:#C82930;stroke-width:1;" width="6" x="516" y="875.7891"/><text fill="#000000" font-family="sans-serif" font-size="14" lengthAdjust="spacing" textLength="297.2402" x="528" y="883.0176">processRelationships(CompilationUnit cu) : void</text><rect fill="#F24D5C" height="6" style="stroke:#C82930;stroke-width:1;" width="6" x="516" y="893.3984"/><text fill="#000000" font-family="sans-serif" font-size="14" lengthAdjust="spacing" textLength="293.3232" x="528" y="900.627">isClassInDirectory(String className) : boolean</text><rect fill="#F24D5C" height="6" style="stroke:#C82930;stroke-width:1;" width="6" x="516" y="911.0078"/><text fill="#000000" font-family="sans-serif" font-size="14" lengthAdjust="spacing" textLength="163.4131" x="528" y="918.2363">generatePlantUML() : void</text><rect fill="#F24D5C" height="6" style="stroke:#C82930;stroke-width:1;" width="6" x="516" y="928.6172"/><text fill="#000000" font-family="sans-serif" font-size="14" lengthAdjust="spacing" textLength="234.9854" x="528" y="935.8457">generateImageFromPlantUML() : void</text></g><!--class Utils--><g id="elem_Utils"><rect codeLine="111" fill="#F1F1F1" height="100.8281" id="Utils" rx="2.5" ry="2.5" style="stroke:#181818;stroke-width:0.5;" width="417.3848" x="930" y="754"/><ellipse cx="1120.832" cy="770" fill="#ADD1B2" rx="11" ry="11" style="stroke:#181818;stroke-width:1;"/><path d="M1123.5977,765.875 Q1123.7539,765.6563 1123.9414,765.5469 Q1124.1289,765.4375 1124.3477,765.4375 Q1124.7227,765.4375 1124.957,765.7031 Q1125.1914,765.9531 1125.1914,766.5625 L1125.1914,768.0156 Q1125.1914,768.625 1124.957,768.8906 Q1124.7227,769.1563 1124.3477,769.1563 Q1124.0039,769.1563 1123.8008,768.9531 Q1123.5977,768.7656 1123.4883,768.25 Q1123.4414,767.8906 1123.2539,767.7031 Q1122.9258,767.3281 1122.3164,767.1094 Q1121.707,766.8906 1121.082,766.8906 Q1120.3164,766.8906 1119.6758,767.2188 Q1119.0508,767.5469 1118.5508,768.2969 Q1118.0664,769.0469 1118.0664,770.0781 L1118.0664,771.1719 Q1118.0664,772.4063 1118.957,773.2344 Q1119.8477,774.0469 1121.4414,774.0469 Q1122.3789,774.0469 1123.0352,773.7969 Q1123.4258,773.6406 1123.8477,773.2031 Q1124.1133,772.9375 1124.2539,772.8594 Q1124.4102,772.7813 1124.6133,772.7813 Q1124.9414,772.7813 1125.1914,773.0469 Q1125.457,773.2969 1125.457,773.6406 Q1125.457,773.9844 1125.1133,774.3906 Q1124.6133,774.9688 1123.8164,775.2969 Q1122.7383,775.75 1121.4414,775.75 Q1119.9258,775.75 1118.7227,775.125 Q1117.7383,774.625 1117.0508,773.5625 Q1116.3633,772.4844 1116.3633,771.2031 L1116.3633,770.0469 Q1116.3633,768.7188 1116.9727,767.5781 Q1117.5977,766.4219 1118.6914,765.8125 Q1119.7852,765.1875 1121.0195,765.1875 Q1121.7539,765.1875 1122.3945,765.3594 Q1123.0508,765.5156 1123.5977,765.875 Z " fill="#000000"/><text fill="#000000" font-family="sans-serif" font-size="14" lengthAdjust="spacing" textLength="27.2207" x="1141.332" y="775.7285">Utils</text><line style="stroke:#181818;stroke-width:0.5;" x1="931" x2="1346.3848" y1="786" y2="786"/><line style="stroke:#181818;stroke-width:0.5;" x1="931" x2="1346.3848" y1="794" y2="794"/><ellipse cx="941" cy="808.3047" fill="#84BE84" rx="3" ry="3" style="stroke:#038048;stroke-width:1;"/><text fill="#000000" font-family="sans-serif" font-size="14" lengthAdjust="spacing" textLength="232.668" x="950" y="812.5332">isValidUserId(String userId) : boolean</text><ellipse cx="941" cy="825.9141" fill="#84BE84" rx="3" ry="3" style="stroke:#038048;stroke-width:1;"/><text fill="#000000" font-family="sans-serif" font-size="14" lengthAdjust="spacing" textLength="391.3848" x="950" y="830.1426">formatPenaltyMessage(String userName, String action) : String</text><ellipse cx="941" cy="843.5234" fill="#84BE84" rx="3" ry="3" style="stroke:#038048;stroke-width:1;"/><text fill="#000000" font-family="sans-serif" font-size="14" lengthAdjust="spacing" textLength="231.1094" x="950" y="847.752">formatDuration(long duration) : String</text></g><!--SRC=[pLRDRXen4Bxp53vkH7Y1Aa8Ya4IqWKOaz5BrODOJuiHhhsmlBOdwxXt_xAuN257Lgiq5OSytuvbl_ZONr1XohYnvwGs8KEirQFA1NFi_lJvvP1IF7oSZ_5yeLWcOKKa3Q9QUKMuirJQxjPhBDR7g2UG9eZQAizxF7fSMz3tDWKp7gYYePFXYdqXQ08A24fxX1-ILXUmM_Ng8mAbJfRdbIbviG5e2xhUntIThi1wVkRjKSq8j3V8vlXF4uQMVlTn7ted1Sn2YD2u-Mfu5-Ab_zveR2nBq44rgMBkJ3lfrq2wQKz81Htk9jo3f2f_SKqmWZ9itCTm4yOKtntPHAwK4K1cY3qZZ2NWzgfgJI5vBIf_auSgnul1dTGw7k-nxwMuA74h9LrBwEwbkikPT6zTElRIkQw0M5XYwp-N_hgu927X7xfnJ-Q_y692IQWDtl6Zgr_9GcJW9ZhlvYUTFxuAl6Jxs3WYRL9ewiszEiWCDCTgWSVstWXYGLSK52qOlYbKxTgY_EetMIML0-s43nc2dUcYjZLM8uwQZlV9NnxN_A9DBj7Y07QUuegOp_oijMls1zoKzbwZtNMcMtkKAtVUauUsuERIIB2a3ojWDhW1XjraIxfGrqPT1UhSjeLizGOtZ7EyeEj02J2NiBRZEoeKoaEtDpEvMUl4R958ILqXdQoWPsLz03do3kTev7oxoH2sKqOWbcitLOMK3jkjH5ls9EvDrrjyED5rwTSnN5K-t69VSSYhuCw0WpKbLCbmRdSjsrN3fbGly4ud_-erGlJPxsENi-ignIwqAjUIleTcQGNk80Wt2jxHvuEK1yIEsqnm16nWt5Z2v3UAeDrYZMkL8-OHhh3sbjzabnmrqhmGBVTM5EM54yEH3fP575pBak-J1xIKIIV9g7pj2ZrOuL4pc8xha8DW4a8OmmORu1DuSy7K6za4nVCGzzbbFww_5HDcn-Voyhxf8kJpk9G_1J6LBJMmbdwdvphVJ0BlEfnDk19KMqvibnchPjC02kzIgs0SrXM6vCB7dlc01igNltFq-RlllNkc2nfRVnWPAyNF_gLbFNzzN9-bq3_hrwiY4GXYBftH0_W80]--></g></svg>